<svg xmlns="http://www.w3.org/2000/svg" width="14" height="14"><g fill="none" fill-rule="nonzero"><path fill="#E54430" d="M8.836 8.836L12 2 5.164 5.164 2 12l6.836-3.164zm1.3612.63a1.5 1.5 0 0 1-.7312.7312l-6.836 3.164C1.363 13.9478.0524 12.637.6388 11.37L3.8028 4.534a1.5 1.5 0 0 1 .7312-.7312L11.37.6388c1.267-.5865 2.5777.7242 1.9913 1.9913L10.1972 9.466z"/><path fill="#FC5D5F" stroke="#E54430" stroke-linecap="round" stroke-linejoin="round" stroke-width="1.5" d="M6.4688 6.5c.1458-.1458.3229-.2188.5312-.2188.2083 0 .3802.0678.5156.2032.1354.1354.2031.3073.2031.5156 0 .2083-.0677.3802-.203.5156-.1355.1354-.3074.2031-.5157.2031-.2083 0-.3802-.0677-.5156-.203-.1354-.1355-.2031-.3074-.2031-.5157 0-.2083.0624-.375.1875-.5z"/></g></svg>
