<svg width="20" height="20" aria-hidden="true" focusable="false" xmlns="http://www.w3.org/2000/svg">
  <path fill-rule="nonzero" d="M8 6.38a2.1 2.1 0 0 1 1.96 2.85l.81.54a2.09 2.09 0 0 1 1.86-.3l.42-.56c.09-.12.52-.23.79-.04.27.18.28.61.2.72l-.42.55a2.1 2.1 0 1 1-3.58.58l-.81-.54a2.09 2.09 0 0 1-1.86.3L5.7 12.73a2.1 2.1 0 1 1-.96-.72l1.65-2.2A2.1 2.1 0 0 1 8 6.38Zm-4 6.7a.9.9 0 1 0 0 1.8.9.9 0 0 0 0-1.8Zm8-2.5a.9.9 0 1 0 0 1.8.9.9 0 0 0 0-1.8Zm-4-3a.9.9 0 1 0 0 1.8.9.9 0 0 0 0-1.8Zm7.63-5.1c.33 0 .6.26.6.6V5.1h2.02a.6.6 0 0 1 0 1.2h-2.02v2.02a.6.6 0 0 1-1.2 0V6.3H13a.6.6 0 0 1 0-1.2h2.03V3.08c0-.34.26-.6.6-.6Z"/>
</svg>