<svg width="20" height="20" aria-hidden="true" focusable="false" xmlns="http://www.w3.org/2000/svg">
  <path fill-rule="nonzero" d="M10.19 3.4a.6.6 0 0 1 0 1.2 3.9 3.9 0 0 0-3.9 3.9c0 1.92 1.24 4.26 3.75 6.99l.13.13.56-.66a24.26 24.26 0 0 0 2.38-3.2l.08-.13a.6.6 0 1 1 1.06.56c-.53 1-1.73 2.56-3.61 4.72a.6.6 0 0 1-.88.03c-3.1-3.2-4.67-6-4.67-8.44a5.1 5.1 0 0 1 5.1-5.1ZM13.7 2c.32 0 .6.24.64.54l.01.11v2.71h2.72a.65.65 0 0 1 .1 1.3H14.35V9.48a.65.65 0 0 1-1.29 0V6.66h-2.72a.65.65 0 0 1-.1-1.29h2.81V2.64l.01-.1c.05-.31.32-.55.64-.55Z"/>
</svg>