<svg width="20" height="20" aria-hidden="true" focusable="false" xmlns="http://www.w3.org/2000/svg">
  <path fill-rule="nonzero" d="M15.39 14.94a.5.5 0 0 1-.08.7A5.3 5.3 0 0 1 12 16.75a5.38 5.38 0 0 1-3-.88c-.84.56-1.89.88-3 .88a5.3 5.3 0 0 1-3.31-1.11.5.5 0 1 1 .62-.78c.7.56 1.66.89 2.69.89.94 0 1.83-.27 2.5-.75l.24-.18.07-.03.07-.02.05-.02h.14l.06.02h.04l.07.04.07.05c.7.56 1.66.89 2.69.89a4.3 4.3 0 0 0 2.69-.89.5.5 0 0 1 .7.08ZM9.05 5.2c.33 0 .6.27.6.6v.4h1.4c.33 0 .6.27.6.6v2.27l1.6.56c.28.1.45.4.39.7l-1 4.6a.6.6 0 0 1-1.18-.26l.89-4.08-3.3-1.15-3.3 1.15.89 4.08a.6.6 0 0 1-.37.69l-.1.03a.6.6 0 0 1-.7-.46l-1-4.6a.6.6 0 0 1 .38-.7l1.6-.56V6.8c0-.33.27-.6.6-.6h1.4v-.4c0-.33.27-.6.6-.6Zm6-1.8c.33 0 .6.27.6.6v1.6h1.6a.6.6 0 1 1 0 1.2h-1.6v1.6a.6.6 0 1 1-1.2 0V6.8h-1.6a.6.6 0 0 1 0-1.2h1.6V4c0-.33.27-.6.6-.6Zm-4.6 4h-2.8v1.25l1.2-.42a.6.6 0 0 1 .4 0l1.2.42V7.4Z"/>
</svg>