<svg width="20" height="20" aria-hidden="true" focusable="false" xmlns="http://www.w3.org/2000/svg">
  <path fill-rule="nonzero" d="M16 3.9a2.1 2.1 0 1 1-.7 4l-1.7 2.3c.3.3.5.8.5 1.3a2.1 2.1 0 1 1-4-.8l-.9-.5a2 2 0 0 1-1.8.3l-1.7 2.3c.2.3.4.7.4 1.2a2.1 2.1 0 1 1-1.4-2l1.7-2.2a2.1 2.1 0 1 1 3.6-.6l.8.6a2 2 0 0 1 1.8-.3l1.7-2.2A2.1 2.1 0 0 1 16 3.9ZM4 13.1a.9.9 0 1 0 0 1.8.9.9 0 0 0 0-1.8Zm8-2.5a.9.9 0 1 0 0 1.8.9.9 0 0 0 0-1.8Zm-4-3a.9.9 0 1 0 0 1.8.9.9 0 0 0 0-1.8Zm8-2.5a.9.9 0 1 0 0 1.8.9.9 0 0 0 0-1.8Z"/>
</svg>
