<svg width="20" height="20" aria-hidden="true" focusable="false" xmlns="http://www.w3.org/2000/svg">
  <path fill-rule="nonzero" d="M6.54 12.27H2.96l-.8 2.23H1l3.26-8.53h.98l3.27 8.53H7.35l-.81-2.23Zm-3.24-.92h2.9l-1.45-4-1.45 4Zm13.01 5.15v1h-2v-1h2Zm3 0v1h-2v-1h2Zm-2-13v13h-1v-13h1Zm-6.74 2v3.36a2.2 2.2 0 0 1 1.8-.82c.78 0 1.38.3 1.82.88.4.53.62 1.23.66 2.12v.36c0 .97-.22 1.75-.67 2.34-.44.58-1.04.88-1.79.88-.8 0-1.42-.29-1.86-.85l-.05.73h-1v-9h1.09Zm1.54 3.46a1.6 1.6 0 0 0-1.54 1v2.74c.33.67.85 1 1.55 1 .52 0 .92-.2 1.21-.6.3-.4.44-1.01.44-1.82 0-.74-.14-1.31-.43-1.71-.29-.4-.7-.6-1.23-.6Zm4.2-6.46v1h-2v-1h2Zm3 0v1h-2v-1h2Z"/>
</svg>
