<svg width="20" height="20" aria-hidden="true" focusable="false" xmlns="http://www.w3.org/2000/svg"><path d="M5.5 4.3a.6.6 0 01.097 1.192L5.5 5.5h-.9l-.001 1.849h10.8L15.4 5.5h-.9a.6.6 0 01-.592-.503L13.9 4.9a.6.6 0 01.503-.592L14.5 4.3H16a.6.6 0 01.592.503l.008.097v11a.6.6 0 01-.503.592L16 16.5H4a.6.6 0 01-.592-.503L3.4 15.9v-11a.6.6 0 01.503-.592L4 4.3h1.5zm9.899 4.35h-10.8L4.6 15.3h10.8l-.001-6.65zM7.5 3.5a.65.65 0 01.643.554l.007.096v1.5a.65.65 0 01-1.293.096L6.85 5.65v-1.5a.65.65 0 01.65-.65zm5 0a.65.65 0 01.643.554l.007.096v1.5a.65.65 0 01-1.293.096l-.007-.096v-1.5a.65.65 0 01.65-.65zm-2.042.95a.65.65 0 01.096 1.293l-.096.007h-.916a.65.65 0 01-.096-1.293l.096-.007h.916z" fill-rule="nonzero"/></svg>