<svg width="20" height="20" aria-hidden="true" focusable="false" xmlns="http://www.w3.org/2000/svg">
  <path fill-rule="nonzero" d="M10.19 3.4a.6.6 0 0 1 0 1.2 3.9 3.9 0 0 0-3.9 3.9c0 1.92 1.24 4.26 3.75 6.99l.12.13.08-.1c1.88-2.29 3.03-3.96 3.44-4.98l.05-.13a.6.6 0 0 1 1.13.4c-.45 1.27-1.85 3.28-4.21 6.1a.6.6 0 0 1-.9.03c-3.1-3.2-4.66-6-4.66-8.44a5.1 5.1 0 0 1 5.1-5.1ZM15.97 2l.07.05 1.41 1.41c.17.18.2.45.06.64l-.06.07-6.36 6.37a.5.5 0 0 1-.2.12l-.07.01-1.71.3a.5.5 0 0 1-.59-.5l.01-.08.3-1.7a.5.5 0 0 1 .08-.22l.05-.06 6.37-6.36a.5.5 0 0 1 .64-.06Zm-.29 1.11-5.9 5.9-.14.85.85-.14 5.9-5.9-.7-.71Z"/>
</svg>