<svg width="20" height="20" aria-hidden="true" focusable="false" xmlns="http://www.w3.org/2000/svg">
  <path fill-rule="nonzero" d="m8.47 11.54 2.82 2.82-1.38 1.38-3.15-3.14a4.44 4.44 0 0 1 1.7-1.06ZM4.47 4 14.8 14.34l-1.06 1.06L3.4 5.06 4.47 4Zm7.36 5.95-1.8-1.8H9.9c2 0 3.86.75 5.29 2.07l.22.21-1.06 1.06a6.27 6.27 0 0 0-2.52-1.54Zm-5.75-.8 1.11 1.11c-.55.27-1.06.61-1.52 1.03l-.2.2-1.07-1.06a7.8 7.8 0 0 1 1.68-1.28Zm3.82-4.2c2.9 0 5.6 1.1 7.67 3.04l.24.23-1.06 1.06a9.64 9.64 0 0 0-8.31-2.72L7.17 5.29c.88-.22 1.8-.34 2.73-.34ZM3.73 6.8l1.1 1.09a9.7 9.7 0 0 0-1.54 1.17l-.23.22L2 8.22c.53-.53 1.11-1 1.73-1.42Z"/>
</svg>
