<?xml version="1.0" encoding="UTF-8"?>
<svg width="20px" height="20px" viewBox="0 0 20 20" version="1.1" xmlns="http://www.w3.org/2000/svg" xmlns:xlink="http://www.w3.org/1999/xlink">
    <title>fishing</title>
    <g id="fishing" stroke="none" stroke-width="1" fill="none" fill-rule="evenodd">
        <g id="Group" transform="translate(5.800000, 3.000000)" fill="#163F89" fill-rule="nonzero">
            <path d="M6.6,0 C7.7045695,0 8.6,0.8954305 8.6,2 C8.6,2.89555669 8.01138415,3.65363477 7.199923,3.90846373 L7.201375,10.4998821 L7.198,10.532 L7.19500991,10.6911922 C7.09562279,12.5905334 5.52408881,14.1 3.6,14.1 C1.6117749,14.1 0,12.4882251 0,10.5 L0,6.05147186 L3.31785596,9.36932783 C3.55217054,9.6036424 3.55217054,9.98354139 3.31785596,10.217856 C3.08354139,10.4521705 2.7036424,10.4521705 2.46932783,10.217856 L1.2,8.948 L1.2,10.5 C1.2,11.8254834 2.2745166,12.9 3.6,12.9 C4.87025492,12.9 5.91002124,11.913161 5.99446313,10.6643187 L6.001,10.485 L5.99906616,3.90814599 C5.18812706,3.65300512 4.6,2.89518478 4.6,2 C4.6,0.8954305 5.4954305,0 6.6,0 Z M6.6,1.2 C6.1581722,1.2 5.8,1.5581722 5.8,2 C5.8,2.4418278 6.1581722,2.8 6.6,2.8 C7.0418278,2.8 7.4,2.4418278 7.4,2 C7.4,1.5581722 7.0418278,1.2 6.6,1.2 Z" id="Shape"></path>
        </g>
    </g>
</svg>