<svg xmlns="http://www.w3.org/2000/svg" width="18" height="18"><path fill="#22447E" fill-rule="nonzero" d="M15.785 7.98a1.443 1.443 0 0 1-1.554 2.361l-1.007 1.007a1.444 1.444 0 0 1-1.876 1.876l-1.007 1.007a1.444 1.444 0 1 1-2.682 0l-1.007-1.007a1.444 1.444 0 0 1-1.876-1.876L3.77 10.341a1.444 1.444 0 1 1 0-2.682l1.007-1.007a1.444 1.444 0 0 1 1.876-1.876L7.659 3.77a1.444 1.444 0 1 1 2.682 0l1.007 1.006a1.444 1.444 0 0 1 1.876 1.876l1.006 1.007c.52-.207 1.135-.1 1.555.32ZM3.45 8.784a.303.303 0 1 0-.43.43.303.303 0 0 0 .43-.43Zm5.765 5.765a.303.303 0 1 0-.43.43.303.303 0 0 0 .43-.43Zm-2.883-2.882a.303.303 0 1 0-.429.429.303.303 0 0 0 .43-.43Zm4.209-.32-1.007-1.007a1.449 1.449 0 0 1-1.068 0l-1.007 1.007c.136.343.136.727 0 1.07l1.006 1.006a1.449 1.449 0 0 1 1.07 0l1.006-1.007a1.449 1.449 0 0 1 0-1.069ZM7.659 8.466 6.652 7.459a1.449 1.449 0 0 1-1.07 0L4.577 8.466c.136.342.136.726 0 1.069l1.006 1.006a1.449 1.449 0 0 1 1.069 0l1.007-1.007a1.449 1.449 0 0 1 0-1.068Zm4.438 3.202a.303.303 0 1 0-.43.429.303.303 0 0 0 .43-.43ZM6.332 5.903a.303.303 0 0 0-.433.426l.059.047a.304.304 0 0 0 .374-.473Zm2.883 2.882a.303.303 0 0 0-.433.426l.058.047a.304.304 0 0 0 .37-.04l.048-.058a.304.304 0 0 0-.043-.375Zm4.208-.32L12.417 7.46a1.449 1.449 0 0 1-1.069 0l-1.007 1.007c.136.342.137.726 0 1.068l1.007 1.007a1.449 1.449 0 0 1 1.07 0l1.006-1.006a1.449 1.449 0 0 1 0-1.07Zm-2.882-2.882L9.534 4.577a1.449 1.449 0 0 1-1.07 0L7.46 5.582c.136.343.136.726 0 1.069l1.007 1.007a1.449 1.449 0 0 1 1.068 0l1.007-1.007a1.449 1.449 0 0 1 0-1.069ZM9.215 3.021a.303.303 0 1 0-.43.429.303.303 0 0 0 .43-.43Zm2.882 2.882a.303.303 0 1 0-.004.433l.047-.059a.304.304 0 0 0-.043-.374Zm2.882 2.882a.303.303 0 1 0-.429.43.303.303 0 0 0 .43-.43Z"/></svg>