<svg width="20" height="20" aria-hidden="true" focusable="false" xmlns="http://www.w3.org/2000/svg">
  <g id="Page-1" fill="none" fill-rule="evenodd" stroke="none" stroke-width="1">
    <g id="FAO_logo" fill="#009EDB" fill-rule="nonzero">
      <path id="Shape" d="M10 20a10 10 0 1 1 0-20 10 10 0 0 1 0 20m0-14s.8 1 .8 1.6c0 .7-.6 1-.8 1-.3 0-.8-.3-.8-1s.7-1.5.8-1.5m-7.6 4.5h1V8.9h1.5v-.7H3.3v-1H5v-.7H2.4v4Zm8.4-4.4h1l-1.2-4H9.4l-1.2 4h1l.2-1h1.2l.2 1Zm-.4-1.6h-.8l.3-1.8h.1l.4 1.8Zm4.2 4c0 1.1.6 2 1.7 2 1.2 0 1.7-.9 1.7-2 0-1.2-.5-2.1-1.7-2.1-1.1 0-1.7.9-1.7 2m1 0c0-.7.2-1.4.7-1.4.6 0 .8.7.8 1.4 0 .8-.2 1.4-.8 1.4-.5 0-.7-.6-.7-1.4M9.6 19V17c0-1.1 0-1.5-.6-1.7-1.1-.4-1.5-1.5-1.3-3L4 3.4a8.9 8.9 0 0 0 5.5 15.5M10 13c-1.4-.3-2-1.6-2-2.8L5 2.7l-.7.4 3.8 9c.6 1.3 1.5.9 1.8 2v.3h.2V14c.3-1 1.2-.6 1.8-2l3.8-8.9a9 9 0 0 0-.6-.4l-3.2 7.6c0 1.2-.5 2.5-1.9 2.8Zm0-2.3c-.6-.1-1.4-.7-1.5-1.5v-1L5.8 2.2l-.6.3L8.5 10c.4.8 1 .8 1.3 1.3l.2.6.2-.6c.2-.5 1-.5 1.3-1.3l3.3-7.5-.6-.3-2.7 6.1v1c-.1.8-.9 1.4-1.5 1.5Zm0-1v-.4c.2-.8.8-.7 1.2-1.4L14 2a8.8 8.8 0 0 0-8 0l2.8 6c.4.7 1 .6 1.1 1.4v.4h.1Zm8.9.2c0-2.7-1.2-5-3-6.7l-3.6 9c.2 1.6-.2 2.7-1.3 3.1-.6.2-.7.6-.7 1.6v.1l.1 1.8A8.9 8.9 0 0 0 19 10m-15 2.6a11.4 11.4 0 0 0 .5 1h-.2l-.4-.6-.3.2.3.6-.3.2-.3-.6-.6.3-.2-.3 1.5-.8Zm1 1.5.2.3-1.3 1-.2-.2 1.2-1ZM6 15.3l.2.2-.3 1.8-.3-.2v-.4l-.3-.2-.3-.3-.4.2-.2-.2 1.5-.9Zm-.8.7a4.5 4.5 0 0 0 .5.4l.2-.8-.7.4m1.8 0a6 6 0 0 0 1.4.4v.3l-.6-.2-.5 1.4-.3-.1.5-1.4a5 5 0 0 1-.6-.2l.1-.3Zm5.4.3.2.3v.2c0 .2-.1.4-.4.5H12l.2.7H12l-.5-1.6.4-.1h.6m-.7.3.2.5h.2l.2-.2v-.2l-.1-.1h-.5m1.7-1 1.5 1-.3.2-.3-.2-.4.2-.3.2v.4l-.2.1-.3-1.8.3-.1Zm.2 1.1a4.3 4.3 0 0 0 .4-.3l-.6-.4.2.7m1.5-2.6 1.2 1.1-.2.3-1.4-.4 1 1-.3.1-1.2-1.2.3-.3 1.3.4-1-.8.3-.2Zm.6-.9 1.4.9-.1.3-1.5-.9.2-.3Zm.6-1.4.2.2-.1.2v.3l.4-.1c.1-.2.3-.4.6-.3.4.1.5.4.3.8l-.1.3h-.3V13l.2-.3-.1-.4-.4.2c-.2.2-.3.4-.6.3a.5.5 0 0 1-.3-.3v-.4l.2-.4Z"/>
    </g>
  </g>
</svg>
