<svg width="20" height="20" aria-hidden="true" focusable="false" xmlns="http://www.w3.org/2000/svg">
  <path d="M8 5v1H4v10.3l2.15-2.15a.5.5 0 0 1 .27-.14L6.5 14H16V7h1v7.5a.5.5 0 0 1-.41.5H6.7l-2.85 2.85a.5.5 0 0 1-.84-.26L3 17.5v-12a.5.5 0 0 1 .41-.5H8Zm3.91 5.17c.31 0 .56.09.75.27.19.18.28.41.28.7 0 .28-.1.5-.28.69-.19.18-.44.27-.75.27-.3 0-.55-.09-.74-.27a.92.92 0 0 1-.28-.7c0-.27.1-.5.28-.69.2-.18.44-.27.74-.27Zm0-8.41c.58 0 1.05.43 1.11.99v.15l-.3 5.5a.8.8 0 0 1-1.61 0l-.3-5.47a1.11 1.11 0 0 1 1.04-1.17h.06Z" fill-rule="nonzero"/>
</svg>
