
<svg width="20px" height="20px" viewBox="0 0 20 20" version="1.1" xmlns="http://www.w3.org/2000/svg" xmlns:xlink="http://www.w3.org/1999/xlink">

    <g id="heatmap-high-res" stroke="none" stroke-width="1" fill="none" fill-rule="evenodd">
        <path d="M17,15 L17,17 L15,17 L15,15 L17,15 Z M13,15 L13,17 L11,17 L11,15 L13,15 Z M9,15 L9,17 L7,17 L7,15 L9,15 Z M5,15 L5,17 L3,17 L3,15 L5,15 Z M15,13 L15,15 L13,15 L13,13 L15,13 Z M11,13 L11,15 L9,15 L9,13 L11,13 Z M7,13 L7,15 L5,15 L5,13 L7,13 Z M13,11 L13,13 L11,13 L11,11 L13,11 Z M9,11 L9,13 L7,13 L7,11 L9,11 Z M5,11 L5,13 L3,13 L3,11 L5,11 Z M17,11 L17,13 L15,13 L15,11 L17,11 Z M11,9 L11,11 L9,11 L9,9 L11,9 Z M7,9 L7,11 L5,11 L5,9 L7,9 Z M15,9 L15,11 L13,11 L13,9 L15,9 Z M9,7 L9,9 L7,9 L7,7 L9,7 Z M5,7 L5,9 L3,9 L3,7 L5,7 Z M13,7 L13,9 L11,9 L11,7 L13,7 Z M17,7 L17,9 L15,9 L15,7 L17,7 Z M7,5 L7,7 L5,7 L5,5 L7,5 Z M11,5 L11,7 L9,7 L9,5 L11,5 Z M15,5 L15,7 L13,7 L13,5 L15,5 Z M9,3 L9,5 L7,5 L7,3 L9,3 Z M5,3 L5,5 L3,5 L3,3 L5,3 Z M13,3 L13,5 L11,5 L11,3 L13,3 Z M17,3 L17,5 L15,5 L15,3 L17,3 Z" id="Shape" fill="#000000"></path>
    </g>
</svg>