<svg width="20px" height="20px" viewBox="0 0 20 20" version="1.1" xmlns="http://www.w3.org/2000/svg">
    <path d="M17,14.2 L17,17 L14.2,17 L14.2,14.2 L17,14.2 Z M11.4,14.2 L11.4,17 L8.6,17 L8.6,14.2 L11.4,14.2 Z M5.8,14.2 L5.8,17 L3,17 L3,14.2 L5.8,14.2 Z M14.2,11.4 L14.2,14.2 L11.4,14.2 L11.4,11.4 L14.2,11.4 Z M8.6,11.4 L8.6,14.2 L5.8,14.2 L5.8,11.4 L8.6,11.4 Z M11.4,8.6 L11.4,11.4 L8.6,11.4 L8.6,8.6 L11.4,8.6 Z M5.8,8.6 L5.8,11.4 L3,11.4 L3,8.6 L5.8,8.6 Z M17,8.6 L17,11.4 L14.2,11.4 L14.2,8.6 L17,8.6 Z M8.6,5.8 L8.6,8.6 L5.8,8.6 L5.8,5.8 L8.6,5.8 Z M14.2,5.8 L14.2,8.6 L11.4,8.6 L11.4,5.8 L14.2,5.8 Z M11.4,3 L11.4,5.8 L8.6,5.8 L8.6,3 L11.4,3 Z M5.8,3 L5.8,5.8 L3,5.8 L3,3 L5.8,3 Z M17,3 L17,5.8 L14.2,5.8 L14.2,3 L17,3 Z"/>
</svg>
