<svg width="20" height="20" aria-hidden="true" focusable="false" xmlns="http://www.w3.org/2000/svg">
  <path fill-rule="nonzero" d="m15.52 12.09.75.37a.6.6 0 0 1 0 1.08l-6 3a.6.6 0 0 1-.54 0l-6-3a.6.6 0 0 1 0-1.08l.75-.37a.6.6 0 0 1 .8.81l-.03.05L10 15.33l4.75-2.38-.03-.05a.6.6 0 0 1-.04-.45l.03-.1a.6.6 0 0 1 .8-.26Zm0-3 .75.37a.6.6 0 0 1 0 1.08l-6 3a.6.6 0 0 1-.54 0l-6-3a.6.6 0 0 1 0-1.08l.75-.37a.6.6 0 0 1 .8.81l-.03.05L10 12.33l4.75-2.38-.03-.05a.6.6 0 0 1-.04-.45l.03-.1a.6.6 0 0 1 .8-.26ZM9.73 3.46a.6.6 0 0 1 .54 0l6 3a.6.6 0 0 1 0 1.08l-6 3a.6.6 0 0 1-.54 0l-6-3a.6.6 0 0 1 0-1.08l6-3ZM10 4.67 5.34 7 10 9.33 14.66 7 10 4.67Z"/>
</svg>
