<svg width="20" height="20" aria-hidden="true" focusable="false" xmlns="http://www.w3.org/2000/svg">
  <path fill-rule="nonzero" d="m3.92 4.08 12 12a.6.6 0 0 1-.84.84l-1.87-1.86-2.94 1.48a.6.6 0 0 1-.54 0l-6-3a.6.6 0 0 1 0-1.08l.75-.37a.6.6 0 0 1 .8.81l-.03.05L10 15.33l2.32-1.16-1.1-1.1-.95.47a.6.6 0 0 1-.54 0l-6-3a.6.6 0 0 1 0-1.08l.75-.37a.6.6 0 0 1 .8.81l-.03.05L10 12.33l.32-.16-2.68-2.68-3.9-1.95a.6.6 0 0 1 0-1.08l.58-.3-1.24-1.24a.6.6 0 0 1 .84-.84Zm11.6 8 .75.38a.6.6 0 0 1 0 1.08l-.79.39-.9-.9.17-.08-.03-.05a.6.6 0 0 1-.04-.45l.03-.1a.6.6 0 0 1 .8-.26Zm0-3 .75.38a.6.6 0 0 1 0 1.08l-2.79 1.39-.9-.9 2.17-1.08-.03-.05a.6.6 0 0 1-.04-.45l.03-.1a.6.6 0 0 1 .8-.26Zm-5.25-5.62 6 3a.6.6 0 0 1 0 1.08l-4.79 2.39-.9-.9L14.67 7 10 4.67 7.48 5.93l-.9-.9 3.15-1.57a.6.6 0 0 1 .54 0Z"/>
</svg>
