<svg width="20" height="20" aria-hidden="true" focusable="false" xmlns="http://www.w3.org/2000/svg">
<path fill-rule="nonzero" d="M13.8 14.2c.5 0 .94.28 1.15.7h3.61a.6.6 0 0 1 0 1.2h-3.6a1.3 1.3 0 0 1-2.31 0h-.21a.6.6 0 0 1 0-1.2h.2c.22-.42.66-.7 1.16-.7ZM17 3.4c.33 0 .6.27.6.6v3.38a.6.6 0 0 1-.6.6h-.1a.6.6 0 0 1-.5-.6V4.6H3.6v7.29c1.21-.04 2.14-.22 3.4-.6l.97-.3c.99-.3 1.67-.46 2.49-.54h.1l.09.01a.6.6 0 0 1-.07 1.18c-.65.07-1.2.19-1.96.4l-.88.28c-1.57.5-2.66.72-4.14.77v1.31h6.78a.6.6 0 0 1 0 1.2H3a.6.6 0 0 1-.6-.6V4c0-.33.27-.6.6-.6h14Zm-.2 7.8c.5 0 .94.28 1.15.7h.61a.6.6 0 0 1 0 1.2h-.6a1.3 1.3 0 0 1-2.31 0h-3.21a.6.6 0 0 1 0-1.2h3.2c.22-.42.66-.7 1.16-.7Zm-3-3c.5 0 .94.28 1.15.7h3.61a.6.6 0 0 1 0 1.2h-3.6a1.3 1.3 0 0 1-2.31 0h-.21a.6.6 0 0 1 0-1.2h.2c.22-.42.66-.7 1.16-.7ZM7 5.9a2.1 2.1 0 1 1 0 4.2 2.1 2.1 0 0 1 0-4.2Zm0 1.2a.9.9 0 1 0 0 1.8.9.9 0 0 0 0-1.8Z"/>
</svg>
