<svg width="20" height="20" aria-hidden="true" focusable="false" xmlns="http://www.w3.org/2000/svg">
  <path fill-rule="nonzero" d="M14 3.4c.33 0 .6.27.6.6v2h-1.2V4.6H6.6V6H5.4V4c0-.33.27-.6.6-.6h8Zm1 3A2.6 2.6 0 0 1 17.6 9v5a.6.6 0 0 1-.6.6h-2.4V17a.6.6 0 0 1-.5.6H6a.6.6 0 0 1-.6-.6v-2.4H3a.6.6 0 0 1-.6-.5V9A2.6 2.6 0 0 1 5 6.4h10Zm-1.6 6.2H6.6v3.8h6.8v-3.8Zm1.6-5H5c-.77 0-1.4.63-1.4 1.4v4.4h1.8V12c0-.3.22-.55.5-.6H14c.33 0 .6.27.6.6v1.4h1.8V9a1.4 1.4 0 0 0-1.27-1.4H15Zm-.2 1a.6.6 0 1 1 0 1.2.6.6 0 0 1 0-1.2Z"/>
</svg>
