<svg width="20" height="20" aria-hidden="true" focusable="false" xmlns="http://www.w3.org/2000/svg">
  <g id="Page-1" fill="none" fill-rule="evenodd" stroke="none" stroke-width="1">
    <g id="Group" transform="translate(0 .3)">
      <g id="Shape" fill-rule="nonzero">
        <path id="Path" fill="#71A32B" d="M14.4 3.2 15 3l.6.1h.2c-.1-.3-.5-.3-.6-.5.1 0 0-.1 0-.1h-.3l.3.2c0 .2-.2.1-.3 0-.2-.2-.2 0-.4 0v.4"/>
        <path id="Path" fill="#F9F9FA" d="m3 3.4.3-.3c0-.1.4-.2.2 0v.1l.2-.1S4 3 3.7 3c-.1 0 0-.4-.2-.2-.1-.2-.5 0-.5.1h.6c-.1.2-.4 0-.5.3l.1-.1-.2.3M16.3 3.6l-.5-.4c.2.1.3.4.5.4M3.7 3.2h.5-.5M3.4 3.3v.1h.3-.3"/>
        <path fill="#71A32B" d="m1 5.2.5-.4c.2-.1.2.2.3 0l.1-.1h.5s-.2.9 0 .9l.2-.6c0-.5.4-.6.6-.7l.3-.2h.2l-.1-.2.2-.1v.1l.1-.2.5-.2h-.1.4c-.2 0 .2-.4.3-.3l.5-.2c-.1 0 0 0 0 0-.2 0-.4.3-.2.2l.5-.2c.1 0-.4 0-.1-.3h-.2.2H5c.2-.1 1.4-.1 1.3-.5l-.5.1h.4c0-.2-.4 0-.2-.2V2c.2 0 0-.4-.3-.2h.1c-.1.2-.5 0-.7 0-.3-.3-.2 0-.5 0 0 .3.2.3 0 .3-.3.1-.2.2-.3.3H4s.2 0 0-.2l-.4-.1-.1-.1.7-.4h-.1.5l-.2-.1h.3l-.3.1h.1v.1H5L5 1.4H5l.5-.1H5.8h-.1s.1.1.1 0c.1.1-.1.2 0 .2l-.5.1h.4s.2.2.3 0v-.2c-.2 0 0 0 0 0l.3-.1-.3-.1-.6-.1H5h.2-.7.2V1v.3H5l-.3.2v-.1c.2 0 0 0 0 0s-.2 0 0 0h-.2l.1-.1h-.3v.2h-.6l-.2-.1-.9.1c-.4.6-.9 1-1.2 1.6C.7 4 .3 5.3 0 6.6c0 0 0 .2.2.3 0 .1.1-.1.1 0l.1.3.4.2v.4l-.1.4c.3 0 .2.6.3.8.1 0 0-.5.3-.4V9l.3-.2c-.1 0-.1-.4-.3-.3-.4.2-.3-.6-.2-.8.1-.2.5-.7 0-.7s0-.4 0-.5l.1-.2s.2-.1.2-.3c-.4-.1-.4.5-.9.4-.2 0 .5-1.1.5-1.2m2.4-1.8h.3-.3m.8-.2h-.5.5m-1-.1c.1-.2.3-.1.4-.2h-.4.2H3c.1 0 .5-.3.5 0 .2-.2 0 0 .2 0 .3.2 0 .2 0 .2l-.1.1h-.1c.2-.3-.1-.2-.2-.1l-.3.3.2-.3"/>
        <path id="Path" fill="#F9F9FA" d="M6 3h-.3.2"/>
        <path id="Path" fill="#71A32B" d="M6.3 2.6h-.1l.2-.1c-.2 0-.4.2-.5.3h-.2.5V3H6.5v-.2h-.2"/>
        <path id="Path" fill="#F9F9FA" d="M4.5 1.7h.2-.2M5.7 2.6h.1-.1M4.3.8c-.2 0-.2 0 0 0H4h.2H4h.2M3.2 1.2H4l.2-.2C4 1 4 1.1 4 1h.2c-.2-.1-.3 0-.4 0h-.2V.8h-.1l-.2.2h.2l-.3.1"/>
        <path id="Path" fill="#F9F9FA" d="m3.7 1 .7-.1s-.2 0-.1-.1h-.1l-.5.1-.1.1h.1M3.7.9V1 1"/>
        <path id="Path" fill="#71A32B" d="m6.8 10.3-.4-.1h-.6l-.1-.2c-.4-.2-.2.2-.4.2s-.3-.2-.2-.4c.2-.1-.1-.6-.4-.6L4 9.1c0-.3-.5-.3-.6-.5l-.4.1h-.3c0-.2-.2-.2-.4-.2l.1.1c-.3 0 0 .4-.1.4-.2 0-.1-.3-.1-.4H2c-.2.1-.4.3-.4.5-.2.1 0 .5 0 .6l.1.1-.2.6c0 .3-.1.3.1.4v.3l.1.2.5.6c.1.1.2.5.6.6.2 0 .5.1.7.4l.1.7.2.6c.2.3.2-.3.2 0 0 .2 0 .2.2.2l.4.9v.3c0-.6.5.1.8.3 0-.2-.5 0-.4 0v-.3c.1 0 .1.1.1 0 .1.1-.3 0-.2-.1.2-.1.4 0 .3-.2 0 0-.2-.2 0-.3l.4-.1c.1-.4-.2-.3-.3-.5l.5-.1.2-.6v-.5l.3-.4c.2 0 .4-.3.4-.7 0-.1-.2-.6-.1-.7 0-.2.5-1 0-1"/>
        <path id="Path" fill="#F9F9FA" d="M2.9 6.3s-.2 0 0 0"/>
        <path id="Path" fill="#71A32B" d="M16.9 7.4c-.4.1-.5.2-.5-.1-.1-.3-.6-.5-.6-.7l-.2-.4-.2-.6c0-.3 0-.4-.2-.5l-.3-.7.2.3v-.6H14c-.2 0-.8-.4-.7 0 0 .4-.6 0-.8-.2-.1 0-.4.1-.4-.1v-.5c0 .1 0 .1 0 0l-.3.1h-.4c-.3 0-.4.1-.7.3h-.6c0 .2-.3.4-.4.5l-.1.4-.4.4c-.1 0-.3.2-.3.5l-.2.4V7c-.2 0 0 .3 0 .4 0 .2 0 .3.3.4.1.1.1.4.4.7.2.1.3.3.6.3H10.6l.7-.3c.3 0 .2.3.4.3.6 0 .5.4.3.8l.4.7.1.6.1.7-.2.6.1.9.3.4c.2.2.5-.2.6.3H14.7c0-.1.2 0 .2 0 .2-.2 0 .1.3-.1.2-.2.3-.1.3-.5 0-.1-.3-.4 0-.6l.4-.4c.5-.2.1-.7.3-1l-.2-.4v-.5l.1-.3c0-.5.6-.7.9-1 .2-.5.7-1.2.5-1.6h-.6"/>
        <path fill="#71A32B" d="M8.4 1s.1.1.1 0h-.1.3V.7c.2-.1 0-.1 0-.1L9 .6h-.2c0-.2.4-.2.4-.3h.4-1 .2-.1l.2-.1H7.2l-.7.1h.1l-.3.1c-.1.1.1 0 .1 0l-.1.1h.1c.1 0 .5 0 .4.1l.2.2h-.1.1c0 .3-.2.3-.2.4H7c-.1.2.1.3.2.3l.4-.4h.3l.6-.2h-.2V.8h.3c0 .2-.2.2-.2.2"/>
        <path id="Path" fill="#F9F9FA" d="M2.7 5.3"/>
        <path id="Path" fill="#71A32B" d="M8.7 1.3c.2 0 .4.2.6 0v-.1H9L8.8 1h-.1l.2.1h-.2v.2"/>
        <path id="Path" fill="#F9F9FA" d="M2 7h.2H2"/>
        <path id="Path" fill="#71A32B" d="m2.5 7 .3.2L3 7h.3v-.2C3 7 3 6.8 3 6.7c0-.1-.1 0-.1 0-.2-.2-.2.2-.2.2s-.4 0-.2.2"/>
        <path id="Path" fill="#F9F9FA" d="M5.6 2.8c0 .1-.1.1 0 0-.1.1 0 .2.1.1h-.1"/>
        <path id="Path" fill="#71A32B" d="M2.6 6.6c0-.1.1-.2 0-.2L2.2 6c-.3-.3-.5-.2-.6 0 .1.2.2-.2.3 0 .2 0 .3.2.3.4s.1.4.3.2"/>
        <path id="Path" fill="#F9F9FA" d="M3.4 7.2s.2.1.2 0c0 0-.2-.1-.2 0M2.6 5.7v-.1.1M1.8 6.2s0 .1 0 0M4.9 1H5C5 .8 5 1 5 1M12.3 3c0 .4.2 0 0 0"/>
        <path id="Path" fill="#71A32B" d="M10.3 1.8c.1 0 .3 0 .3-.2 0 0 .2 0 0-.1h-.2l-.2.1v.1c.2 0-.1 0 0 0"/>
        <path id="Path" fill="#F9F9FA" d="M12.3 3v-.3l-.1.1V3M14.4 3.8H14h.3M11.7 3s0 .2 0 0M10.5 1.2c.1 0 .1 0 0 0 .1 0 0 0 0 0"/>
        <path id="Path" fill="#71A32B" d="m10.6 1.2.1.2c0 .1.2 0 .2 0v.1c.2 0 0 .1-.1.1l-.1.2h.2s-.2 0-.3.2l.7-.1v-.2H11c0-.2-.1-.2-.3-.3 0-.1.2-.1 0-.2h-.1V1s-.3.1 0 .1v.1"/>
        <path id="Path" fill="#F9F9FA" d="m12.7 3.4.4.2v-.2h-.4M13.3 1.4c0-.1 0-.1 0 0M11.6.4c-.1 0 0 0 0 0M11.7.5l.1.1h-.1.7-.2l.4-.2H12s-.2-.1 0 0h-.2v.1h-.1M13 1.5c0-.1 0 0 0 0"/>
        <path fill="#71A32B" d="M11 2h-.3c0 .1.5.2.4.4 0 .2 0 .2-.2.2l-.5-.1v.7l.3.1c0 .2.4 0 .4 0l.3-.1c-.3-.1.3-.4.3-.4 0-.2.4 0 .5 0 .2-.2.2-.2.4.1-.2 0 .7.5.5.5 0 .1.1 0 .1 0l.1-.2c0-.1-.2 0-.3-.2-.2 0-.5-.3-.5-.4 0-.2.6.2.6.2l.4.4.3.3s0 .2.2.2v-.2h.2l-.3-.3.2.1s0-.1.2 0c0 0 0-.1.1 0h.1l-.3.1c0 .2.2.1 0 .2l.2.2h-.1 1v.6l.1.4c0 .4.6.6.7 1l.3.4.4.6c.3.5.5.1 1 0a7 7 0 0 0-.4-1.3v-.3l-.2.1c0-.2-.2-.3-.3-.4-.1-.4.6 0 .8.1-.2-.6-1.8-2.4-2.9-3.3L13.1.5h-.4l-.6.3s-.5 0-.3.2v.2h.5l.1.3.4-.1c-.2-.1 0-.2 0-.2V1c-.2-.1.3 0 .3-.1s.2-.2.3 0h-.3V1c0 .2.7.1.7.2h-.5l.1.2c0-.1-.4 0-.3.2h-1v-.1c.2 0 0-.1 0-.1-.2 0-.2 0 0 .2 0 .2-.3.1-.3.1-.1 0-.1.2-.3.2-.1 0-.2.2-.4 0m5.3 1.7c-.3 0-.4-.4-.6-.4.2 0 .3.4.6.4m-2-1 .3.1c.1.1.3.2.4 0h-.2l.3-.1s.1.1 0 .1c.1.2.5.2.6.5h-.2l-.6-.1h-.5v-.3l-.1-.2"/>
        <path id="Path" fill="#F9F9FA" d="M12.4 1.5c0 .1 0 0 0 0s-.1 0 0 0M15.2 4h-.1.1M4.8.8 5 .7h-.4.2M4.5.9c0-.1 0-.1 0 0 0-.1 0 0 0 0M4.7 1l.2-.1h-.2M5.1 1h.2L6 .8h-.6.1c0-.1-.4-.1-.4 0h.1M4.4 1.3c0-.1-.3 0-.2 0h.2M4.3 1h.3c.1 0 0 0 0 0l-.2.1h-.1M4.5 1h.1s-.2-.1 0 0"/>
        <path id="Path" fill="#F9F9FA" d="M5.1.8c.1-.1-.1-.1 0 0-.2 0 0 0 0 0"/>
        <path fill="#71A32B" d="M5.3.7h.3-.1c.2 0 .6.2.7 0H6V.6h.3c.1-.2.4-.2.6-.2h-.1.2c.1-.1-.3 0-.1 0H5.7 6l.1.1-.2.1c.1 0 .1 0 0 0h-.4"/>
        <path id="Path" fill="#F9F9FA" d="M5.5.8h-.1M5.7 1h.4-.4"/>
      </g>
      <path id="Path" stroke="#71A32B" stroke-linejoin="round" stroke-width=".5" d="M17.7 13.5c-1.3-.2-3.5.3-4 .2l-1.3-.5-.7-.6c-.2-.1-.6-.1-.8-.3-1-.4-1.4.3-1.3.4.1.3.3.5.6.7l.6.4c.2.3.4.6.8.6v.1l.1.1.6.7a4 4 0 0 1-1.3 1.1c-1.2.3-2.2.3-3.3 0h-.8c-.4-.2-.6 0-.9-.2-.3-.4-.8-.5-1-.6-.6-.5-.4-.6-.8-1.2-.5-.6-1-.6-1.3-.5-.4.4-.2.5 0 1l.1.1.4.6c0 .2.3.4.4.6l.2.1-1-.7-.7-1c-.5-.5-1.2-.7-1.3-.4-.2.2 0 .6.1 1 0 .1.2 0 .2 0 0 .2.4.3.4.4 0 .4.2.7.5 1 .6.8 1.4 1.7 2.2 2.3"/>
      <path id="Path" fill="#71A32B" fill-rule="nonzero" d="M21.8 17.5V17l-2.7.4c-.8-.3-1.8-.3-2.7-.2-.7.2-1.5.3-2.2.6-1.1.8-2.4 1.4-3.6 2 0 0 5.3-2 6.6-2 1.5-.2 4.6-.2 4.6-.2M5.5 17.6l2 1s-2.3-.7-2.8-1.2c-.6-.6-1-1.3-1.5-2"/>
      <path id="Path" fill="#71A32B" fill-rule="nonzero" d="M2.7 14.4c.5.3.6 1.3 1 1.7M1 14.2c.1.7.6 1.3 1 1.8.4.3.6 1.2 1 1.5L1 15c-.1-.2-.1-.6 0-.8"/>
      <path id="Path" fill="#71A32B" fill-rule="nonzero" d="m2.3 16.7 1 1c.5.3.7 1 1.1 1l2.3.7s-1.8 0-2.5-.4l-1.5-1.6M10.1 13.4l.6.4c.2.3.4.6.8.6v.1l.2.1.5.7-1 1c.4-.1.8-.4 1.2-.7.1.1.1-.6.1-.6 0-.4-1-.7-1.4-1l-1-.6"/>
    </g>
  </g>
</svg>
