<svg width="20" height="20" aria-hidden="true" focusable="false" xmlns="http://www.w3.org/2000/svg"><path d="M7.718 5.455a.55.55 0 01.71-.058l.068.058 3.807 3.808a.55.55 0 01.058.71l-.058.068-.848.845a3.63 3.63 0 014.632-.071l.15.126.131.124a.55.55 0 01.07.72l-.058.07-4.526 4.525a.55.55 0 01-.778 0 3.627 3.627 0 01-.191-4.923l-.844.846a.55.55 0 01-.71.058l-.068-.058-3.808-3.807a.55.55 0 01-.058-.71l.058-.068 2.263-2.263zm4.31 6.4l-.174.173a2.528 2.528 0 00-.477 2.91l.08.148.051.084 3.662-3.662-.073-.045a2.53 2.53 0 00-2.806.162l-.141.115-.122.114zM8.106 6.621L6.62 8.106l3.03 3.03 1.485-1.484-3.03-3.03zm-2.469 3.54a.55.55 0 01.71-.058l.068.058 1.632 1.632a.55.55 0 01.058.71l-.058.068-3.395 3.394a.55.55 0 01-.71.058l-.067-.058-1.632-1.632a.55.55 0 01-.058-.71l.058-.067 3.394-3.395zm7.92-7.92a.55.55 0 01.71-.057l.067.058 1.632 1.632a.55.55 0 01.058.71l-.058.067-3.394 3.395a.55.55 0 01-.71.058l-.068-.058-1.632-1.632a.55.55 0 01-.058-.71l.058-.068 3.395-3.394zM6.025 11.33L3.41 13.945l.854.854 2.617-2.616-.855-.854zm7.92-7.92l-2.616 2.616.854.855 2.616-2.617-.854-.854z" fill-rule="nonzero"/></svg>
