<svg width="20" height="20" aria-hidden="true" focusable="false" xmlns="http://www.w3.org/2000/svg"><path d="M11.18 2.8h.06l.14.01c.3.07.52.29.63.61l.03.13.2 1.45.24.12.12.07.12.07.23.15 1.44-.57.11-.03c.34-.06.64.05.84.31l.07.1 1.36 2.36.06.11c.13.34.06.7-.19.92l-.09.07-1.17.91V10.41l1.2.92.09.09c.25.26.28.6.14.93l-.06.11-1.36 2.35-.08.1c-.21.26-.52.34-.86.26l-.13-.03-1.38-.55-.2.13-.28.17-.13.07-.08.04-.23 1.53-.04.14c-.12.3-.37.49-.68.53H8.44l-.14-.01c-.3-.07-.52-.29-.63-.61l-.03-.13-.2-1.45-.24-.12-.12-.07-.12-.07-.23-.15-1.44.57-.11.03a.83.83 0 01-.84-.31l-.07-.1-1.36-2.36-.06-.11a.82.82 0 01.19-.92l.09-.07 1.17-.92V9.6l-1.2-.92-.09-.09c-.25-.26-.28-.6-.14-.93l.06-.11 1.36-2.35.08-.1c.21-.26.52-.34.86-.26l.13.03 1.38.55.2-.13.28-.17.13-.07.08-.04.23-1.53.04-.14c.12-.3.37-.49.68-.53H11.18zm-.2 1.1H8.7l-.27 1.87-.3.12c-.17.07-.38.18-.61.33l-.18.11-.46.32-1.76-.7-1.16 2 1.5 1.16-.04.31c-.02.1-.03.24-.03.43V10l.01.42.02.17.03.31-1.49 1.16 1.16 1.99 1.78-.7.24.18c.2.15.39.28.59.39l.2.1.5.23.27 1.86h2.28l.27-1.88.3-.12c.17-.07.38-.18.61-.33l.18-.11.46-.32 1.76.7 1.16-2-1.5-1.16.04-.31c.02-.1.03-.24.03-.43V10l-.01-.42-.02-.17-.03-.31 1.49-1.16-1.16-1.99-1.78.7-.24-.18c-.2-.15-.39-.28-.59-.39l-.2-.1-.5-.23-.27-1.86zM9.84 7.1c.8 0 1.48.3 2.05.85.56.57.84 1.26.84 2.05 0 .8-.28 1.48-.84 2.05a2.8 2.8 0 01-2.05.84 2.8 2.8 0 01-2.05-.84A2.8 2.8 0 016.95 10c0-.8.28-1.48.84-2.05a2.8 2.8 0 012.05-.84zm0 1.1c-.5 0-.91.18-1.27.53A1.7 1.7 0 008.05 10c0 .5.17.91.52 1.27.36.35.77.52 1.27.52s.91-.17 1.27-.52c.35-.36.52-.77.52-1.27s-.17-.91-.52-1.27a1.7 1.7 0 00-1.27-.52z" fill-rule="nonzero"/></svg>