<svg width="21" height="21" xmlns="http://www.w3.org/2000/svg"><path d="M9.1 3.6a.5.5 0 0 1 .45-.08l.09.03 3.23 1.62h3l1.18-1.48.78.62-1.34 1.67a.5.5 0 0 1-.3.18l-.09.01h-3.35a.5.5 0 0 1-.15-.02l-.08-.03-3.05-1.53-3.05 2.33 4.03 2.14a.5.5 0 0 1 .13.09l.05.06 2.52 3.5a.5.5 0 0 1-.05.65l-.08.06-2.53 1.66a.5.5 0 0 1-.34.08l-.09-.02-3.53-1.17L6 16.82a.5.5 0 0 1-.3.37l-.07.03-2.5.62-.24-.97 2.19-.55.59-3.1a.5.5 0 0 1 .56-.4l.08.03 3.85 1.26 1.89-1.24-2.16-2.99-4.61-2.44a.5.5 0 0 1-.14-.78l.07-.06 3.9-3Z" fill-rule="nonzero"/></svg>