
<svg width="20px" height="17px" viewBox="0 0 20 17" version="1.1" xmlns="http://www.w3.org/2000/svg" xmlns:xlink="http://www.w3.org/1999/xlink">
    <g id="Page-1" stroke="none" stroke-width="1" fill="none" fill-rule="evenodd">
        <path d="M12.029459,14.8694039 C13.6456966,14.8694039 14.5151458,15.4765238 15.6083996,15.5198895 L15.7308426,15.5223285 C15.7308426,15.5223285 16.1798148,15.5854493 16.616761,15.3185008 L16.6736479,15.2817773 C16.6736479,15.2817773 16.1149485,16.0721597 14.0896631,16.0721597 C12.6230771,16.0721597 11.540597,15.2130484 10.5279543,15.2130484 C10.3821908,15.2166346 10.2398499,15.2336942 10.1013285,15.2619226 C11.7040493,15.8339105 12.4484836,16.8281777 12.4484836,16.8281777 L12.1342151,17 L11.9487399,16.7872258 C11.538928,16.323867 10.8220025,15.5843945 9.88790748,15.3148732 C8.80406279,15.6313965 7.98216788,16.5953159 7.62970114,17 L7.31543272,16.8281777 L7.35730463,16.7762388 C7.53470676,16.5645399 8.27967349,15.7546523 9.66556001,15.2609929 C9.52669934,15.2332392 9.38336655,15.2165866 9.23596195,15.2130484 C8.22331926,15.2130484 7.14083915,16.0721597 5.6742532,16.0721597 C3.64896783,16.0721597 3.09026842,15.2817773 3.09026842,15.2817773 C3.4865681,15.5517837 3.90948131,15.5336881 4.01049752,15.5247385 L4.03307367,15.5223285 C5.18539121,15.5223285 6.05835904,14.8694039 7.73445728,14.8694039 C8.56502121,14.8694039 9.27909419,14.997533 9.88193393,15.1882509 C10.4845442,14.9975829 11.1987335,14.8694039 12.029459,14.8694039 Z M16.1498672,11.776603 L16.0101923,12.3264343 L16.0079089,12.3724723 C15.990793,12.5822585 15.8734274,13.2227738 15.5213303,13.6322835 L15.4037525,13.7733657 C15.1750076,14.0517044 15.0960995,14.1655702 14.7924363,14.3730154 L14.6814305,14.445862 C14.6322999,14.4783364 14.554082,14.5360687 14.5785251,14.5601238 C14.5785251,14.5944882 14.8578748,14.5601238 14.8578748,14.5601238 L14.9898125,14.5141375 C15.0763967,14.4825783 15.1854286,14.4399734 15.2514357,14.403505 L15.2768993,14.3883015 C15.3735973,14.3248594 15.7380743,14.1442935 15.9308981,14.0628324 L16.2024997,13.9535861 C16.3004859,13.9160658 16.4196728,13.8748635 16.594979,13.8256838 L16.9306241,13.7341507 C17.4856079,13.5758557 18.538983,13.2132589 18.9782829,12.4638921 L18.9315482,12.5932135 C18.8680133,12.7620347 18.7485546,13.0553224 18.6290958,13.2199101 L18.4562738,13.4240333 C18.0538437,13.8887418 17.0945354,14.8769708 15.8046792,14.9038006 L15.6959239,14.9037683 C15.6959239,14.9037683 15.0673871,14.8694039 14.7531186,14.8006749 L14.628918,14.7753274 C14.401081,14.7326474 14.294187,14.7368552 14.2642567,14.7663105 C14.1944192,14.8006749 13.9150695,14.8350394 13.8452321,14.8006749 L13.9900801,14.6683082 C14.0469847,14.6173979 14.1245818,14.548669 14.2293379,14.4570304 C14.5086876,14.2164792 14.5785251,13.8384702 14.9277122,13.288639 C15.2419806,12.7388077 15.5213303,12.3607987 16.1498672,11.776603 Z M3.75372397,11.5360518 L3.99690817,11.8133176 C4.25901164,12.1180966 4.67030396,12.6145816 4.9068322,12.9923515 L4.94096022,13.0480878 C5.32506606,13.666648 5.35998478,14.3195726 6.05835904,14.6975816 C5.98852161,14.8350394 5.35998478,14.6632171 4.94096022,14.8006749 L4.86492679,14.8196086 C4.23606135,14.9598038 1.92511312,15.1337069 0.890389481,12.6700788 L0.976236985,12.7562949 C1.24237011,13.0168091 2.07563038,13.7815234 2.74108128,13.8384702 C3.54421169,13.9071991 4.41717952,14.1133859 5.18539121,14.5257593 L5.35998478,14.5601238 L5.35143325,14.5456967 C5.34003123,14.5280636 5.31722717,14.4976065 5.28302108,14.4735614 L5.2318058,14.4438491 C5.06630115,14.3586038 4.36092159,14.0809306 3.99815496,12.9449944 C3.82356139,12.3264343 3.85848011,11.8796964 3.75372397,11.5360518 Z M2.63632514,9.6116424 L2.68506777,9.69927071 C2.82626361,9.9633727 3.22378114,10.7840767 3.19502456,11.6047807 L3.17366729,12.1425762 C3.15952456,12.5472902 3.18418771,12.5598756 3.36961812,13.1855456 C3.40453683,13.1855456 3.54421169,13.3917323 3.50929297,13.4260968 C3.46739052,13.4673341 3.40034659,13.4467155 3.33833095,13.4161998 L3.22994327,13.3573679 C3.16010584,13.3230034 2.74108128,13.1511812 2.04270702,12.91063 C1.35919178,12.6751969 0.107050036,11.6168215 0.152287668,9.83215573 L0.157096503,9.71473576 C0.157096503,9.71473576 0.33169007,10.4020248 0.890389481,10.8831272 C1.38335955,11.3035864 1.59794652,11.3892003 1.88349389,11.7129662 L2.46414979,12.3980291 C2.73950351,12.7184996 2.9999614,13.0137233 3.02043099,13.0137233 C3.0553497,13.0137233 3.0553497,12.9449944 2.98551228,12.91063 C2.92003969,12.8784133 2.76249628,12.4535559 2.62797057,12.2589974 L2.60140643,12.2233409 C2.46173158,12.0515186 2.11254444,10.9518561 2.63632514,9.6116424 Z M19.9210882,9.40545568 L19.9115384,9.45600199 C19.8582383,9.77385601 19.648235,11.2867097 18.8036894,12.0858831 C17.9250895,12.9172812 17.5043208,12.8797342 17.0983209,13.0944615 L16.5985515,13.3818474 C16.5408407,13.4139122 16.5137569,13.4260968 16.4990543,13.4260968 C16.4641356,13.3917323 16.533973,13.2542745 16.533973,13.2542745 C16.7094619,12.834852 16.6329668,12.9113982 16.627544,12.5046927 L16.6275876,12.409788 L16.6305132,12.2979487 C16.6358824,12.1567584 16.648578,11.9766217 16.6736479,11.7422385 C16.8133227,10.4363893 17.4069408,9.50854904 17.4069408,9.50854904 C17.4069408,9.71473576 17.5815344,10.7113049 17.5815344,10.9862206 C17.5815344,11.2267717 17.5466157,11.5016874 17.4418596,11.9140608 C17.3371034,12.3264343 17.0577537,12.6700788 17.022835,12.7388077 C16.9879163,12.8075366 16.9879163,12.8762655 16.9879163,12.8762655 C17.0577537,12.91063 17.4069408,12.5669854 17.5466157,12.3607987 C17.6513718,12.154612 18.24499,11.4673229 18.3497461,11.3642296 L18.3764508,11.3425899 C18.4402795,11.2859092 18.5823151,11.1396804 18.7435052,10.9698414 L19.4671449,10.1958381 C19.5020636,10.1614737 19.6417385,9.9896514 19.7115759,9.74910022 C19.7814133,9.54291349 19.9210882,9.40545568 19.9210882,9.40545568 Z M15.1372245,7.30922399 C15.2419806,7.68723298 15.2768993,8.09960643 15.2768993,8.51197988 C15.2768993,10.8143983 13.7055572,12.7731722 11.5755157,13.3917323 L11.5213381,13.3234081 C11.3104548,13.0443764 10.5530958,11.9154354 10.4930356,10.0240159 C10.4581169,7.79032634 11.7501093,7.72159744 11.7501093,7.72159744 L15.1372245,7.30922399 Z M5.01079764,7.30922399 L8.44976634,7.72828585 C8.69044528,7.76972197 9.68569089,8.05990956 9.6549865,10.0240159 C9.58514908,12.2233409 8.57250639,13.3917323 8.57250639,13.3917323 C6.44246489,12.7731722 4.87112279,10.8143983 4.87112279,8.51197988 C4.87112279,8.09960643 4.9060415,7.68723298 5.01079764,7.30922399 Z M0.33169007,6.89685054 C0.33169007,7.27485953 0.680877202,8.09960643 0.960226908,8.47761542 C1.23957661,8.82125996 1.51892632,9.40545568 1.55384503,10.0240159 L1.57033725,10.067297 C1.58377536,10.0997579 1.60372891,10.1418368 1.62368246,10.1614737 C1.64308174,10.180565 1.65170365,10.1466248 1.65553561,10.1126846 L1.65860117,10.0583803 C1.65860117,10.0583803 1.62368246,9.50854904 1.62368246,9.09617559 C1.62368246,8.74179216 1.77713384,8.14578366 2.11280872,7.7611971 L2.21499336,7.65253252 C2.27053222,7.59070705 2.38491041,7.45126373 2.46173158,7.27485953 L2.46983272,7.25973918 C2.4910633,7.22125099 2.55252023,7.11678305 2.63632514,7.03430836 L2.64092349,7.18402236 C2.64494705,7.51795623 2.62080572,8.3554307 2.32205672,9.13054005 L2.05797759,9.81081597 C1.88949226,10.2561512 1.84317151,10.4560261 1.86811345,10.8487627 C1.90303217,10.8487627 1.90303217,10.9862206 1.90303217,10.9862206 C1.86811345,11.020585 1.7284386,10.8143983 1.58876375,10.6082116 C1.54481012,10.5216997 1.37790929,10.3262916 1.19123374,10.1159072 L0.797388293,9.67507533 C0.702871497,9.56796812 0.626786033,9.47866858 0.589611162,9.42581935 L0.448372791,9.21683711 C0.187377575,8.81481663 -0.305576447,7.86549859 0.261852643,6.553206 L0.26652612,6.55239436 C0.282165468,6.55263485 0.33169007,6.57852718 0.33169007,6.89685054 Z M19.9560069,6.72502827 L19.9710414,6.81396221 C20.011087,7.09292339 20.0854575,7.98367835 19.5828436,8.84815995 L19.5369824,8.92435332 C18.9084455,9.9896514 18.8386081,9.74910022 18.5592584,10.2302026 L18.4388212,10.4499123 C18.2682691,10.7561696 18.2391702,10.7800338 18.2100712,10.7800338 L18.2044045,10.7674344 C18.1892932,10.7311852 18.1529315,10.6238318 18.2100712,10.5394827 C18.24499,10.4707538 18.2799087,10.0240159 18.1053151,9.64600686 L18.0576656,9.53915488 C17.8696138,9.10405078 17.5495256,8.21415461 17.5815344,7.58413962 C17.6151101,6.92328474 17.6809701,6.80255163 17.6859866,6.79424207 L17.7731264,7.05525918 C17.8213832,7.19486333 17.8791567,7.3524305 17.9173667,7.42405438 L17.951791,7.48032062 C18.0747976,7.68510819 18.5568502,8.58426373 18.5243397,9.09617559 L18.5003404,9.42740796 C18.476752,9.71808649 18.4628162,9.81782913 18.489421,9.81782913 C18.5199748,9.81782913 18.5772633,9.76520856 18.5911081,9.70601041 L18.5941771,9.68037131 C18.5941771,9.6116424 18.6989332,9.23363341 18.8735268,8.78689551 C19.0481204,8.34015761 19.7814133,7.3779529 19.9560069,6.72502827 Z M1.65860117,3.08239615 L1.64308174,3.16257988 C1.6198026,3.26949151 1.5654846,3.48331478 1.44908889,3.80404969 C1.27449533,4.3195165 1.37925147,4.7662544 1.37925147,4.86934776 C1.39808018,4.90640746 1.4169089,5.09334098 1.4302631,5.30084541 L1.44091537,5.49533619 L1.44769584,5.68865985 C1.44860559,5.72822129 1.44908889,5.764845 1.44908889,5.79718802 L1.44635965,5.89088763 C1.43402118,6.15391245 1.38267724,6.69660923 1.35083604,6.86641006 L1.33996791,6.91295888 C1.33342066,6.94195389 1.3268734,6.9999439 1.37925147,6.9999439 C1.42913534,6.9999439 1.44338788,6.96487813 1.44746003,6.94484055 L1.45461652,6.87904684 C1.47492161,6.72476528 1.56506891,6.25497163 1.93795088,5.83155247 C2.39189415,5.31608566 3.16010584,4.97244112 3.29978069,4.73188994 L3.29202451,4.78794921 C3.25845677,4.98891166 3.09026842,5.70466833 2.32205672,6.51884155 L2.18870185,6.65378745 C1.55145875,7.28968654 1.69297015,7.01207546 1.52141441,7.5401403 L1.48400761,7.65286853 C1.48400761,7.65286853 1.37925147,7.92778416 1.37925147,7.96214861 C1.30941404,8.03087752 1.27449533,8.03087752 1.27449533,8.03087752 C1.23957661,8.03087752 1.2046579,7.89341971 1.2046579,7.79032634 C1.1720671,7.69410587 1.07864014,7.14885654 1.00954765,6.99276555 L0.995145621,6.96557945 C0.925308195,6.82812163 0.645958489,6.24392592 0.611039776,5.52227238 C0.576121062,4.80061885 0.925308195,3.83841414 1.65860117,3.08239615 Z M19.1528765,4.04460086 L19.1850481,4.09853014 C19.2766954,4.26091283 19.5307469,4.77607281 19.5020636,5.45354348 C19.468488,6.24656934 19.1443534,6.88073585 19.0884271,7.0199944 L19.0281736,7.19829422 C18.9753903,7.3586356 18.9084455,7.57092252 18.9084455,7.61850407 C18.9084455,7.68723298 18.8036894,7.79032634 18.8036894,7.79032634 C18.7687707,7.79032634 18.7687707,7.34358844 18.6640145,7.20613063 C18.5592584,7.06867281 17.5466157,5.90028138 17.3371034,4.7662544 L17.6644664,5.0841256 C17.8192197,5.23251756 17.984795,5.38800961 18.0529731,5.44087304 L18.0703964,5.45354348 C18.1751525,5.52227238 18.5941771,5.93464583 18.7338519,6.27829037 C18.8735268,6.62193491 18.8386081,6.931215 18.8735268,6.96557945 C18.8985278,6.96557945 18.9056286,6.7541877 18.9076455,6.63410719 L18.9107794,6.3473901 C18.9156913,6.0868178 18.9309405,5.64106488 18.9782829,5.38481457 C19.0481204,5.00680557 19.2227139,4.3882454 19.1528765,4.04460086 Z M10.0740111,3.39167624 L10.1944112,3.39300428 C12.5155624,3.44426442 14.4495034,4.97418847 15.0673871,7.06867281 L10.5279543,6.553206 C10.4581169,6.51884155 10.2835233,6.51884155 10.2835233,6.45011264 C10.2835233,6.38138373 10.3184421,6.38138373 10.3533608,6.34701928 C10.6327105,6.20956146 10.8771415,5.96901029 10.8771415,5.62536575 C10.8771415,5.17862784 10.4930356,4.83498331 10.0740111,4.83498331 C9.6549865,4.83498331 9.30579937,5.17862784 9.27088066,5.62536575 C9.27088066,5.93464583 9.51531165,6.20956146 9.79466136,6.34701928 C9.82958007,6.38138373 9.86449878,6.38138373 9.86449878,6.45011264 C9.86449878,6.51884155 9.68990522,6.553206 9.62006779,6.553206 L5.08063507,7.06867281 C5.70917191,4.93807667 7.73445728,3.39167624 10.0740111,3.39167624 Z M17.6164531,1.87964027 L17.6548395,1.90505325 C17.8636001,2.05229385 18.8478747,2.86653655 18.7084454,5.04868325 L18.697842,5.19312535 C18.6945684,5.21728786 18.6814739,5.25594787 18.6290958,5.17862784 C18.5592584,5.04117003 18.2799087,4.69752549 18.1402338,4.62879658 L18.0807608,4.59632154 C17.8023741,4.43583839 16.8051066,3.77878171 16.3593794,2.80748052 L16.3674806,2.80473137 C16.3863522,2.79984398 16.4370076,2.79495659 16.5068903,2.85185545 L16.533973,2.87620943 C16.6387292,2.97930279 16.9879163,3.15112506 17.0577537,3.18548952 L17.0921455,3.19967841 C17.2120858,3.24530912 17.5466157,3.35731179 17.8259654,3.63222742 C18.0953383,3.89732463 18.2107839,4.11192714 18.2822502,4.29767553 L18.3148274,4.3882454 C18.3148274,4.3882454 18.3846648,4.45697431 18.3497461,4.25078759 C18.2868924,4.09614755 18.280607,3.96934271 18.1781555,3.77016634 L18.1402338,3.70095632 C18.000559,3.46040515 17.8608841,3.0480317 17.8259654,2.73875161 C17.8259654,2.46383598 17.756128,2.05146254 17.6164531,1.87964027 Z M3.96323625,0.986164464 L3.75372397,1.19235119 L3.72814489,1.23433211 C3.62241806,1.41841817 3.32517612,2.02334616 3.22994327,2.42947153 C3.12518713,2.91057388 2.67124386,3.70095632 2.49665029,3.87277859 C2.32205672,4.04460086 2.39189415,4.07896532 2.39189415,4.07896532 L2.43021373,4.05558429 C2.46086939,4.03484306 2.50828986,3.99878159 2.56648772,3.9415075 C2.63632514,3.80404969 3.09026842,3.32294733 3.5791304,3.21985397 C3.7013459,3.19408063 3.84102075,3.15971618 3.98287802,3.12213005 L4.12489696,3.08366891 C4.50253637,2.97930279 4.85948322,2.86475461 4.9060415,2.84184498 L4.75628616,2.9890555 C4.49496558,3.23954437 3.93134383,3.75194346 3.38573334,4.06553468 L3.29978069,4.11332977 C2.531569,4.56006767 2.42681286,4.42260986 1.97286959,5.00680557 L1.90917786,5.0793833 C1.85554272,5.13876508 1.78430854,5.2129923 1.76335731,5.2129923 L1.76128572,5.20166612 C1.75762846,5.16829166 1.76117489,5.05835226 1.90303217,4.83498331 C2.04270702,4.59443213 1.90303217,4.11332977 2.07762573,3.46040515 L2.11076048,3.34037787 C2.30067052,2.67561139 2.71437874,1.63302477 3.96323625,0.986164464 Z M15.9054362,0.60815547 L15.9934655,0.642087386 C16.2012753,0.725686676 16.7172963,0.954663714 16.8831601,1.22671564 C17.2505657,1.81838189 17.170695,2.09563613 17.2852922,2.32914608 L17.3021847,2.36074262 C17.4418596,2.6012938 17.4069408,2.77311607 17.4069408,2.77311607 L17.3802413,2.73771804 C17.3033095,2.64349208 17.0511294,2.3821892 16.5086945,2.21250914 L16.4292169,2.18892035 C15.6959239,1.98273363 15.0324683,1.39853791 15.0324683,1.39853791 C15.1110354,1.43719792 15.3221845,1.4649848 15.5478348,1.49413083 L15.6991208,1.5138971 L15.8824259,1.54039825 C15.9409346,1.54972137 15.9960066,1.55962129 16.045111,1.57036018 C16.3244607,1.63145254 16.7141708,1.90976219 16.8218488,1.99498981 L16.8799509,2.04359029 C16.9245453,2.07691769 16.9879163,2.1125549 16.9879163,2.08582699 C16.9879163,2.05146254 16.9529976,1.98273363 16.9180789,1.94836917 C16.8133227,1.81091136 16.533973,1.53599573 16.4990543,1.46726682 C16.4292169,1.39853791 16.3942982,1.2610801 16.2546233,1.08925783 L16.1995172,1.01925367 C16.065844,0.844948036 15.9054362,0.60815547 15.9054362,0.60815547 Z M6.54722103,0.0583242073 L6.41442615,0.151240431 C6.27463758,0.250955402 6.06862925,0.403990185 6.02344033,0.470697655 L5.93128175,0.596936348 C5.77771605,0.801190366 5.48802006,1.16944155 5.32506606,1.329809 C5.14348875,1.50850416 4.72586094,1.81625694 4.50406762,1.9622575 L4.41717952,2.01709808 C4.41717952,2.01709808 4.31242338,2.08582699 4.34734209,2.12019144 C4.36916629,2.14166923 4.40463061,2.12287617 4.42815982,2.10576106 L4.45209823,2.08582699 C4.45209823,2.08582699 4.97587893,1.707818 5.56949706,1.67345354 L5.73311879,1.66600278 C6.30338411,1.64506552 6.83567996,1.67644176 6.93132687,1.707818 L6.86590218,1.74690447 C6.68236938,1.8496244 6.10103747,2.13260083 4.97587893,2.32637817 L4.62871279,2.388888 C3.65649,2.56817613 3.83852656,2.58002057 3.64896783,2.70438716 C3.71880525,2.70438716 3.64896783,2.73875161 3.61404911,2.70438716 L3.61469576,2.69865975 C3.61792897,2.67956839 3.63732826,2.61274862 3.75372397,2.49820044 C3.88408716,2.36990648 4.01445036,2.03206571 4.22998418,1.68025516 L4.37143553,1.45892319 C4.65729956,1.02222593 5.24358907,0.241601295 6.54722103,0.0583242073 Z M12.0643777,1.43290236 C12.518321,1.707818 12.8675081,2.05146254 12.9024268,2.29201371 L12.8498961,2.25033554 C12.7765973,2.19443069 12.6393912,2.09794973 12.5217696,2.06131852 L12.4834023,2.05146254 C12.3088087,2.01709808 11.8548654,1.74218245 11.7501093,1.707818 C11.6802719,1.63908909 11.1215725,1.2610801 11.0168163,1.19235119 L11.1092565,1.19116355 C11.2937077,1.19367078 11.7193808,1.22396648 12.0643777,1.43290236 Z M11.4707596,0.745613286 L10.9818976,0.745613286 C10.9120602,0.745613286 10.1438485,0.883071102 9.96925492,0.883071102 C9.91937105,0.883071102 9.85523464,0.877460579 9.78824772,0.870247049 L9.56025993,0.844817873 C9.48276836,0.837485602 9.42385788,0.835615427 9.41055551,0.848706648 C9.3756368,0.917435556 9.72482393,0.986164464 9.79466136,0.986164464 C9.86449878,1.02052892 10.1089298,1.02052892 10.4231982,1.329809 C10.7374666,1.63908909 10.9818976,1.81091136 11.0168163,1.84527581 L10.7268245,1.77793688 C10.4285058,1.70572864 9.98601591,1.58960427 9.82958007,1.50163127 C9.58514908,1.36417346 9.16612452,0.95180001 9.09628709,0.95180001 C9.06136838,0.883071102 8.78201867,0.814342194 8.78201867,0.814342194 L8.79193548,0.807371193 C8.80657458,0.798541258 8.84010284,0.782275589 8.90952051,0.764150986 L8.99153095,0.745613286 C9.15585431,0.713270271 9.2273833,0.620046285 9.61368534,0.523241066 L9.68990522,0.505062109 C10.1438485,0.401968747 10.8422228,0.333239839 11.4707596,0.745613286 Z M9.27088066,0.161417569 L9.15014032,0.176829868 C9.07072449,0.188165365 8.97457679,0.204512344 8.93589946,0.22157525 L8.92169353,0.230146477 C8.88677481,0.264510931 8.36299411,0.367604293 8.22331926,0.470697655 L8.00817641,0.571426237 C7.72671906,0.698873821 7.26764922,0.892114379 7.03608301,0.917435556 C6.80451681,0.968077909 6.83837152,0.981404844 6.87222622,0.984911932 L6.89640816,0.986164464 L6.9293926,0.999689832 C6.95626881,1.00930787 6.99617591,1.02052892 7.03608301,1.02052892 L7.20868272,1.01076952 C7.44962447,0.998376625 7.88365541,0.989288505 8.18840055,1.08925783 C8.60742511,1.22671564 8.60742511,1.29544455 8.78201867,1.36417346 C8.95661224,1.43290236 9.16612452,1.46726682 9.20104323,1.53599573 L8.82608463,1.56053977 L8.7157776,1.5655479 C8.64186052,1.56845765 8.56839831,1.57036018 8.50266897,1.57036018 C8.25823798,1.57036018 7.55986371,1.50163127 7.24559529,1.36417346 C6.93132687,1.22671564 6.54722103,1.15798673 6.40754617,1.19235119 C6.26787132,1.15798673 6.12819647,1.15798673 6.05835904,1.12362228 L6.0656543,1.11348656 C6.08196136,1.09405978 6.13045339,1.0492937 6.25747676,1.0019937 L6.30279003,0.986164464 C6.51230231,0.917435556 6.51230231,0.711248832 7.17575786,0.367604293 C7.83921342,0.0239597533 8.53758768,-0.147862516 9.27088066,0.161417569 Z M13.9849069,0.333239839 C15.2070619,0.333239839 15.8705175,1.22671564 15.8705175,1.22671564 C15.1023058,1.05489337 14.8229561,0.848706648 14.6832812,0.77997774 C14.5785251,0.711248832 14.3340941,0.470697655 14.1944192,0.436333201 C14.0547444,0.401968747 13.9849069,0.333239839 13.9849069,0.333239839 Z" id="Shape" fill="#00AEEF" fill-rule="nonzero"></path>
    </g>
</svg>
