<svg width="20" height="20" aria-hidden="true" focusable="false" xmlns="http://www.w3.org/2000/svg">
    <path fill-rule="nonzero" d="M14.34 15.94a.5.5 0 0 1-.08.7 5.3 5.3 0 0 1-3.31 1.11 5.38 5.38 0 0 1-3-.88c-.84.56-1.89.88-3 .88a5.3 5.3 0 0 1-3.31-1.11.5.5 0 1 1 .62-.78c.7.56 1.66.89 2.69.89.94 0 1.83-.27 2.5-.75l.2-.15.04-.03.04-.02.05-.02.1-.03h.14l.1.03.07.03.07.05c.7.56 1.66.89 2.69.89a4.3 4.3 0 0 0 2.69-.89.5.5 0 0 1 .7.08ZM8 6.2c.33 0 .6.27.6.6v.4H10c.33 0 .6.27.6.6v2.27l1.6.56c.28.1.45.4.39.7l-.37 1.7.02.01.02.02c.7.56 1.66.89 2.69.89a4.3 4.3 0 0 0 2.69-.89.5.5 0 1 1 .62.78 5.3 5.3 0 0 1-3.31 1.11 5.4 5.4 0 0 1-2.97-.86l-.4 1.84a.6.6 0 0 1-1.17-.26l.89-4.08L8 10.44l-3.3 1.15.89 4.08a.6.6 0 0 1-.37.69l-.1.03a.6.6 0 0 1-.7-.46l-1-4.6a.6.6 0 0 1 .38-.7l1.6-.56V7.8c0-.33.27-.6.6-.6h1.4v-.4c0-.33.27-.6.6-.6Zm4-2.8c.33 0 .6.27.6.6v.4H14c.33 0 .6.27.6.6v2.29l1.6.54c.28.1.45.4.39.7l-1 4.6a.6.6 0 0 1-1.18-.26l.89-4.08-3.33-1.14-.52.13a.6.6 0 0 1-.7-.34l-.02-.1a.6.6 0 0 1 .44-.72l.69-.17a.6.6 0 0 1 .33.01l1.21.41V5.6h-2.8v.6a.6.6 0 0 1-.5.6H10a.6.6 0 0 1-.6-.6V5c0-.33.27-.6.6-.6h1.4V4c0-.33.27-.6.6-.6Zm-2.6 5H6.6v1.25l1.2-.42a.6.6 0 0 1 .4 0l1.2.42V8.4Z"/>
</svg>