<svg width="20" height="20" aria-hidden="true" focusable="false" xmlns="http://www.w3.org/2000/svg">
  <path fill-rule="nonzero" d="M4.55 3.25 14.8 15.88c.24.3.2.72-.09.96a.67.67 0 0 1-.95-.09l-1.55-1.9c-.73.26-1.46.4-2.21.4-2.66 0-5.12-1.68-7.4-4.96a.62.62 0 0 1 0-.7c.9-1.3 1.84-2.35 2.8-3.14L3.5 4.12a.69.69 0 0 1 .1-.96c.29-.24.71-.2.95.09Zm1.61 4.14.25-.19c-.75.57-1.48 1.31-2.2 2.25l-.2.27-.17.22.16.23c1.8 2.4 3.65 3.67 5.56 3.84l.22.01H10c.47 0 .93-.06 1.39-.19l-1.15-1.41-.24.01a2.46 2.46 0 0 1-2.34-3.19l-1.5-1.85ZM10 4.64c2.66 0 5.12 1.68 7.4 4.95.14.21.14.5 0 .7a15.4 15.4 0 0 1-2.76 3.1l-.76-.93c.64-.54 1.28-1.2 1.91-2.02l.2-.27.17-.23-.16-.22c-1.8-2.4-3.65-3.67-5.56-3.84l-.22-.01-.22-.01c-.45 0-.89.06-1.33.18l-.83-1.02c.7-.25 1.43-.38 2.16-.38Zm0 2.82a2.46 2.46 0 0 1 2.36 3.12L9.83 7.46H10Z"/>
</svg>
