<svg width="20" height="20" aria-hidden="true" focusable="false" xmlns="http://www.w3.org/2000/svg">
    <path fill-rule="nonzero" d="M10 5c2.66 0 5.12 1.58 7.4 4.67.14.2.14.46 0 .66C15.11 13.42 12.65 15 10 15s-5.12-1.58-7.4-4.67a.56.56 0 0 1 0-.66C4.89 6.58 7.35 5 10 5Zm0 1.15c-2 0-3.92 1.11-5.8 3.38L4 9.8l-.16.21.16.21c1.8 2.27 3.65 3.46 5.56 3.62l.22.01.22.01c2 0 3.92-1.11 5.8-3.38l.2-.26.16-.21-.16-.21c-1.8-2.27-3.65-3.46-5.56-3.62l-.22-.01-.22-.01Zm0 1.5A2.4 2.4 0 0 1 12.44 10 2.4 2.4 0 0 1 10 12.35 2.4 2.4 0 0 1 7.56 10 2.4 2.4 0 0 1 10 7.65Z"/>
</svg>
