<svg width="20" height="20" aria-hidden="true" focusable="false" xmlns="http://www.w3.org/2000/svg">
  <path fill-rule="nonzero" d="m5.12 4.08 9.09 11.08a.6.6 0 0 1-.93.76l-1.37-1.67c-.64.23-1.3.35-1.96.35-2.36 0-4.54-1.47-6.55-4.34a.54.54 0 0 1 0-.62C4.2 8.5 5.02 7.58 5.87 6.9L4.2 4.84a.6.6 0 0 1 .93-.76Zm1.43 3.63.21-.16c-.65.5-1.3 1.15-1.95 1.96l-.18.24-.15.2.15.2c1.6 2.1 3.24 3.22 4.93 3.36l.2.02h.19c.41 0 .82-.06 1.23-.17l-1.02-1.24a2.17 2.17 0 0 1-2.28-2.79L6.55 7.71Zm3.4-2.41c2.36 0 4.54 1.47 6.55 4.34.13.19.13.43 0 .62a13.56 13.56 0 0 1-2.43 2.72l-.68-.82a11.3 11.3 0 0 0 1.7-1.77l.18-.24.14-.2-.14-.2c-1.6-2.1-3.24-3.22-4.93-3.36l-.2-.02h-.19c-.4 0-.79.05-1.18.16l-.73-.9a5.66 5.66 0 0 1 1.91-.33Zm0 2.47a2.17 2.17 0 0 1 2.1 2.74L9.8 7.77h.15Z"/>
</svg>
