<svg width="20" height="20" aria-hidden="true" focusable="false" xmlns="http://www.w3.org/2000/svg">
  <path fill-rule="nonzero" d="M8.62 4.8a1.6 1.6 0 0 1 2.76 0l5.26 9a1.6 1.6 0 0 1-1.38 2.42H4.74a1.6 1.6 0 0 1-1.38-2.41Zm1.5.42a.4.4 0 0 0-.47.18L4.4 14.4a.4.4 0 0 0 .34.6h10.52a.4.4 0 0 0 .34-.6L10.35 5.4a.4.4 0 0 0-.15-.15Zm-.1 7.27c.2 0 .35.05.46.16.12.12.18.26.18.43 0 .18-.06.32-.18.43a.63.63 0 0 1-.45.17.63.63 0 0 1-.46-.17.57.57 0 0 1-.17-.43c0-.17.05-.31.17-.42a.62.62 0 0 1 .46-.17Zm.6-4.56-.13 3.94h-.93l-.14-3.94h1.2Z"/>
</svg>
