<svg xmlns="http://www.w3.org/2000/svg" xmlns:xlink="http://www.w3.org/1999/xlink" width="78" height="40"><defs><path id="a" d="M0 .051h16.34v22.154H0z"/><path id="c" d="M0 39.98h65.947V0H0z"/></defs><g fill-rule="evenodd"><g transform="translate(0 17.775)"><mask id="b" fill="#fff"><use xlink:href="#a"/></mask><path fill="#8ABBC7" d="M3.102.051C1.01 3.46.212 6.116.036 8.331c-.701 8.792 9.045 12.918 13.79 13.797.251.047 1.457.236 2.281-.233.42-.24.162-.617.072-.827-.991-2.297-5.024-6.194-8.403-8.45-2.345-1.566-3.278-2.551-4.106-3.803C.803 4.481 3.102.051 3.102.051" mask="url(#b)"/></g><path fill="#8ABBC7" d="M13.019 9.194c-4.63.539-8.353 5.362-9.825 8.47.105-.221 1.508-2.563 4.82-4.566.25-.15 2-1.324 7.212-3.31.04-.015.946-.35.875-.518-.097-.23-2.375-.158-3.082-.076"/><path fill="#3C3C3B" d="M38.43 10.42c-.274.357-.655.627-1.142.811-.487.184-1.04.276-1.658.276-.636 0-1.2-.144-1.69-.432a2.88 2.88 0 01-1.134-1.236c-.266-.536-.404-1.161-.415-1.876V7.37c0-1.145.275-2.04.824-2.683.55-.643 1.316-.965 2.3-.965.845 0 1.516.209 2.013.627.497.418.796 1.019.897 1.803h-1.293c-.146-.912-.676-1.369-1.59-1.369-.592 0-1.041.212-1.349.636-.308.424-.467 1.046-.477 1.866v.58c0 .818.173 1.452.519 1.903.346.452.826.677 1.442.677.674 0 1.154-.152 1.44-.455V8.515h-1.565v-1h2.878v2.904z"/><mask id="d" fill="#fff"><use xlink:href="#c"/></mask><path fill="#3C3C3B" d="M39.839 11.403h1.267V3.409h-1.267zm3.676-2.758c0 .58.12 1.033.36 1.36.24.328.574.492 1.002.492.427 0 .76-.166.998-.5.238-.332.358-.82.358-1.462 0-.569-.123-1.02-.368-1.353a1.175 1.175 0 00-.999-.5c-.414 0-.742.165-.986.493-.243.327-.365.817-.365 1.47zm-1.267-.11c0-.551.11-1.048.329-1.49.219-.443.526-.783.923-1.02a2.606 2.606 0 011.366-.357c.762 0 1.38.245 1.854.734.475.489.731 1.138.77 1.946l.005.297c0 .555-.107 1.05-.321 1.488-.214.437-.52.775-.918 1.015-.398.24-.858.359-1.38.359-.796 0-1.433-.265-1.91-.794-.479-.529-.718-1.234-.718-2.115v-.063zm10.003 0c0-.61-.108-1.068-.323-1.373-.216-.306-.529-.458-.939-.458-.55 0-.935.239-1.158.718v2.32c.226.49.616.734 1.168.734.397 0 .703-.147.918-.442.216-.295.327-.74.334-1.337v-.162zm1.267.11c0 .874-.195 1.57-.586 2.086-.391.517-.93.776-1.614.776-.661 0-1.176-.238-1.544-.713l-.063.609h-1.147V3.409h1.267v2.904c.365-.43.857-.645 1.476-.645.689 0 1.23.255 1.622.765.393.51.59 1.223.59 2.139v.073zm3.042 1.847c.25 0 .485-.06.706-.182.22-.121.386-.284.498-.49V8.76h-.683c-.47 0-.823.08-1.06.244a.792.792 0 00-.354.692c0 .243.081.436.243.58.161.144.378.216.65.216zm1.392.91c-.056-.107-.105-.282-.147-.525-.403.42-.897.63-1.48.63-.567 0-1.03-.161-1.388-.484a1.547 1.547 0 01-.537-1.197c0-.6.223-1.06.67-1.382.447-.32 1.086-.481 1.917-.481h.777v-.37c0-.291-.082-.524-.245-.7-.164-.175-.412-.262-.746-.262-.289 0-.525.072-.71.216a.668.668 0 00-.276.549H54.52c0-.309.102-.598.308-.867a2.05 2.05 0 01.837-.632 2.946 2.946 0 011.18-.229c.661 0 1.188.166 1.581.497.393.331.595.797.605 1.397v2.54c0 .506.071.91.214 1.212v.089h-1.293zm2.487.001h1.268V3.409h-1.268zm-23.453 9.455H33.93v3.201h-1.32v-7.577h4.824v1.061H33.93v2.254h3.056zm1.45 3.201h1.267v-5.63h-1.267v5.63zm-.078-7.098c0-.196.061-.359.185-.488.123-.13.3-.194.529-.194.23 0 .407.065.532.194.125.13.188.292.188.488a.657.657 0 01-.188.48c-.125.127-.303.19-.532.19-.23 0-.406-.063-.53-.19a.662.662 0 01-.184-.48zm5.888 5.568a.573.573 0 00-.28-.515c-.186-.118-.494-.222-.925-.313a4.762 4.762 0 01-1.08-.343c-.633-.305-.949-.748-.949-1.327 0-.486.205-.892.615-1.218.41-.326.932-.489 1.565-.489.675 0 1.22.167 1.635.5.416.333.623.765.623 1.295h-1.267a.779.779 0 00-.271-.606c-.181-.161-.42-.242-.72-.242-.278 0-.505.064-.68.193a.607.607 0 00-.264.515c0 .194.082.345.245.453.164.107.494.216.991.325.497.11.888.24 1.171.39.283.151.494.332.631.544.137.212.206.468.206.77 0 .507-.21.917-.631 1.23-.42.315-.972.472-1.653.472-.463 0-.875-.083-1.236-.25a2.032 2.032 0 01-.845-.687 1.624 1.624 0 01-.303-.942h1.231c.017.299.13.528.34.69.208.161.484.242.828.242.334 0 .588-.063.762-.19a.587.587 0 00.26-.497m3.599-3.487a1.985 1.985 0 011.57-.718c1.203 0 1.813.685 1.83 2.056v3.679h-1.267v-3.633c0-.388-.084-.663-.253-.824-.168-.162-.416-.242-.743-.242-.508 0-.886.225-1.137.676v4.023h-1.267v-7.994h1.267v2.977zm4.762 5.017h1.267v-5.63h-1.267v5.63zm-.078-7.098c0-.196.061-.359.185-.488.123-.13.3-.194.53-.194.229 0 .406.065.531.194.125.13.188.292.188.488a.657.657 0 01-.188.48c-.125.127-.302.19-.532.19-.23 0-.406-.063-.53-.19a.662.662 0 01-.184-.48zm3.901 1.467l.036.65c.417-.502.965-.754 1.643-.754 1.175 0 1.773.671 1.794 2.014v3.72h-1.267v-3.647c0-.357-.078-.622-.232-.794-.155-.172-.408-.257-.76-.257-.51 0-.891.23-1.141.692v4.007h-1.268v-5.63h1.195zm5.804 2.883c0 .566.116 1.01.347 1.335.231.324.552.487.962.487.511 0 .89-.22 1.137-.656V20c-.24-.427-.615-.64-1.126-.64-.417 0-.742.164-.973.494-.231.33-.347.815-.347 1.457m-1.262-.11c0-.873.206-1.572.618-2.094.412-.522.959-.783 1.64-.783.644 0 1.15.224 1.518.671l.057-.567h1.143v5.46c0 .738-.23 1.32-.691 1.748-.461.426-1.083.64-1.865.64-.414 0-.818-.086-1.212-.258-.395-.172-.695-.396-.9-.674l.6-.76c.39.462.869.693 1.44.693.42 0 .752-.114.995-.341.244-.228.365-.562.365-1.002v-.38c-.365.406-.852.609-1.46.609-.66 0-1.2-.262-1.62-.786-.418-.524-.628-1.249-.628-2.175M38.566 34.841l1.168-5.703h1.309l-1.752 7.577h-1.262l-1.445-5.532-1.476 5.532h-1.267l-1.752-7.577h1.309l1.178 5.693 1.45-5.693h1.106zm5.127.963c.25 0 .486-.06.706-.182.221-.121.387-.284.499-.49v-1.06h-.684c-.469 0-.822.08-1.058.244a.792.792 0 00-.355.692c0 .243.08.436.242.58.162.144.379.216.65.216zm1.392.91c-.055-.107-.104-.282-.146-.525-.403.42-.897.63-1.48.63-.568 0-1.03-.161-1.388-.484a1.547 1.547 0 01-.537-1.197c0-.6.223-1.06.67-1.382.446-.32 1.085-.48 1.916-.48h.778v-.37c0-.292-.082-.525-.246-.7-.163-.175-.412-.263-.745-.263-.289 0-.525.072-.71.216a.668.668 0 00-.276.549h-1.267c0-.309.102-.598.307-.867a2.05 2.05 0 01.837-.632 2.946 2.946 0 011.182-.229c.66 0 1.187.166 1.58.497.393.331.594.797.605 1.397v2.54c0 .506.071.91.214 1.212v.089h-1.294zm3.995-6.998v1.368h.996v.937h-.996v3.143c0 .215.043.37.128.466.085.095.237.143.456.143.146 0 .294-.017.444-.052v.978c-.289.08-.567.12-.835.12-.973 0-1.46-.536-1.46-1.608v-3.19h-.928v-.937h.928v-1.368h1.267zm4.282 6.094c.316 0 .579-.092.788-.276a.942.942 0 00.333-.682h1.195c-.014.35-.124.677-.329.98a2.154 2.154 0 01-.834.722c-.352.176-.73.265-1.137.265-.79 0-1.415-.255-1.878-.765-.462-.51-.693-1.214-.693-2.113v-.13c0-.857.229-1.543.688-2.058.459-.515 1.085-.773 1.878-.773.67 0 1.217.195 1.64.586.422.39.644.902.665 1.537h-1.195a1.157 1.157 0 00-.33-.796 1.067 1.067 0 00-.791-.312c-.41 0-.727.148-.95.445-.222.296-.335.747-.338 1.35v.203c0 .61.11 1.066.331 1.366.22.3.54.45.957.45m4.522-4.111a1.985 1.985 0 011.57-.718c1.203 0 1.813.685 1.83 2.056v3.679h-1.267v-3.632c0-.389-.084-.664-.253-.825-.169-.162-.417-.242-.743-.242-.508 0-.887.225-1.137.676v4.023h-1.268v-7.993h1.268v2.976z" mask="url(#d)"/><path fill="#E84427" d="M20.446 9.194c.216.39.439.775.645 1.17.657 1.255 1.19 2.558 1.52 3.939.266 1.106.387 2.228.311 3.363-.118 1.774-.706 3.386-1.726 4.842-.893 1.273-2.012 2.316-3.286 3.196a20.306 20.306 0 01-7.024 3.085 7.445 7.445 0 01-1.195.187 3.39 3.39 0 01-1.219-.135 1.082 1.082 0 01-.081-.029c-.43-.169-.505-.428-.282-.834.274-.499.552-.994.888-1.456a18.71 18.71 0 011.644-1.949c1.656-1.724 3.518-3.202 5.481-4.557.755-.522 1.495-1.059 2.15-1.705 1.307-1.289 2.218-2.796 2.544-4.618a8.374 8.374 0 00-.233-3.889c-.058-.198-.122-.395-.184-.593l.047-.017m-9.331-7.226c-.273-.138-.52-.24-.744-.383a3.337 3.337 0 01-.55-.448.77.77 0 01-.215-.634c.02-.239.13-.387.357-.459.26-.083.513-.034.767.024.92.208 1.752.614 2.54 1.117.868.552 1.654 1.206 2.392 1.92 1.574 1.52 2.921 3.226 4.125 5.047.028.042.055.085.08.128.007.011.007.025.018.068-.102-.09-.186-.161-.268-.237-1.05-.974-2.241-1.738-3.52-2.374-1.008-.5-2.057-.905-3.108-1.305-.578-.22-1.162-.433-1.703-.74a1.817 1.817 0 01-.585-.505 1.611 1.611 0 01-.159-.256c-.15-.322-.07-.593.232-.78.102-.064.213-.115.341-.183m5.402 25.162c.053-.036.085-.063.12-.082 1.02-.528 2.073-.972 3.188-1.255.413-.105.83-.184 1.26-.16.497.028.645.277.406.716-.35.643-.893 1.044-1.605 1.213-.673.159-1.349.124-2.016-.02-.42-.091-.829-.235-1.243-.356-.031-.01-.06-.03-.11-.055" mask="url(#d)"/>
<path stroke="#BCCADC" d="M76.4 0v40"/></g></svg>
