<svg xmlns="http://www.w3.org/2000/svg" width="14" height="15"><g transform="translate(0 .45)" fill="none" fill-rule="evenodd"><rect width="14" height="14" fill="#D85676" rx="7"/><path fill="#01255B" fill-rule="nonzero" d="M6.047 8.452c0-.523.059-.936.177-1.238.118-.303.31-.565.575-.787.265-.222.466-.425.604-.61a.995.995 0 00.207-.61c0-.54-.233-.81-.699-.81a.648.648 0 00-.52.236c-.133.157-.203.37-.21.639H4.365c.008-.716.233-1.274.677-1.673C5.486 3.199 6.11 3 6.912 3c.798 0 1.416.184 1.855.553.439.369.658.894.658 1.574 0 .297-.059.567-.177.811a2.741 2.741 0 01-.57.747l-.617.574a1.453 1.453 0 00-.365.519 2.054 2.054 0 00-.113.674H6.047zm-.22 1.632a.83.83 0 01.287-.652c.191-.17.43-.255.717-.255.286 0 .525.085.717.255.191.17.287.387.287.652a.834.834 0 01-.287.653 1.04 1.04 0 01-.717.255 1.04 1.04 0 01-.717-.255.834.834 0 01-.288-.653z"/></g></svg>