<svg xmlns="http://www.w3.org/2000/svg" width="18" height="18"><path d="M3.212 3.247C4.812 1.647 6.75.838 8.988.838c2.239 0 4.17.802 5.76 2.391 1.588 1.59 2.39 3.52 2.39 5.76 0 2.238-.802 4.17-2.39 5.758-1.59 1.59-3.521 2.391-5.76 2.391-2.238 0-4.17-.802-5.759-2.39C1.64 13.157.84 11.226.84 8.987c0-2.238.795-4.164 2.373-5.741zM2.138 8.988c0 1.893.665 3.495 2.01 4.84 1.346 1.345 2.947 2.01 4.84 2.01 1.893 0 3.495-.665 4.84-2.01 1.345-1.345 2.01-2.947 2.01-4.84 0-1.893-.665-3.494-2.01-4.84-1.345-1.345-2.947-2.01-4.84-2.01-1.892 0-3.5.67-4.857 2.028C2.798 5.5 2.138 7.095 2.138 8.988zM9.765 6.3H8.288V4.788h1.477V6.3zm0 7.012H8.288v-5.5h1.477v5.5z"/></svg>