<svg xmlns="http://www.w3.org/2000/svg" width="9" height="16"><path fill="#163F89" d="M3.88 13.3a1 1 0 011.03 1.02c0 .27-.1.5-.28.7-.19.19-.44.28-.75.28a1 1 0 01-.75-.29.98.98 0 01-.27-.7c0-.27.09-.52.26-.71.19-.2.44-.3.76-.3zM4.2 0c1.26 0 2.26.37 3 1.12.73.75 1.1 1.76 1.1 3.02 0 .8-.18 1.54-.54 2.24-.36.69-1.03 1.49-2.01 2.4a3.48 3.48 0 00-1.13 2.27.82.82 0 01-.7.72h-.18a.74.74 0 01-.67-.81c.06-.62.16-1.1.3-1.43.26-.57.6-1.02 1.22-1.66l.67-.68c.43-.44.72-.77.86-.98a3.35 3.35 0 00.61-2.05c0-.85-.22-1.52-.67-2a2.41 2.41 0 00-1.86-.71c-.96 0-1.41.14-1.96.68-.3.31-.52.75-.66 1.33a.9.9 0 01-1.01.7.7.7 0 01-.56-.83A3.8 3.8 0 011.15 1.1 4.03 4.03 0 014.2 0z"/></svg>