<svg xmlns="http://www.w3.org/2000/svg" width="14" height="12"><path fill="#8A9FC4" d="M7.34 3.34h1v2.82l2.35 1.4-.5.82-2.85-1.72V3.34zM3.75 1.75A5.85 5.85 0 0 1 8 0a5.8 5.8 0 0 1 4.23 1.75A5.76 5.76 0 0 1 14 6c0 1.67-.59 3.08-1.77 4.25A5.8 5.8 0 0 1 8 12a5.75 5.75 0 0 1-4.22-1.75l.94-.97A4.48 4.48 0 0 0 8 10.66c1.3 0 2.4-.46 3.31-1.36.92-.9 1.38-2 1.38-3.3 0-1.3-.46-2.4-1.38-3.3A4.54 4.54 0 0 0 8 1.34c-1.3 0-2.4.46-3.3 1.36-.9.9-1.36 2-1.36 3.3h2L2.66 8.69l-.07-.1L0 6h2c0-1.67.58-3.08 1.75-4.25z"/></svg>