<svg xmlns="http://www.w3.org/2000/svg" width="14" height="14"><path fill-rule="evenodd" d="M6.66 11.69c1.27 0 2.35-.45 3.24-1.33a4.39 4.39 0 0 0 1.33-3.22c0-1.27-.45-2.34-1.33-3.23A4.39 4.39 0 0 0 6.68 2.6c-1.27 0-2.34.44-3.23 1.32a4.39 4.39 0 0 0-1.33 3.23c0 1.26.45 2.33 1.33 3.22a4.37 4.37 0 0 0 3.2 1.33zm0-10.4c1.61 0 3 .58 4.14 1.73a5.64 5.64 0 0 1 1.72 4.14c0 1.61-.58 2.98-1.72 4.1a5.71 5.71 0 0 1-4.14 1.68 5.58 5.58 0 0 1-4.1-1.68 5.58 5.58 0 0 1-1.69-4.1c0-1.62.56-3 1.68-4.14a5.52 5.52 0 0 1 4.1-1.72zM.02 3.8V.49h3.32L.02 3.8zm3.32 10H.02v-3.31l3.32 3.32zm10-3.31v3.32h-3.32l3.32-3.32zm-3.32-10h3.32V3.8L10.02.48z"/></svg>