<svg xmlns="http://www.w3.org/2000/svg" width="31" height="31"><g fill="none" fill-rule="nonzero"><path fill="#FFE7A0" d="M15.5 0a15.5 15.5 0 0 1 0 31 15.5 15.5 0 0 1 0-31z"/><path fill="#061B52" d="M18.7 20.15l-7.35-7.35a5.18 5.18 0 0 0-1.09 3.2c0 1.45.51 2.69 1.53 3.7a5.05 5.05 0 0 0 3.71 1.54c1.17 0 2.24-.36 3.2-1.1zM8.75 10.2l.95-.95L22.25 21.8l-.95.95-1.55-1.55a6.56 6.56 0 0 1-3.51 1.51v1.55h-1.48v-1.55a6.52 6.52 0 0 1-4.04-1.93 6.52 6.52 0 0 1-1.93-4.04H7.24v-1.48h1.55a6.56 6.56 0 0 1 1.5-3.51L8.76 10.2zm13.46 5.06h1.55v1.48h-1.55a6.66 6.66 0 0 1-.73 2.39L20.35 18c.26-.63.39-1.3.39-2 0-1.45-.51-2.69-1.53-3.7a5.05 5.05 0 0 0-3.71-1.54c-.7 0-1.37.13-2 .39l-1.13-1.13a7.3 7.3 0 0 1 2.4-.73V7.74h1.47v1.55c1.57.16 2.92.8 4.04 1.93a6.52 6.52 0 0 1 1.93 4.04z"/></g></svg>
