<?xml version="1.0" encoding="UTF-8"?>
<svg width="115px" height="64px" viewBox="0 0 115 64" version="1.1" xmlns="http://www.w3.org/2000/svg" xmlns:xlink="http://www.w3.org/1999/xlink">
    <!-- Generator: Sketch 55.2 (78181) - https://sketchapp.com -->
    <title>files-supported</title>
    <desc>Created with Sketch.</desc>
    <defs>
        <path d="M0.94375,10.4316406 C0.94375,10.2441397 0.999413506,10.0878913 1.11074219,9.96289062 C1.22207087,9.83789 1.38906139,9.77539062 1.61171875,9.77539062 C1.83437611,9.77539062 2.00331974,9.83789 2.11855469,9.96289062 C2.23378964,10.0878913 2.29140625,10.2441397 2.29140625,10.4316406 C2.29140625,10.611329 2.23378964,10.7617181 2.11855469,10.8828125 C2.00331974,11.0039069 1.83437611,11.0644531 1.61171875,11.0644531 C1.38906139,11.0644531 1.22207087,11.0039069 1.11074219,10.8828125 C0.999413506,10.7617181 0.94375,10.611329 0.94375,10.4316406 Z M7.82265625,2.46875 L8.95351562,2.46875 L8.95351562,8.50976562 C8.95351562,9.32617596 8.70840089,9.96484145 8.21816406,10.4257812 C7.72792724,10.8867211 7.07461346,11.1171875 6.25820312,11.1171875 C5.41054264,11.1171875 4.75039299,10.9003928 4.27773438,10.4667969 C3.80507576,10.033201 3.56875,9.42578516 3.56875,8.64453125 L4.69375,8.64453125 C4.69375,9.13281494 4.82753772,9.51367051 5.09511719,9.78710938 C5.36269665,10.0605482 5.75038809,10.1972656 6.25820312,10.1972656 C6.7230492,10.1972656 7.099022,10.0507827 7.38613281,9.7578125 C7.67324362,9.46484229 7.81874998,9.05469014 7.82265625,8.52734375 L7.82265625,2.46875 Z M13.3832031,7.19726562 C12.4183546,6.91992049 11.7162131,6.57910358 11.2767578,6.17480469 C10.8373025,5.77050579 10.6175781,5.27148734 10.6175781,4.67773438 C10.6175781,4.00585602 10.8861301,3.45019751 11.4232422,3.01074219 C11.9603542,2.57128687 12.6585895,2.3515625 13.5179687,2.3515625 C14.1039092,2.3515625 14.6263649,2.46484262 15.0853516,2.69140625 C15.5443382,2.91796988 15.8998034,3.23046676 16.1517578,3.62890625 C16.4037122,4.02734574 16.5296875,4.46288826 16.5296875,4.93554688 L15.3988281,4.93554688 C15.3988281,4.4199193 15.2347673,4.01464991 14.9066406,3.71972656 C14.578514,3.42480321 14.115628,3.27734375 13.5179687,3.27734375 C12.9632785,3.27734375 12.5306656,3.39941284 12.2201172,3.64355469 C11.9095688,3.88769653 11.7542969,4.22656033 11.7542969,4.66015625 C11.7542969,5.00781424 11.9017563,5.30175661 12.1966797,5.54199219 C12.491603,5.78222776 12.9935511,6.00195213 13.7025391,6.20117188 C14.411527,6.40039162 14.9662089,6.62011599 15.3666016,6.86035156 C15.7669942,7.10058714 16.0638662,7.38085777 16.2572266,7.70117188 C16.4505869,8.02148598 16.5472656,8.39843533 16.5472656,8.83203125 C16.5472656,9.52344096 16.2777371,10.0771464 15.7386719,10.4931641 C15.1996067,10.9091818 14.4789108,11.1171875 13.5765625,11.1171875 C12.9906221,11.1171875 12.4437525,11.0048839 11.9359375,10.7802734 C11.4281225,10.5556629 11.0365248,10.2480488 10.7611328,9.85742188 C10.4857408,9.46679492 10.3480469,9.02343998 10.3480469,8.52734375 L11.4789062,8.52734375 C11.4789062,9.04297133 11.669334,9.45019382 12.0501953,9.74902344 C12.4310566,10.0478531 12.9398406,10.1972656 13.5765625,10.1972656 C14.1703155,10.1972656 14.625389,10.0761731 14.9417969,9.83398438 C15.2582047,9.59179566 15.4164062,9.26172084 15.4164062,8.84375 C15.4164062,8.42577916 15.2699233,8.10254021 14.9769531,7.87402344 C14.6839829,7.64550667 14.1527382,7.41992299 13.3832031,7.19726562 Z M24.5511719,7.00976562 C24.5511719,7.8457073 24.4105483,8.5751922 24.1292969,9.19824219 C23.8480455,9.82129218 23.449612,10.2968734 22.9339844,10.625 C22.4183568,10.9531266 21.8168003,11.1171875 21.1292969,11.1171875 C20.4574185,11.1171875 19.8617213,10.9521501 19.3421875,10.6220703 C18.8226537,10.2919905 18.4193374,9.82129212 18.1322266,9.20996094 C17.8451158,8.59862976 17.6976563,7.89062902 17.6898438,7.0859375 L17.6898438,6.47070312 C17.6898438,5.65038652 17.8324204,4.92578439 18.1175781,4.296875 C18.4027358,3.66796561 18.8060521,3.18652511 19.3275391,2.85253906 C19.849026,2.51855302 20.4456998,2.3515625 21.1175781,2.3515625 C21.8011753,2.3515625 22.4037083,2.51659991 22.9251953,2.84667969 C23.4466823,3.17675946 23.8480455,3.6552703 24.1292969,4.28222656 C24.4105483,4.90918282 24.5511719,5.63866771 24.5511719,6.47070312 L24.5511719,7.00976562 Z M23.4320313,6.45898438 C23.4320313,5.44726057 23.2289083,4.67090114 22.8226563,4.12988281 C22.4164042,3.58886448 21.8480505,3.31835938 21.1175781,3.31835938 C20.4066371,3.31835938 19.8470724,3.58886448 19.4388672,4.12988281 C19.030662,4.67090114 18.8207032,5.4218702 18.8089844,6.3828125 L18.8089844,7.00976562 C18.8089844,7.99023928 19.015037,8.76073938 19.4271484,9.32128906 C19.8392599,9.88183874 20.406637,10.1621094 21.1292969,10.1621094 C21.855863,10.1621094 22.4183574,9.89746358 22.8167969,9.36816406 C23.2152364,8.83886454 23.4203124,8.08008307 23.4320313,7.09179688 L23.4320313,6.45898438 Z M32.7953125,11 L31.6644531,11 L27.3695313,4.42578125 L27.3695313,11 L26.2386719,11 L26.2386719,2.46875 L27.3695313,2.46875 L31.6761719,9.07226562 L31.6761719,2.46875 L32.7953125,2.46875 L32.7953125,11 Z" id="path-1"></path>
    </defs>
    <g id="Page-1" stroke="none" stroke-width="1" fill="none" fill-rule="evenodd">
        <g id="files-supported" transform="translate(1.000000, 1.000000)">
            <g id="Group" transform="translate(63.000000, 0.000000)">
                <polyline id="Path" stroke="#163F89" stroke-width="1.3" stroke-linecap="round" stroke-linejoin="round" points="4 40 4 0 38.5 0 50 11.5 50 62 4 62 4 57"></polyline>
                <path d="M38.5,0 L50,11.5 L38.5,11.5 L38.5,0 Z M0,40 L41,40 L41,57 L0,57 L0,40 Z" id="Shape" stroke="#163F89" stroke-width="1.3" stroke-linecap="round" stroke-linejoin="round"></path>
                <g transform="translate(3.000000, 42.000000)" fill-rule="nonzero" id=".JSON">
                    <g>
                        <use fill="#000000" xlink:href="#path-1"></use>
                        <use fill="#163F89" xlink:href="#path-1"></use>
                    </g>
                </g>
            </g>
            <g id="Group">
                <path d="M4,40 L4,0 L51,0 L51,13.7 C50.1319879,13.3211684 49.64869,12.3854519 49.8421874,11.4583504 C50.0356847,10.5312489 50.8529211,9.86696972 51.8,9.86696972 C52.7470789,9.86696972 53.5643153,10.5312489 53.7578126,11.4583504 C53.95131,12.3854519 53.4680121,13.3211684 52.6,13.7 L50,18.7 L50,18.7 L50,62 L4,62 L4,57" id="Path" stroke="#163F89" stroke-width="1.3" stroke-linecap="round" stroke-linejoin="round"></path>
                <polyline id="Path" stroke="#163F89" stroke-width="1.3" stroke-linecap="round" stroke-linejoin="round" points="4 40 4 0 47 0 47 62 4 62 4 57"></polyline>
                <polygon id="Path" stroke="#163F89" stroke-width="1.3" stroke-linecap="round" stroke-linejoin="round" points="36.5 3 41.5 3 41.5 13 36.5 13"></polygon>
                <path d="M38.5,10 L39.5,10 L39.5,11 L38.5,11 L38.5,10 Z M38.5,0 L39.5,0 L39.5,4 L38.5,4 L38.5,0 Z M0,40 L36,40 L36,57 L0,57 L0,40 Z" id="Shape" stroke="#163F89" stroke-width="1.3" stroke-linecap="round" stroke-linejoin="round"></path>
                <path d="M6.5,53 L7,53 L7.2,52.5 C7.2,52.3 7.2,52.2 7,52.1 C6.9,51.9 6.7,51.9 6.5,51.9 C6.3,51.9 6.1,51.9 6,52.1 L5.8,52.5 L6,53 L6.5,53.2 L6.5,53 Z M15,53 L15,52 L10,52 L14.8,45.3 L14.8,44.5 L8.8,44.5 L8.8,45.4 L13.4,45.4 L8.8,52.2 L8.8,53 L15,53 L15,53 Z M17.7,53 L17.7,44.5 L16.7,44.5 L16.7,53 L17.7,53 Z M21,53 L21,49.7 L23,49.7 C24,49.7 24.7,49.4 25.3,49 C25.8,48.5 26,47.9 26,47 C26,46.3 25.8,45.7 25.2,45.2 C24.7,44.7 24,44.5 23,44.5 L20,44.5 L20,53 L21,53 Z M23,48.7 L21,48.7 L21,45.4 L23.1,45.4 C23.7,45.4 24.1,45.6 24.4,45.9 C24.7,46.2 24.9,46.6 24.9,47.1 C24.9,47.6 24.7,48.1 24.4,48.3 C24.1,48.6 23.6,48.7 23,48.7 L23,48.7 Z" id="Shape" fill="#163F89" fill-rule="nonzero"></path>
                <path d="M39,13.5 L39,15.5 M39,18.5 L39,20.5 M39,23.5 L39,25.5" id="Shape" stroke="#163F89" stroke-width="1.3" stroke-linecap="round" stroke-linejoin="round"></path>
            </g>
        </g>
    </g>
</svg>