<?xml version="1.0" encoding="UTF-8"?>
<svg width="136px" height="129px" viewBox="0 0 136 129" version="1.1" xmlns="http://www.w3.org/2000/svg" xmlns:xlink="http://www.w3.org/1999/xlink">
    <!-- Generator: Sketch 55.2 (78181) - https://sketchapp.com -->
    <title>Group 4</title>
    <desc>Created with Sketch.</desc>
    <g id="Page-1" stroke="none" stroke-width="1" fill="none" fill-rule="evenodd">
        <g id="marine-reserves/galapagos-private/upload-popup-dataset-type" transform="translate(-319.000000, -237.000000)" fill="#FF6954" stroke="#FFFFFF">
            <g id="Group-8">
                <g id="Group-5" transform="translate(250.000000, 77.000000)">
                    <g id="form/drag-and-drop" transform="translate(20.000000, 102.000000)">
                        <g id="Group-9" transform="translate(0.000000, -0.000000)">
                            <g id="Group-4" style="mix-blend-mode: multiply;" transform="translate(50.000000, 59.000000)">
                                <polygon id="Path-3" opacity="0.200000003" points="48.6796518 62.4258477 75.0613133 44.4367286 70.5526418 18.4573745 37.8461368 7.70435351 25.4659265 41.2896307"></polygon>
                                <polygon id="Path-4" opacity="0.800000012" points="75.0613133 44.4367286 70.6869477 18.7429631 86.1827031 0 114.710065 18.7429631 95.1530263 57.1838793"></polygon>
                                <polygon id="Path-5" points="96.7029367 81.6936236 95.1530263 57.1838793 75.0613133 44.4367286 48.6796518 62.4258477 70.5526418 90.7679408"></polygon>
                                <polygon id="Path-6" opacity="0.5" points="35.0844258 94.026725 70.6869477 90.7679408 48.6796518 62.4258477 23.18082 73.7857046 20.7002392 90.7679408"></polygon>
                                <polygon id="Path-7" opacity="0.600000024" points="95.1530263 57.1838793 134.18082 57.1838793 118.982732 41.2896307 114.710065 18.7429631"></polygon>
                                <polygon id="Path-8" opacity="0.699999988" points="95.1530263 57.1838793 96.7029367 81.6936236 107.824326 99.1664411 127.662481 84.5283521 123.912875 70.6767482 134.18082 57.1838793"></polygon>
                                <polygon id="Path-9" opacity="0.200000003" points="70.5526418 90.7679408 60.9341425 110.631014 85.5815469 127 105.419702 107.23821 107.824326 99.1664411 96.7029367 81.6936236"></polygon>
                                <polygon id="Path-10" points="70.5526418 90.7679408 35.0844258 94.026725 29.633016 106.5323 46.9338838 117.587824 60.9341425 110.631014"></polygon>
                                <polygon id="Path-11" opacity="0.400000006" points="48.6796518 62.4258477 25.4659265 41.2896307 0 44.4367286 6.11936149 70.7927689 23.18082 73.7857046"></polygon>
                            </g>
                        </g>
                    </g>
                </g>
            </g>
        </g>
    </g>
</svg>