<svg width="52" height="64" viewBox="0 0 52 64" xmlns="http://www.w3.org/2000/svg"><g fill="#163F89"><path d="M51.65 63a.65.65 0 01-.554.643L51 63.65H5a.65.65 0 01-.643-.554L4.35 63l-.001-4.35H1a.65.65 0 01-.643-.554L.35 58V41a.65.65 0 01.554-.643L1 40.35h3.349L4.35 1a.65.65 0 01.554-.643L5 .35h34.548a.632.632 0 01.337.125l.075.065 11.5 11.5c.12.12.18.266.19.412V63zM38.85 1.65H5.65l-.001 38.7H42a.65.65 0 01.643.554l.007.096v17a.65.65 0 01-.554.643L42 58.65H5.649l.001 3.7h44.7l-.001-49.2H39.5a.65.65 0 01-.643-.554l-.007-.096V1.65zm2.5 40H1.65v15.7h39.7v-15.7zm-1.2-39.08v9.28h9.28l-9.28-9.28z"/><path d="M4.944 53.432a.68.68 0 01.167-.47c.111-.124.278-.187.5-.187.223 0 .392.063.508.188a.665.665 0 01.172.469.63.63 0 01-.172.45c-.116.122-.285.182-.507.182-.223 0-.39-.06-.501-.181a.641.641 0 01-.167-.451zm6.879-7.963h1.13v6.04c0 .817-.245 1.456-.735 1.917-.49.46-1.143.691-1.96.691-.847 0-1.508-.217-1.98-.65-.473-.434-.71-1.041-.71-1.822h1.126c0 .488.134.869.401 1.142.268.274.655.41 1.163.41.465 0 .841-.146 1.128-.44.287-.292.433-.702.437-1.23V45.47zm5.56 4.728c-.965-.277-1.667-.618-2.106-1.022a1.954 1.954 0 01-.66-1.497c0-.672.27-1.228.806-1.667.537-.44 1.236-.66 2.095-.66.586 0 1.108.114 1.567.34.46.227.815.54 1.067.938.252.398.378.834.378 1.307h-1.131c0-.516-.164-.921-.492-1.216-.328-.295-.791-.443-1.389-.443-.555 0-.987.122-1.298.367-.31.244-.466.583-.466 1.016 0 .348.148.642.443.882.295.24.797.46 1.506.66.709.198 1.263.418 1.664.658.4.24.697.52.89.841.194.32.29.697.29 1.131 0 .691-.27 1.245-.808 1.661-.54.416-1.26.624-2.162.624a4.01 4.01 0 01-1.641-.337c-.508-.224-.9-.532-1.175-.923a2.252 2.252 0 01-.413-1.33h1.13c0 .516.191.923.572 1.222.381.299.89.448 1.527.448.593 0 1.048-.12 1.365-.363.316-.242.474-.572.474-.99 0-.418-.146-.741-.439-.97-.293-.228-.824-.454-1.594-.677zm11.168-.187c0 .836-.14 1.565-.422 2.188-.281.623-.68 1.099-1.195 1.427-.516.328-1.117.492-1.805.492-.672 0-1.267-.165-1.787-.495-.52-.33-.923-.8-1.21-1.412-.287-.611-.434-1.32-.442-2.124v-.615c0-.82.142-1.545.428-2.174.285-.629.688-1.11 1.21-1.444.521-.334 1.118-.501 1.79-.501.683 0 1.286.165 1.807.495.522.33.923.808 1.204 1.435.282.627.422 1.357.422 2.189v.539zm-1.119-.551c0-1.012-.203-1.788-.61-2.33-.406-.54-.974-.81-1.704-.81-.711 0-1.27.27-1.68.81-.407.542-.617 1.293-.629 2.254v.627c0 .98.206 1.75.618 2.311.412.56.98.841 1.702.841.727 0 1.29-.265 1.688-.794.398-.53.603-1.288.615-2.276v-.633zM36.795 54h-1.13l-4.295-6.574V54h-1.131v-8.531h1.13l4.307 6.603V45.47h1.12V54z"/></g></svg>