<svg width="56" height="64" viewBox="0 0 56 64" xmlns="http://www.w3.org/2000/svg"><g fill="#163F89"><path d="M54.8.35a.65.65 0 01.643.556l.007.096-.042 11.456c0 .961-.507 2.508-1.13 3.436l-.134.189-2.494 3.808V63a.65.65 0 01-.554.643L51 63.65H5a.65.65 0 01-.643-.554L4.35 63l-.001-4.35H1a.65.65 0 01-.643-.554L.35 58V41a.65.65 0 01.554-.643L1 40.35h3.349L4.35 1a.65.65 0 01.554-.643L5 .35h49.8zm-15.95 1.3H5.649l.001 38.7H37a.65.65 0 01.643.554l.007.096v17a.65.65 0 01-.554.643L37 58.65H5.65l-.001 3.7H47.35V1.65h-6.2v1.699l1.35.001a.65.65 0 01.643.554L43.15 4v10a.65.65 0 01-.554.643l-.096.007-1.85-.001V16.5a.65.65 0 01-1.293.096l-.007-.096v-1.851l-1.85.001a.65.65 0 01-.643-.554L36.85 14V4a.65.65 0 01.554-.643l.096-.007 1.35-.001V1.65zm15.298 0H48.65v60.7h1.7V19.7a.65.65 0 01.06-.273l.046-.083 2.627-4.01c.496-.653.95-1.917 1.016-2.695l.009-.183.04-10.806zm-17.798 40H1.65v15.7h34.7v-15.7zM40 23.85a.65.65 0 01.643.554l.007.096v2a.65.65 0 01-1.293.096l-.007-.096v-2a.65.65 0 01.65-.65zm0-5a.65.65 0 01.643.554l.007.096v2a.65.65 0 01-1.293.096l-.007-.096v-2a.65.65 0 01.65-.65zM38.85 4.649l-.7.001v8.7h3.7v-8.7l-.7-.001V5a.65.65 0 01-.554.643l-.096.007h-1a.65.65 0 01-.643-.554L38.85 5v-.351zm1.65 5.701a.65.65 0 01.643.554l.007.096v1a.65.65 0 01-.554.643l-.096.007h-1a.65.65 0 01-.643-.554L38.85 12v-1a.65.65 0 01.554-.643l.096-.007h1z"/><path d="M7.5 54H8l.2-.5c0-.2 0-.3-.2-.4-.1-.2-.3-.2-.5-.2s-.4 0-.5.2l-.2.4.2.5.5.2V54zm8.5 0v-1h-5l4.8-6.7v-.8h-6v.9h4.6l-4.6 6.8v.8H16zm2.7 0v-8.5h-1V54h1zm3.3 0v-3.3h2c1 0 1.7-.3 2.3-.7.5-.5.7-1.1.7-2 0-.7-.2-1.3-.8-1.8-.5-.5-1.2-.7-2.2-.7h-3V54h1zm2-4.3h-2v-3.3h2.1c.6 0 1 .2 1.3.5.3.3.5.7.5 1.2s-.2 1-.5 1.2c-.3.3-.8.4-1.4.4z"/></g></svg>