<svg xmlns="http://www.w3.org/2000/svg" width="56" height="64">
  <g id="Page-1" fill="none" fill-rule="evenodd" stroke="none" stroke-width="1">
    <path id="Shape" fill="#163F89" fill-rule="nonzero" d="M54.8.35c.32 0 .6.24.64.56l.01.1-.04 11.45c0 .96-.5 2.5-1.13 3.43l-.14.2-2.49 3.8V63c0 .32-.24.6-.55.64l-.1.01H5a.65.65 0 0 1-.64-.55l-.01-.1v-4.35H1a.65.65 0 0 1-.64-.55L.35 58V41c0-.32.24-.6.55-.64l.1-.01h3.35V1c0-.32.24-.6.55-.64L5 .35h49.8Zm-15.95 1.3H5.65v38.7H37c.32 0 .6.24.64.55l.01.1v17c0 .32-.24.6-.55.64l-.1.01H5.65v3.7h41.7V1.65h-6.2v1.7h1.35c.32 0 .6.24.64.55l.01.1v10c0 .32-.24.6-.55.64l-.1.01h-1.85v1.85a.65.65 0 0 1-1.3.1V14.65H37.5a.65.65 0 0 1-.64-.55l-.01-.1V4c0-.32.24-.6.55-.64l.1-.01h1.35v-1.7Zm15.3 0h-5.5v60.7h1.7V19.7c0-.1.02-.19.06-.27l.05-.09 2.62-4c.5-.66.95-1.92 1.02-2.7v-.18l.05-10.81Zm-17.8 40H1.65v15.7h34.7v-15.7ZM7.51 52.78c.22 0 .4.06.5.18.12.13.18.28.18.47 0 .18-.06.33-.17.45-.12.12-.29.18-.5.18-.23 0-.4-.06-.5-.18a.64.64 0 0 1-.18-.45c0-.19.06-.34.17-.47.11-.12.28-.18.5-.18Zm3.9-7.31v4.22l3.78-4.22h1.36l-3.36 3.77L16.82 54h-1.35l-3.03-3.97-1.04 1.09V54h-1.12v-8.53h1.12Zm7.97 0 2.8 6.96 2.78-6.96h1.46V54h-1.13v-3.32l.11-3.59L22.6 54h-.86l-2.8-6.9.11 3.58V54h-1.12v-8.53h1.45Zm10.29 0v7.61h4.04V54h-5.18v-8.53h1.14ZM40 23.85c.32 0 .6.24.64.55l.01.1v2a.65.65 0 0 1-1.3.1v-2.1c0-.36.3-.65.65-.65Zm0-5c.32 0 .6.24.64.55l.01.1v2a.65.65 0 0 1-1.3.1v-2.1c0-.36.3-.65.65-.65Zm1.15-14.2V5c0 .32-.24.6-.55.64l-.1.01h-1a.65.65 0 0 1-.64-.55l-.01-.1v-.35h-.7v8.7h3.7v-8.7h-.7Zm-.65 5.7c.32 0 .6.24.64.55l.01.1v1c0 .32-.24.6-.55.64l-.1.01h-1a.65.65 0 0 1-.64-.55l-.01-.1v-1c0-.32.24-.6.55-.64l.1-.01h1Z"/>
  </g>
</svg>
