<svg xmlns="http://www.w3.org/2000/svg" width="17" height="18"><path fill-rule="evenodd" d="M11.7 13.15L4.35 5.8A5.18 5.18 0 0 0 3.26 9c0 1.45.51 2.69 1.53 3.7a5.05 5.05 0 0 0 3.71 1.54c1.17 0 2.24-.36 3.2-1.1zM1.75 3.2l.95-.95L15.25 14.8l-.95.95-1.55-1.55a6.56 6.56 0 0 1-3.51 1.51v1.55H7.76v-1.55a6.52 6.52 0 0 1-4.04-1.93 6.52 6.52 0 0 1-1.93-4.04H.24V8.26h1.55a6.56 6.56 0 0 1 1.5-3.51L1.76 3.2zm13.46 5.06h1.55v1.48h-1.55a6.66 6.66 0 0 1-.73 2.39L13.35 11c.26-.63.39-1.3.39-2 0-1.45-.51-2.69-1.53-3.7A5.05 5.05 0 0 0 8.5 3.75c-.7 0-1.37.13-2 .39L5.37 3.02a7.3 7.3 0 0 1 2.4-.73V.74h1.47v1.55c1.57.16 2.92.8 4.04 1.93a6.52 6.52 0 0 1 1.93 4.04z"/></svg>