<svg xmlns="http://www.w3.org/2000/svg" width="112" height="64" viewBox="0 0 112 64"><g fill="none" fill-rule="evenodd"><g style="mix-blend-mode:multiply"><path stroke="#163F89" stroke-linecap="round" stroke-linejoin="round" stroke-width="1.3" d="M5 1h36l10 10v52H5z"/><path fill="#FFF" stroke="#163F89" stroke-linecap="round" stroke-linejoin="round" stroke-width="1.3" d="M1 41h36v17H1z"/><path fill="#163F89" fill-rule="nonzero" d="M7.51 54.06c.22 0 .4-.06.5-.18a.63.63 0 00.18-.45.67.67 0 00-.17-.47c-.12-.12-.29-.18-.5-.18-.23 0-.4.06-.5.18a.68.68 0 00-.18.47c0 .18.06.33.17.45.11.12.28.18.5.18zm5.45.06c.9 0 1.62-.21 2.16-.63a2 2 0 00.8-1.66c0-.43-.1-.8-.28-1.13-.2-.32-.5-.6-.9-.84s-.95-.46-1.66-.66c-.7-.2-1.2-.42-1.5-.66a1.1 1.1 0 01-.45-.88c0-.43.16-.77.47-1.02.31-.24.74-.36 1.3-.36a2 2 0 011.39.44c.32.3.49.7.49 1.22h1.13c0-.48-.13-.91-.38-1.31s-.6-.71-1.07-.94a3.5 3.5 0 00-1.56-.34 3.2 3.2 0 00-2.1.66c-.53.44-.8 1-.8 1.67 0 .6.22 1.1.66 1.5.44.4 1.14.74 2.1 1.02.77.22 1.3.45 1.6.67.29.23.44.56.44.97 0 .42-.16.75-.48 1-.32.24-.77.36-1.36.36a2.4 2.4 0 01-1.53-.45c-.38-.3-.57-.7-.57-1.22H9.73c0 .5.13.94.41 1.33.28.39.67.7 1.17.92.51.22 1.06.34 1.65.34zm5.63-.12v-3.94h4.3V54h1.13v-8.53H22.9v3.67h-4.3v-3.67h-1.12V54h1.12zm8.66 0v-3.34h2c.97 0 1.71-.22 2.23-.67a2.4 2.4 0 00.78-1.91c0-.79-.27-1.42-.8-1.9a3.16 3.16 0 00-2.2-.71h-3.14V54h1.13zm2.02-4.26h-2.02v-3.35h2.08c.56.02 1 .17 1.32.48.32.3.48.71.48 1.22 0 .53-.16.94-.48 1.23-.32.28-.78.42-1.38.42z"/><path stroke="#163F89" stroke-linecap="round" stroke-linejoin="round" stroke-width="1.3" d="M41 1l10 10H41z"/></g><g style="mix-blend-mode:multiply"><path stroke="#163F89" stroke-linecap="round" stroke-linejoin="round" stroke-width="1.3" d="M65 1h36l10 10v52H65z"/><path fill="#FFF" stroke="#163F89" stroke-linecap="round" stroke-linejoin="round" stroke-width="1.3" d="M61 41h43v17H61z"/><path fill="#163F89" fill-rule="nonzero" d="M67.51 54.06c.22 0 .4-.06.5-.18a.63.63 0 00.18-.45.67.67 0 00-.17-.47c-.12-.12-.29-.18-.5-.18-.23 0-.4.06-.5.18a.68.68 0 00-.18.47c0 .18.06.33.17.45.11.12.28.18.5.18zm4.75.06c.81 0 1.47-.23 1.96-.7.49-.46.73-1.1.73-1.91v-6.04h-1.13v6.06c0 .52-.15.93-.43 1.23-.3.3-.67.44-1.13.44-.51 0-.9-.14-1.16-.41-.27-.28-.4-.66-.4-1.15h-1.13c0 .79.24 1.4.7 1.83.48.43 1.14.65 1.99.65zm7.42 0c.9 0 1.62-.21 2.16-.63a2 2 0 00.8-1.66c0-.43-.09-.8-.28-1.13-.2-.32-.5-.6-.9-.84s-.95-.46-1.66-.66c-.7-.2-1.2-.42-1.5-.66a1.1 1.1 0 01-.45-.88c0-.43.16-.77.47-1.02.31-.24.74-.36 1.3-.36a2 2 0 011.39.44c.32.3.49.7.49 1.22h1.13c0-.48-.13-.91-.38-1.31s-.6-.71-1.06-.94a3.5 3.5 0 00-1.57-.34 3.2 3.2 0 00-2.1.66c-.53.44-.8 1-.8 1.67 0 .6.22 1.1.66 1.5.44.4 1.14.74 2.1 1.02.77.22 1.3.45 1.6.67.29.23.44.56.44.97 0 .42-.16.75-.48 1-.31.24-.77.36-1.36.36a2.4 2.4 0 01-1.53-.45c-.38-.3-.57-.7-.57-1.22h-1.13c0 .5.14.94.41 1.33.28.39.67.7 1.18.92.5.22 1.05.34 1.64.34zm7.65 0c.69 0 1.29-.17 1.8-.5.52-.32.92-.8 1.2-1.42.28-.62.42-1.35.42-2.19v-.54a5.3 5.3 0 00-.42-2.19 3.19 3.19 0 00-1.2-1.43 3.3 3.3 0 00-1.81-.5c-.67 0-1.27.17-1.8.5-.51.34-.92.82-1.2 1.45a5.21 5.21 0 00-.43 2.17v.62c0 .8.16 1.5.44 2.12.29.61.7 1.08 1.21 1.41.52.33 1.12.5 1.79.5zm0-.96a2 2 0 01-1.7-.84 3.83 3.83 0 01-.62-2.31v-.63c.01-.96.22-1.7.63-2.25.4-.54.97-.81 1.68-.81.73 0 1.3.27 1.7.81.4.54.61 1.32.61 2.33v.63a3.8 3.8 0 01-.61 2.28c-.4.53-.96.8-1.7.8zm6.34.84v-6.57l4.3 6.57h1.13v-8.53h-1.12v6.6l-4.31-6.6h-1.13V54h1.13z"/><path stroke="#163F89" stroke-linecap="round" stroke-linejoin="round" stroke-width="1.3" d="M101 1l10 10h-10z"/></g></g></svg>
