<?xml version="1.0" encoding="UTF-8"?>
<svg width="55px" height="64px" viewBox="0 0 55 64" version="1.1" xmlns="http://www.w3.org/2000/svg" xmlns:xlink="http://www.w3.org/1999/xlink">
    <title>Group 4</title>
    <g id="Symbols" stroke="none" stroke-width="1" fill="none" fill-rule="evenodd">
        <g id="form/drag-and-drop/shapefile" transform="translate(-173.000000, -66.000000)">
            <g id="Group" transform="translate(100.000000, 67.000000)">
                <g id="Group-4" transform="translate(74.000000, 0.000000)">
                    <path d="M4,40 L4,0 L50,0 L51,0 C52.1045695,0 53,0.8954305 53,2 L53,15.6645161 C53,16.3332224 52.6657977,16.9576851 52.1094004,17.3286167 L50,18.7348836 L50,18.7348836 L50,62 L4,62 L4,57" id="Path" stroke="#163F89" stroke-width="1.3" stroke-linecap="round" stroke-linejoin="round"></path>
                    <polyline id="Path" stroke="#163F89" stroke-width="1.3" stroke-linecap="round" stroke-linejoin="round" points="4 40 4 0 47 0 47 62 4 62 4 57"></polyline>
                    <polygon id="Rectangle-Copy-3" stroke="#163F89" stroke-width="1.3" stroke-linecap="round" stroke-linejoin="round" points="36.5 3 41.5 3 41.5 13 36.5 13"></polygon>
                    <polygon id="Rectangle-Copy-4" stroke="#163F89" stroke-width="1.3" stroke-linecap="round" stroke-linejoin="round" points="38.5 10 39.5 10 39.5 11 38.5 11"></polygon>
                    <polygon id="Rectangle-Copy-5" stroke="#163F89" stroke-width="1.3" stroke-linecap="round" stroke-linejoin="round" points="38.5 0 39.5 7.10542736e-15 39.5 4 38.5 4"></polygon>
                    <rect id="Rectangle" stroke="#163F89" stroke-width="1.3" stroke-linecap="round" stroke-linejoin="round" x="0" y="40" width="36" height="17"></rect>
                    <path d="M6.51171875,53.0644531 C6.734375,53.0644531 6.90332031,53.0039062 7.01855469,52.8828125 C7.13378906,52.7617188 7.19140625,52.6113281 7.19140625,52.4316406 C7.19140625,52.2441406 7.13378906,52.0878906 7.01855469,51.9628906 C6.90332031,51.8378906 6.734375,51.7753906 6.51171875,51.7753906 C6.2890625,51.7753906 6.12207031,51.8378906 6.01074219,51.9628906 C5.89941406,52.0878906 5.84375,52.2441406 5.84375,52.4316406 C5.84375,52.6113281 5.89941406,52.7617188 6.01074219,52.8828125 C6.12207031,53.0039062 6.2890625,53.0644531 6.51171875,53.0644531 Z M14.9730469,53 L14.9730469,52.0800781 L10.0921875,52.0800781 L14.7855469,45.2949219 L14.7855469,44.46875 L8.83828125,44.46875 L8.83828125,45.3945312 L13.4378906,45.3945312 L8.76210937,52.15625 L8.76210937,53 L14.9730469,53 Z M17.7390625,53 L17.7390625,44.46875 L16.6140625,44.46875 L16.6140625,53 L17.7390625,53 Z M21.0207031,53 L21.0207031,49.6601562 L23.0304687,49.6601562 C23.9953125,49.6601562 24.7365234,49.4365234 25.2541016,48.9892578 C25.7716797,48.5419922 26.0304687,47.9042969 26.0304687,47.0761719 C26.0304687,46.2910156 25.7658203,45.6601562 25.2365234,45.1835938 C24.7072266,44.7070312 23.9757812,44.46875 23.0421875,44.46875 L23.0421875,44.46875 L19.8957031,44.46875 L19.8957031,53 L21.0207031,53 Z M23.0421875,48.7402344 L21.0207031,48.7402344 L21.0207031,45.3945312 L23.1066406,45.3945312 C23.6652344,45.40625 24.1046875,45.5644531 24.425,45.8691406 C24.7453125,46.1738281 24.9054687,46.5800781 24.9054687,47.0878906 C24.9054687,47.6230469 24.7453125,48.0322266 24.425,48.3154297 C24.1046875,48.5986328 23.64375,48.7402344 23.0421875,48.7402344 L23.0421875,48.7402344 Z" id=".ZIP" fill="#163F89" fill-rule="nonzero"></path>
                    <line x1="39" y1="13.5" x2="39" y2="15.5" id="Line" stroke="#163F89" stroke-width="1.3" stroke-linecap="round" stroke-linejoin="round"></line>
                    <line x1="39" y1="18.5" x2="39" y2="20.5" id="Line-Copy" stroke="#163F89" stroke-width="1.3" stroke-linecap="round" stroke-linejoin="round"></line>
                    <line x1="39" y1="23.5" x2="39" y2="25.5" id="Line-Copy-2" stroke="#163F89" stroke-width="1.3" stroke-linecap="round" stroke-linejoin="round"></line>
                </g>
            </g>
        </g>
    </g>
</svg>