<svg width="17" height="23" aria-hidden="true" focusable="false" xmlns="http://www.w3.org/2000/svg">
<path fill-rule="nonzero" d="M4.75 3.5v1H1.5v17h14v-17h-1.49v-1H16a.5.5 0 01.5.41V22a.5.5 0 01-.41.5H1a.5.5 0 01-.5-.41V4a.5.5 0 01.41-.5h3.84zm7.55 7.73c.18.17.2.44.08.64l-.06.07-4.5 4.83a.5.5 0 01-.67.06l-.07-.06-2.33-2.5a.5.5 0 01.66-.74l.07.06 1.97 2.1 4.14-4.43a.5.5 0 01.7-.03zM5 .5c.84 0 1.44.84 1.5 1.84V5.5c0 1.07-.62 2-1.5 2-.84 0-1.44-.84-1.5-1.84V5.5h1c0 .58.28 1 .5 1 .2 0 .45-.35.5-.86V2.5c0-.58-.28-1-.5-1-.2 0-.45.35-.5.86v.14h-1c0-1.07.62-2 1.5-2zm7 0c.84 0 1.44.84 1.5 1.84V5.5c0 1.07-.62 2-1.5 2-.84 0-1.44-.84-1.5-1.84V5.5h1c0 .58.28 1 .5 1 .2 0 .45-.35.5-.86V2.5c0-.58-.28-1-.5-1-.2 0-.45.35-.5.86v.14h-1c0-1.07.62-2 1.5-2zm-.8 3v1H7.5v-1h3.7z"/>
</svg>