<svg width="20" height="20" aria-hidden="true" focusable="false" xmlns="http://www.w3.org/2000/svg"><path d="M17.65 10a.65.65 0 01-.554.643L17 10.65H3a.65.65 0 01-.096-1.293L3 9.35h14a.65.65 0 01.65.65zm-4.122 5.62a.65.65 0 010 .76l-.068.08-.08.068a.65.65 0 01-.76 0l-.08-.068L10 13.919l-2.54 2.54-.08.07a.65.65 0 01-.908-.908l.068-.08 3-3 .08-.07a.65.65 0 01.76 0l.08.07 3 3 .068.08zm0-11.24l-.068.08-3 3a.65.65 0 01-.84.068l-.08-.068-3-3a.65.65 0 01.84-.988l.08.068L10 6.081l2.54-2.54a.65.65 0 01.84-.07l.08.07a.65.65 0 01.068.838z" fill-rule="nonzero"/></svg>
