<svg width="20" height="20" aria-hidden="true" focusable="false" xmlns="http://www.w3.org/2000/svg">
  <path fill-rule="nonzero" d="M8 3.6c0 .3 0 .5-.3.7h-.1l-2 .5-2.4 5.3 1 5.6L8.8 14h.4l6 2.7 1-4.1-.2-1.5c0-.3.1-.6.4-.7.4 0 .6.1.7.4l.4 1.7v.2l-1.3 5c-.1.4-.5.5-.8.5l-6.4-3L4 17c-.4.1-.7 0-.8-.3v-.1L2 10V9.8L4.7 4c0-.2.2-.3.3-.4l2.4-.6c.3 0 .6.1.7.5zM16 2l1.4 1.5c.2.1.2.4.1.6L11 10.6l-.2.2L9 11a.5.5 0 01-.6-.5v-.1l.3-1.7.1-.2L15.4 2c.2-.2.5-.2.7-.1zM15.7 3l-6 6v.8l.8-.2 5.9-5.9-.7-.7z"/>
</svg>
