<svg width="20" height="20" aria-hidden="true" focusable="false" xmlns="http://www.w3.org/2000/svg"><path d="M3.976 4.85H16l.105.008.065.015.052.016.126.062.078.058.073.075.04.054.047.08.028.069.025.094.01.076.001 9.043a.65.65 0 01-.554.643L16 15.15H4a.65.65 0 01-.643-.554L3.35 14.5l.001-9.043.01-.077.017-.068.036-.093.049-.085.038-.05a.667.667 0 01.15-.133l.057-.032.07-.03.093-.026.105-.013zM15.35 6.887l-4.934 4.112a.65.65 0 01-.748.06l-.084-.06L4.65 6.888v6.962h10.7V6.887zm-1.147-.737H5.796L10 9.653l4.203-3.503z" fill-rule="nonzero"/></svg>
