<svg xmlns="http://www.w3.org/2000/svg" width="31" height="31"><g fill="none" fill-rule="nonzero"><g stroke="#22447E" stroke-width="1.4" transform="rotate(45 3.55 20.45)"><circle cx="1.5" cy="8.5" r="1.5"/><circle cx="8.5" cy="8.5" r="1.5"/><circle cx="1.5" cy="15.5" r="1.5"/><circle cx="8.5" cy="15.5" r="1.5"/><circle cx="1.5" cy="1.5" r="1.5"/><circle cx="8.5" cy="1.5" r="1.5"/><path stroke-linecap="square" d="M1.5 10v3.5M8.5 10v3.5M1.5 3v3.5M8.5 3v3.5"/><circle cx="15.5" cy="8.5" r="1.5"/><circle cx="15.5" cy="15.5" r="1.5"/><circle cx="15.5" cy="1.5" r="1.5"/><path stroke-linecap="square" d="M15.5 10v3.5M15.5 3v3.5M6 1.5H3M13 1.5h-3M6 8.5H3M13 8.5h-3M6 15.5H3M13 15.5h-3"/></g></g></svg>
