<svg width="20" height="20" aria-hidden="true" focusable="false" xmlns="http://www.w3.org/2000/svg"><path d="M6 11.35a.65.65 0 01.643.554L6.65 12v4a.65.65 0 01-.554.643L6 16.65H3a.65.65 0 01-.643-.554L2.35 16v-4a.65.65 0 01.554-.643L3 11.35h3zm5-7a.65.65 0 01.643.554L11.65 5v11a.65.65 0 01-.554.643L11 16.65H8a.65.65 0 01-.643-.554L7.35 16V5a.65.65 0 01.554-.643L8 4.35h3zm5 4a.65.65 0 01.643.554L16.65 9v7a.65.65 0 01-.554.643L16 16.65h-3a.65.65 0 01-.643-.554L12.35 16V9a.65.65 0 01.554-.643L13 8.35h3zm-10.65 4.3h-1.7v2.7h1.7v-2.7zm5-7h-1.7v9.7h1.7v-9.7zm5 4h-1.7v5.7h1.7v-5.7z" fill-rule="nonzero"/></svg>
