<svg width="20" height="20" aria-hidden="true" focusable="false" xmlns="http://www.w3.org/2000/svg"><path d="M17.856 10.447a.65.65 0 01-.836.091l-.083-.066-1.286-1.221-.001 7.634c0 .036-.003.07-.008.105l.008-.105-.003.062-.017.099-.025.079-.032.067-.04.065-.056.07-.07.066-.062.043-.065.036-.085.033-.099.023-.096.007H5a.65.65 0 01-.643-.554l-.007-.096V9.25l-1.287 1.222-.083.066a.65.65 0 01-.882-.931l.07-.079 7.385-7 .082-.066.071-.042.049-.022.091-.03.08-.014L10 2.35l.096.007.079.017.07.023.082.041.055.036.065.054 7.385 7a.65.65 0 01.024.92zm-3.505 5.788V8.019L10 3.895 5.65 8.018v8.217h8.7z" fill-rule="nonzero"/></svg>
