<svg width="20" height="20" aria-hidden="true" focusable="false" xmlns="http://www.w3.org/2000/svg">
<path fill="#163F89" fill-rule="nonzero" d="M14.58 6.6l.04.1 3.71 9.58a.6.6 0 01-1.07.52l-.05-.08-1.01-2.62h-4.33l-1.03 2.62a.6.6 0 01-.69.37l-.1-.03a.6.6 0 01-.36-.69l.03-.09 3.79-9.59a.6.6 0 011.07-.09zm-7.6-3.45l.06.08.83 1.67h3.63a.6.6 0 01.1 1.2H9.98a8.16 8.16 0 01-2 3.94c-.17.19-.35.38-.54.56.7.5 1.5.92 2.42 1.26A.6.6 0 119.45 13c-1.12-.42-2.1-.95-2.94-1.59a13.17 13.17 0 01-4.28 2.1.6.6 0 01-.34-1.15c1.48-.44 2.7-1.04 3.7-1.76-1.2-1.2-2.01-2.7-2.44-4.49H1.5a.6.6 0 01-.1-1.2h5.13l-.57-1.13A.6.6 0 017 3.15zm7.08 5.41l-1.72 4.34h3.4l-1.68-4.34zM8.74 6.1H4.4a7.95 7.95 0 002.13 3.72c.2-.18.38-.38.56-.57A7.53 7.53 0 008.74 6.1z"/>
</svg>
