<svg width="20" height="20" aria-hidden="true" focusable="false" xmlns="http://www.w3.org/2000/svg"><path d="M10 4.35c2.89 0 5.568 1.785 8.031 5.275a.65.65 0 010 .75C15.568 13.865 12.89 15.65 10 15.65c-2.89 0-5.568-1.785-8.031-5.275a.65.65 0 010-.75C4.432 6.135 7.11 4.35 10 4.35zm0 1.3c-2.164 0-4.261 1.254-6.294 3.82l-.225.291-.179.239.179.239c1.952 2.565 3.965 3.911 6.04 4.09l.239.016.24.005c2.164 0 4.261-1.254 6.294-3.82l.225-.291.178-.239-.178-.239c-1.952-2.565-3.965-3.911-6.04-4.09l-.239-.016L10 5.65zm0 1.2a3.15 3.15 0 110 6.3 3.15 3.15 0 010-6.3zm0 1.3a1.85 1.85 0 100 3.7 1.85 1.85 0 000-3.7z" fill-rule="nonzero"/></svg>
