<svg width="20" height="20" aria-hidden="true" focusable="false" xmlns="http://www.w3.org/2000/svg"><path d="M3.8 3.1l.066.06 13 14a.5.5 0 01-.665.74l-.067-.06-2.057-2.214-1.443.362-.051.01-.056.006h-.064a.535.535 0 01-.107-.016l-3.862-.968-3.86.968a.55.55 0 01-.677-.446l-.007-.087V6.48a.55.55 0 01.328-.504l.088-.03.586-.147L3.134 3.84a.5.5 0 01.665-.74zm13.233 2.292l.007.088v8.975a.55.55 0 01-.329.503l-.088.03-.384.096-.855-.92.555-.139V6.184l-2.889.724v4.742l-1.111-1.197V6.908l-2.888-.724-.001 1.158-1.937-2.086 1.243-.31.05-.01.057-.005h.07a.506.506 0 01.1.015l3.861.967 3.862-.967a.55.55 0 01.677.446zM5.806 6.718l-.756.19v7.842l2.889-.725V9.016L5.806 6.718zm3.244 3.494v3.813l2.89.725-.001-1.427-2.889-3.111z" fill-rule="nonzero"/></svg>
