<svg width="20" height="20" aria-hidden="true" focusable="false" xmlns="http://www.w3.org/2000/svg"><path fill-rule="nonzero" d="M7 2.9a.6.6 0 01.1 1.2H4.6v12.8h10.8V4.1H13a.6.6 0 01-.6-.5v-.1c0-.3.22-.55.5-.6H16c.3 0 .55.22.6.5v14.1a.6.6 0 01-.5.6H4a.6.6 0 01-.6-.5V3.5c0-.3.22-.55.5-.6H7zm5.65 5c.22-.2.56-.2.77.03.2.21.22.53.06.76l-.06.09-4.27 4.57-2.55-2.73a.63.63 0 01-.07-.77l.07-.09a.55.55 0 01.72-.06l.08.06 1.75 1.88 3.5-3.74zM10 1.9a1.6 1.6 0 110 3.2 1.6 1.6 0 010-3.2zm0 1.2a.4.4 0 100 .8.4.4 0 000-.8z"/></svg>
