<svg width="20" height="20" aria-hidden="true" focusable="false" xmlns="http://www.w3.org/2000/svg"><path d="M13.38 12.472l.08.068a.65.65 0 01.068.84l-.068.08-3 3a.65.65 0 01-.84.068l-.08-.068-3-3a.65.65 0 01.84-.988l.08.068L10 15.081l2.54-2.54a.65.65 0 01.84-.07zM17 9.35a.65.65 0 01.096 1.293L17 10.65H3a.65.65 0 01-.096-1.293L3 9.35h14zm-6.62-5.878l.08.068 3 3a.65.65 0 01-.84.988l-.08-.068L10 4.919l-2.54 2.54a.65.65 0 01-.84.07l-.08-.07a.65.65 0 01-.068-.838l.068-.08 3-3a.65.65 0 01.84-.07z" fill-rule="nonzero"/></svg>
