<svg width="20" height="20" aria-hidden="true" focusable="false" xmlns="http://www.w3.org/2000/svg"><path d="M12.463 16.004a.535.535 0 01-.107-.016l-3.862-.968-3.86.968a.55.55 0 01-.677-.446l-.007-.087V6.48a.55.55 0 01.328-.504l.088-.03 3.99-1 .05-.01.057-.005h.07a.506.506 0 01.1.015l3.861.967 3.862-.967a.55.55 0 01.677.446l.007.088v8.975a.55.55 0 01-.329.503l-.088.03-3.99 1-.05.01-.056.006h-.064zm-4.524-9.82l-2.889.724v7.842l2.889-.725V6.184zm1.112 0v7.841l2.889.725V6.908l-2.89-.724zm6.888 0l-2.889.724v7.842l2.889-.725V6.184z" fill-rule="nonzero"/></svg>
