<svg width="155px" height="146px" viewBox="0 0 155 146" xmlns="http://www.w3.org/2000/svg">
  <path fill="#00FFBC" d="M36.2105035,142.953129 C36.7290675,143.928406 36.3588284,145.139403 35.3835515,145.657967 C34.4082745,146.176531 33.1972771,145.806292 32.6787132,144.831015 C32.1601492,143.855738 32.5303882,142.644741 33.5056652,142.126177 C34.4809422,141.607613 35.6919396,141.977852 36.2105035,142.953129 Z M96.1667718,115.973726 C96.6853357,116.949003 96.3150967,118.16 95.3398197,118.678564 C94.3645427,119.197128 93.1535454,118.826889 92.6349814,117.851612 C92.1164174,116.876335 92.4866565,115.665338 93.4619334,115.146774 C94.4372104,114.62821 95.6482078,114.998449 96.1667718,115.973726 Z M29.4482527,112.916483 C30.5516221,112.916483 31.4460661,113.810897 31.4460661,114.914195 C31.4460661,116.017493 30.5516221,116.911906 29.4482527,116.911906 C28.3448832,116.911906 27.4504392,116.017493 27.4504392,114.914195 C27.4504392,113.810897 28.3448832,112.916483 29.4482527,112.916483 Z M31.9482527,98.9271633 C34.432334,98.9271633 36.4460661,100.940827 36.4460661,103.42479 C36.4460661,105.908753 34.432334,107.922416 31.9482527,107.922416 C29.4641713,107.922416 27.4504392,105.908753 27.4504392,103.42479 C27.4504392,100.940827 29.4641713,98.9271633 31.9482527,98.9271633 Z M44.4373197,103.923349 C45.5406892,103.923349 46.4351331,104.817763 46.4351331,105.921061 C46.4351331,107.024358 45.5406892,107.918772 44.4373197,107.918772 C43.3339502,107.918772 42.4395063,107.024358 42.4395063,105.921061 C42.4395063,104.817763 43.3339502,103.923349 44.4373197,103.923349 Z M122.381926,86.9363175 C123.485925,86.9363175 124.485459,87.3835501 125.2078,88.1078785 C123.570586,88.6080698 122.37974,90.1308356 122.37974,91.9317404 C122.37974,93.0369586 122.828248,94.0374214 123.554563,94.7613499 C123.18372,94.8748854 122.789958,94.9359774 122.381926,94.9359774 C120.17278,94.9359774 118.381926,93.1451849 118.381926,90.9361475 C118.381926,88.72711 120.17278,86.9363175 122.381926,86.9363175 Z M126.377553,89.934029 C127.480922,89.934029 128.375366,90.8284425 128.375366,91.9317404 C128.375366,92.9848885 127.560388,93.84771 126.526653,93.9239724 L126.377553,93.9294519 C125.274183,93.9294519 124.37974,93.0350384 124.37974,91.9317404 C124.37974,90.8785924 125.194718,90.0157709 126.228453,89.9395085 L126.377553,89.934029 Z M69.6430471,79.2670276 C70.1896082,80.8238902 71.6725402,81.9401318 73.4161827,81.9401318 C74.2394837,81.9401318 75.0046599,81.6912686 75.6411899,81.2634641 C76.1328696,82.037238 76.4176404,82.9553802 76.4176404,83.9400297 C76.4176404,86.7001256 74.1800507,88.9376391 71.419827,88.9376391 C68.6596033,88.9376391 66.4220136,86.7001256 66.4220136,83.9400297 C66.4220136,81.8788199 67.6699042,80.1090512 69.4514409,79.344958 L69.6430471,79.2670276 Z M127.376824,81.9401318 C128.480194,81.9401318 129.374638,82.8345453 129.374638,83.9378432 C129.374638,85.0411412 128.480194,85.9355547 127.376824,85.9355547 C126.273455,85.9355547 125.379011,85.0411412 125.379011,83.9378432 C125.379011,82.8345453 126.273455,81.9401318 127.376824,81.9401318 Z M140.134702,81.9996629 C140.653266,82.9749399 140.283027,84.1859373 139.30775,84.7045013 C138.332473,85.2230652 137.121475,84.8528262 136.602911,83.8775492 C136.084347,82.9022722 136.454586,81.6912749 137.429863,81.1727109 C138.40514,80.6541469 139.616138,81.024386 140.134702,81.9996629 Z M40.2075881,81.0004258 C40.726152,81.9757028 40.355913,83.1867001 39.380636,83.7052641 C38.405359,84.2238281 37.1943617,83.853589 36.6757977,82.878312 C36.1572337,81.9030351 36.5274728,80.6920377 37.5027498,80.1734737 C38.4780267,79.6549098 39.6890241,80.0251488 40.2075881,81.0004258 Z M52.9009604,80.8238422 C53.1602424,81.3114807 52.9751228,81.9169794 52.4874843,82.1762614 C51.9998459,82.4355434 51.3943472,82.2504238 51.1350652,81.7627853 C50.8757832,81.2751468 51.0609027,80.6696482 51.5485412,80.4103662 C52.0361797,80.1510842 52.6416784,80.3362037 52.9009604,80.8238422 Z M73.4161827,75.9447089 C74.5195522,75.9447089 75.4139961,76.8391224 75.4139961,77.9424203 C75.4139961,79.0457183 74.5195522,79.9401318 73.4161827,79.9401318 C72.3128132,79.9401318 71.4183693,79.0457183 71.4183693,77.9424203 C71.4183693,76.8391224 72.3128132,75.9447089 73.4161827,75.9447089 Z M154.124498,74.0057657 C154.643062,74.9810427 154.272823,76.1920401 153.297546,76.7106041 C152.322269,77.229168 151.111271,76.858929 150.592707,75.883652 C150.074143,74.908375 150.444382,73.6973777 151.419659,73.1788137 C152.394936,72.6602497 153.605934,73.0304888 154.124498,74.0057657 Z M136.839736,67.8337593 C137.099018,68.3213978 136.913898,68.9268964 136.42626,69.1861784 C135.938621,69.4454604 135.333123,69.2603409 135.073841,68.7727024 C134.814559,68.2850639 134.999678,67.6795652 135.487317,67.4202832 C135.974955,67.1610013 136.580454,67.3461208 136.839736,67.8337593 Z M116.886299,58.9576773 C119.370381,58.9576773 121.384113,60.9713409 121.384113,63.4553038 C121.384113,65.9392666 119.370381,67.9529302 116.886299,67.9529302 C114.402218,67.9529302 112.388486,65.9392666 112.388486,63.4553038 C112.388486,60.9713409 114.402218,58.9576773 116.886299,58.9576773 Z M97.459018,58.1902564 C98.434295,57.6716925 99.6452923,58.0419315 100.163856,59.0172085 C100.68242,59.9924855 100.312181,61.2034828 99.3369042,61.7220468 C98.3616273,62.2406108 97.1506299,61.8703717 96.6320659,60.8950948 C96.113502,59.9198178 96.483741,58.7088204 97.459018,58.1902564 Z M51.6787732,48.9008893 C53.4937471,52.3143587 52.1979105,56.5528495 48.784441,58.3678233 C45.3709716,60.1827972 41.1324808,58.8869606 39.3175069,55.4734911 C37.5025331,52.0600217 38.7983697,47.8215309 42.2118392,46.006557 C45.6253086,44.1915832 49.8637994,45.4874198 51.6787732,48.9008893 Z M91.4633912,55.192545 C92.4386681,54.673981 93.6496655,55.0442201 94.1682295,56.0194971 C94.6867934,56.994774 94.3165544,58.2057714 93.3412774,58.7243354 C92.3660004,59.2428993 91.1550031,58.8726603 90.6364391,57.8973833 C90.1178751,56.9221063 90.4881142,55.711109 91.4633912,55.192545 Z M19.4555413,53.9614916 C20.5589108,53.9614916 21.4533547,54.8559051 21.4533547,55.959203 C21.4533547,57.062501 20.5589108,57.9569145 19.4555413,57.9569145 C18.3521718,57.9569145 17.4577279,57.062501 17.4577279,55.959203 C17.4577279,54.8559051 18.3521718,53.9614916 19.4555413,53.9614916 Z M8.47415733,46.4685845 C9.64092626,48.6629577 8.8078884,51.3877018 6.6135152,52.5544707 C4.41914199,53.7212396 1.69439793,52.8882018 0.527628995,50.6938286 C-0.639139935,48.4994554 0.193897924,45.7747113 2.38827113,44.6079424 C4.58264434,43.4411734 7.3073884,44.2742113 8.47415733,46.4685845 Z M99.4103518,22.9698829 C104.931999,22.9698829 109.408165,27.4458966 109.408165,32.9673223 C109.408165,38.488748 104.931999,42.9647616 99.4103518,42.9647616 C93.8887043,42.9647616 89.4125384,38.488748 89.4125384,32.9673223 C89.4125384,27.4458966 93.8887043,22.9698829 99.4103518,22.9698829 Z M133.372451,37.9736972 C134.47582,37.9736972 135.370264,38.8681107 135.370264,39.9714086 C135.370264,41.0747066 134.47582,41.9691201 133.372451,41.9691201 C132.269081,41.9691201 131.374638,41.0747066 131.374638,39.9714086 C131.374638,38.8681107 132.269081,37.9736972 133.372451,37.9736972 Z M71.4169116,37.9736972 C71.9679963,37.9736972 72.414725,38.4204107 72.414725,38.9714427 C72.414725,39.5224746 71.9679963,39.9691881 71.4169116,39.9691881 C70.8658268,39.9691881 70.4190981,39.5224746 70.4190981,38.9714427 C70.4190981,38.4204107 70.8658268,37.9736972 71.4169116,37.9736972 Z M57.1951974,30.0393312 C57.7137614,31.0146082 57.3435223,32.2256055 56.3682453,32.7441695 C55.3929684,33.2627335 54.181971,32.8924944 53.663407,31.9172174 C53.1448431,30.9419404 53.5150821,29.7309431 54.4903591,29.2123791 C55.4656361,28.6938151 56.6766334,29.0640542 57.1951974,30.0393312 Z M77.4132672,26.9820885 C78.5166367,26.9820885 79.4110806,27.876502 79.4110806,28.9798 C79.4110806,30.083098 78.5166367,30.9775114 77.4132672,30.9775114 C76.3098977,30.9775114 75.4154538,30.083098 75.4154538,28.9798 C75.4154538,27.876502 76.3098977,26.9820885 77.4132672,26.9820885 Z M29.4588512,20.4884186 C30.6256201,22.6827918 29.7925823,25.4075359 27.5982091,26.5743048 C25.4038359,27.7410738 22.6790918,26.9080359 21.5123229,24.7136627 C20.3455539,22.5192895 21.1785918,19.7945454 23.372965,18.6277765 C25.5673382,17.4610076 28.2920823,18.2940454 29.4588512,20.4884186 Z M119.382655,12.9927685 C120.486024,12.9927685 121.380468,13.887182 121.380468,14.9904799 C121.380468,16.0937779 120.486024,16.9881914 119.382655,16.9881914 C118.279286,16.9881914 117.384842,16.0937779 117.384842,14.9904799 C117.384842,13.887182 118.279286,12.9927685 119.382655,12.9927685 Z M80.2504953,5.36845882 C80.8672319,5.76302551 81.5830963,5.9820006 82.3150154,5.99998608 L82.5148551,5.99989174 L82.7151161,5.98972763 C82.8456756,5.97979814 82.9762654,5.96338135 83.1064198,5.94033493 L83.176247,6.05763958 C83.6948109,7.03291656 83.3245719,8.24391393 82.3492949,8.76247789 C81.3740179,9.28104186 80.1630206,8.91080282 79.6444566,7.93552583 C79.1752797,7.05313238 79.4336717,5.9777796 80.2094668,5.39688861 L80.2504953,5.36845882 Z M72.4772396,4.23145037 C73.4525165,3.7128864 74.6635139,4.08312545 75.1820779,5.05840243 C75.7006418,6.03367941 75.3304028,7.24467678 74.3551258,7.76324075 C73.3798488,8.28180471 72.1688515,7.91156567 71.6502875,6.93628869 C71.1317235,5.9610117 71.5019626,4.75001434 72.4772396,4.23145037 Z M82.342711,0.0010659911 C83.0814301,-0.0231061712 83.8051153,0.364827421 84.1755181,1.06145384 C84.6940821,2.03673082 84.323843,3.24772818 83.348566,3.76629215 C83.1163572,3.88975976 82.8707856,3.96284171 82.6243789,3.98936812 L82.4765348,3.99972793 C81.7378158,4.02390009 81.0141306,3.6359665 80.6437277,2.93934009 C80.1251638,1.96406311 80.4954028,0.753065745 81.4706798,0.234501776 C81.7028886,0.111034164 81.9484602,0.0379522109 82.194867,0.0114258078 L82.342711,0.0010659911 Z M23.451897,0.00268551298 C24.0029817,0.00268551298 24.4497104,0.449398986 24.4497104,1.00043097 C24.4497104,1.55146296 24.0029817,1.99817643 23.451897,1.99817643 C22.9008122,1.99817643 22.4540836,1.55146296 22.4540836,1.00043097 C22.4540836,0.449398986 22.9008122,0.00268551298 23.451897,0.00268551298 Z" ></path>
</svg>
