
<svg width="161px" height="110px" viewBox="0 0 161 110" version="1.1" xmlns="http://www.w3.org/2000/svg">
  <g id="Group" transform="translate(1.000000, 1.255295)" stroke="#FF64CE" stroke-width="2" stroke-linecap="round" stroke-linejoin="round" fill="none">
    <polyline points="9.04655165 95.9125633 31.0310201 89.7965337 53.0154886 75.6805041 57.8221663 47.3384111 77.8080467 22.8759845 105.356266 19.977664 135.413306 38.4125633 146.505001 62.9125633 139.790067 82.9125633 129.016985 66.4125633 151.928396 37.3384111 159 12.9125633"></polyline>
    <polyline points="0 62.3385766 28.4718732 57.7023843 49.0572998 45.3228974 35.775744 41.7351214 11.5511744 48.0907254 28.4718732 50.4504972 59.1968728 53.9694804 78.5424483 48.7096036 96.7798868 26.214548 113.69692 13.020389 136.87939 0"></polyline>
    <polyline points="6.05869742 106.822897 12.5146173 105.822897 22.7679771 99.8228974 36.1553966 94.8228974 48.4163073 90.3228974 63.9998881 84.3228974 75.7909732 78.3228974 84.173246 68.8228974 97.0145746 73.8228974"></polyline>
  </g>
</svg>
