<svg width="159" height="153" viewBox="0 0 159 153" xmlns="http://www.w3.org/2000/svg"><g style="mix-blend-mode:multiply" transform="translate(1.117 1.259)" fill="#00FFBC" stroke="#FFF" fill-rule="evenodd"><circle cx="73.057" cy="42.057" r="3"/><circle transform="rotate(-118 53.057 82.057)" cx="53.057" cy="82.057" r="3"/><circle transform="rotate(-118 4.057 54.057)" cx="4.057" cy="54.057" r="3"/><circle transform="rotate(-118 35.057 146.057)" cx="35.057" cy="146.057" r="3"/><circle transform="rotate(-118 153.057 77.057)" cx="153.057" cy="77.057" r="3"/><circle transform="rotate(-118 137.057 69.057)" cx="137.057" cy="69.057" r="3"/><circle transform="rotate(-118 95.057 119.057)" cx="95.057" cy="119.057" r="3"/><circle transform="rotate(-118 139.057 85.057)" cx="139.057" cy="85.057" r="3"/><circle transform="rotate(-118 99.057 62.057)" cx="99.057" cy="62.057" r="3"/><circle transform="rotate(-118 93.057 59.057)" cx="93.057" cy="59.057" r="3"/><circle transform="rotate(-118 83.057 4.057)" cx="83.057" cy="4.057" r="3"/><circle transform="rotate(-118 83.057 4.057)" cx="83.057" cy="4.057" r="3"/><circle transform="rotate(-118 74.057 8.057)" cx="74.057" cy="8.057" r="3"/><circle transform="rotate(-118 82.057 9.057)" cx="82.057" cy="9.057" r="3"/><circle transform="rotate(-118 56.057 33.057)" cx="56.057" cy="33.057" r="3"/><circle transform="rotate(-118 39.057 84.057)" cx="39.057" cy="84.057" r="3"/><circle transform="rotate(-118 54.057 71.057)" cx="54.057" cy="71.057" r="3"/><circle transform="rotate(-118 25.057 28.057)" cx="25.057" cy="28.057" r="3"/><circle cx="120.057" cy="17.057" r="3"/><circle cx="25.057" cy="4.057" r="3"/><circle cx="30.057" cy="117.057" r="3"/><circle cx="45.057" cy="108.057" r="3"/><circle cx="20.057" cy="58.057" r="3"/><circle cx="30.057" cy="103.057" r="3"/><circle cx="69.057" cy="83.057" r="3"/><circle cx="74.057" cy="80.057" r="3"/><circle cx="127.057" cy="94.057" r="3"/><circle cx="127.057" cy="94.057" r="3"/><circle cx="128.057" cy="86.057" r="3"/><circle cx="124.057" cy="91.057" r="3"/><circle cx="115.057" cy="63.057" r="3"/><circle cx="78.057" cy="31.057" r="3"/><circle cx="82.057" cy="47.057" r="3"/><circle cx="134.057" cy="42.057" r="3"/></g></svg>