<svg width="137" height="129" viewBox="0 0 137 129" xmlns="http://www.w3.org/2000/svg">
  <g style="mix-blend-mode:multiply" stroke="#FF6954" stroke-width="2" stroke-linejoin="round" fill="none" fill-rule="evenodd">
    <path d="M49.68 63.426l26.381-17.99-4.508-25.979L38.846 8.704 26.466 42.29z"/>
    <path d="M76.061 45.437l-4.374-25.694L87.183 1l28.527 18.743-19.557 38.44zm21.642 37.257l-1.55-24.51-20.092-12.747L49.68 63.426l21.873 28.342z"/>
    <path d="M36.084 95.027l35.603-3.26-22.007-28.34-25.5 11.36-2.48 16.982zm60.069-36.843h39.028L119.983 42.29l-4.273-22.547z"/>
    <path d="M96.153 58.184l1.55 24.51 11.121 17.472 19.838-14.638-3.75-13.851 10.269-13.493zm-24.6 33.584l-9.619 19.863L86.582 128l19.838-19.762 2.404-8.072-11.121-17.472zm0 0l-35.469 3.259-5.451 12.505 17.3 11.056 14.001-6.957zM49.68 63.426L26.466 42.29 1 45.437l6.12 26.356 17.06 2.993z"/>
  </g>
</svg>
