<svg xmlns="http://www.w3.org/2000/svg" width="20" height="20"><path fill="#FFF" d="M11.344 2.844l.05.002.133.017c.293.062.494.266.592.572l.032.12.211 1.478.25.129.247.144.243.159 1.458-.573.112-.029a.78.78 0 01.79.289l.064.097 1.363 2.349.051.11c.125.32.06.643-.166.86l-.092.077-1.192.926.009.252v.298l-.005.22-.004.087 1.211.943.092.082c.232.245.264.561.133.87l-.056.116-1.365 2.346-.068.094c-.204.24-.493.317-.813.245l-.12-.034-1.408-.558-.218.143c-.096.06-.189.116-.279.167l-.133.072-.105.052-.226 1.554-.04.127a.78.78 0 01-.64.502l-.111.007-2.738-.002-.133-.017c-.293-.062-.494-.266-.592-.572l-.032-.12-.212-1.479-.249-.128-.247-.144-.244-.16-1.457.574-.112.029a.78.78 0 01-.79-.289l-.064-.097-1.363-2.349-.051-.11c-.125-.32-.06-.643.166-.86l.092-.077 1.191-.927-.008-.25v-.3l.005-.22.003-.087-1.21-.942-.092-.082c-.232-.245-.264-.561-.133-.87l.056-.116 1.365-2.346.068-.094c.204-.24.493-.317.813-.245l.12.034 1.407.557.22-.142c.095-.06.188-.116.278-.167l.133-.072.104-.053.227-1.553.04-.127a.78.78 0 01.64-.502l.111-.007h2.688zm-.16.999H8.817l-.27 1.889-.268.107c-.178.072-.39.184-.628.334l-.183.12-.434.302-1.777-.705-1.199 2.064 1.51 1.173-.042.287-.016.18a5.954 5.954 0 00-.009.253L5.5 10c0 .175.004.32.01.428l.018.17.033.28-1.503 1.167 1.199 2.064 1.79-.71.225.173c.193.147.392.277.592.387l.2.104.486.22.265 1.873h2.367l.27-1.888.269-.107c.178-.072.39-.184.628-.334l.183-.12.434-.302 1.776.704 1.199-2.064-1.508-1.172.04-.287.017-.18c.004-.072.007-.156.009-.253L14.5 10c0-.175-.004-.32-.01-.428l-.018-.17-.033-.28 1.502-1.168-1.199-2.064-1.79.71-.224-.172a4.772 4.772 0 00-.592-.387l-.2-.104-.486-.22-.266-1.874zM10 7.156c.779 0 1.458.282 2.01.834.552.552.834 1.231.834 2.01 0 .779-.282 1.458-.834 2.01a2.757 2.757 0 01-2.01.834 2.757 2.757 0 01-2.01-.834A2.757 2.757 0 017.156 10c0-.779.282-1.458.834-2.01A2.757 2.757 0 0110 7.156zm0 1c-.513 0-.938.177-1.303.541-.364.365-.54.79-.54 1.303 0 .513.176.938.54 1.303.365.364.79.54 1.303.54.513 0 .938-.176 1.303-.54.364-.365.54-.79.54-1.303 0-.513-.176-.938-.54-1.303A1.758 1.758 0 0010 8.157z"/></svg>