<?xml version="1.0" encoding="UTF-8"?>
<svg width="10px" height="10px" viewBox="0 0 10 10" version="1.1" xmlns="http://www.w3.org/2000/svg" xmlns:xlink="http://www.w3.org/1999/xlink">
    <title>close</title>
    <g id="Page-1" stroke="none" stroke-width="1" fill="none" fill-rule="evenodd">
        <g id="close" fill="#F45D5E" fill-rule="nonzero">
            <path d="M8.99950309,0.119622934 C9.250425,-0.061782221 9.59590693,-0.0342790828 9.81496775,0.184540475 C10.0340286,0.403360033 10.0619124,0.748811446 9.88078383,0.999933108 L9.81478483,1.07757899 L5.89269728,4.99966654 L9.81381426,8.92078352 C10.0456116,9.15305611 10.0606415,9.52424246 9.84838231,9.77449556 C9.63612311,10.0247487 9.26746002,10.070495 9.00047366,9.87971015 L8.92282778,9.81371115 L5.00074023,5.8916236 L1.07962325,9.81274058 L1.00197737,9.88068072 C0.750915979,10.0632974 0.404309037,10.0361143 0.184786043,9.8165913 C-0.03473695,9.5970683 -0.0619201057,9.25046136 0.12069662,8.99939997 L0.186695619,8.92175409 L4.10878317,4.99966654 L0.187666192,1.07854956 C-0.0441311849,0.84627697 -0.0591610651,0.475090617 0.153098139,0.224837523 C0.365357343,-0.0254155722 0.734020435,-0.0711619333 1.00100679,0.119622934 L1.07865267,0.185621933 L5.00074023,4.10770949 L8.92185721,0.186592506 L8.99950309,0.118652361 L8.99950309,0.119622934 Z" id="Path"></path>
        </g>
    </g>
</svg>