<svg width="20" height="20" aria-hidden="true" focusable="false" xmlns="http://www.w3.org/2000/svg"><path d="M4.51 6.174V5.87c0-.48.41-.87.915-.87h1.83c.505 0 .915.39.915.87v.304h8.235c.329 0 .595.253.595.565v8.696c0 .312-.266.565-.595.565H3.595C3.266 16 3 15.747 3 15.435V6.739c0-.312.266-.565.595-.565h.915zm-.32 1.13v7.566h11.62V7.304H4.19zm5.81.609c1.845 0 3.34 1.421 3.34 3.174s-1.495 3.174-3.34 3.174c-1.845 0-3.34-1.421-3.34-3.174S8.155 7.913 10 7.913zm0 1.13c-1.188 0-2.15.915-2.15 2.044S8.812 13.13 10 13.13s2.15-.914 2.15-2.043-.962-2.044-2.15-2.044z" stroke="#163F89" stroke-width=".1" fill-rule="nonzero"/></svg>
