<svg width="24" height="24" aria-hidden="true" focusable="false" xmlns="http://www.w3.org/2000/svg">
<path d="M13 .5a.5.5 0 01.5.41v9.59H20a.5.5 0 01.5.41V15.56l.68-.29.67-.3.94-.43c.33-.15.71.1.71.46a8.5 8.5 0 01-8.24 8.5H4a3.5 3.5 0 01-3.5-3.3V19c0-.3.25-.52.55-.5 3.16.29 6.33.21 9.45-.23v-.1L4 9.72v2.84a2 2 0 11-2.5 1.94.5.5 0 111 0 1 1 0 101-1A.5.5 0 013 13V8.43L.6 5.3a.5.5 0 01.74-.67l.06.07 9.1 11.83V11a.5.5 0 01.41-.5h1.59V6.34L7.82 4.46a.5.5 0 01-.09-.88l.09-.04 4.68-1.88V1c0-.28.22-.5.5-.5zm9.46 15.3l-.2.08a42.25 42.25 0 01-20.64 3.67H1.5V20a2.5 2.5 0 002.17 2.48l.17.01.16.01h11a7.5 7.5 0 007.4-6.3l.04-.24.02-.17zm-2.96-4.3h-8v6.62l.5-.08a41.25 41.25 0 007.5-2.08V11.5zM14 13a1 1 0 110 2 1 1 0 010-2zm3 0a1 1 0 110 2 1 1 0 010-2zM12.5 2.74L9.35 4l3.15 1.26V2.74z"/>
</svg>