<?xml version="1.0" encoding="UTF-8"?>
<svg width="20px" height="20px" viewBox="0 0 20 20" version="1.1" xmlns="http://www.w3.org/2000/svg" xmlns:xlink="http://www.w3.org/1999/xlink">
    <title>compare</title>
    <g id="compare" stroke="none" stroke-width="1" fill="none" fill-rule="evenodd">
        <path d="M13.5281564,14.9709489 C13.6906145,15.1967327 13.6906145,15.5032673 13.5281564,15.7290511 L13.4596194,15.8096194 L13.3790511,15.8781564 C13.1532673,16.0406145 12.8467327,16.0406145 12.6209489,15.8781564 L12.5403806,15.8096194 L10,13.269 L7.45961941,15.8096194 L7.37905111,15.8781564 C7.12504434,16.0609218 6.7688373,16.0380761 6.54038059,15.8096194 C6.31192388,15.5811627 6.28907821,15.2249557 6.47184358,14.9709489 L6.54038059,14.8903806 L9.54038059,11.8903806 L9.62094889,11.8218436 C9.84673269,11.6593855 10.1532673,11.6593855 10.3790511,11.8218436 L10.4596194,11.8903806 L13.4596194,14.8903806 L13.5281564,14.9709489 Z M13.5281564,5.02905111 L13.4596194,5.10961941 L10.4596194,8.10961941 C10.2311627,8.33807612 9.87495566,8.36092179 9.62094889,8.17815642 L9.54038059,8.10961941 L6.54038059,5.10961941 C6.2865398,4.85577862 6.2865398,4.44422138 6.54038059,4.19038059 C6.7688373,3.96192388 7.12504434,3.93907821 7.37905111,4.12184358 L7.45961941,4.19038059 L10,6.731 L12.5403806,4.19038059 C12.7688373,3.96192388 13.1250443,3.93907821 13.3790511,4.12184358 L13.4596194,4.19038059 C13.6880761,4.4188373 13.7109218,4.77504434 13.5281564,5.02905111 Z" id="Shape" fill="#163F89" fill-rule="nonzero"></path>
    </g>
</svg>