<svg width="20" height="20" aria-hidden="true" focusable="false" xmlns="http://www.w3.org/2000/svg"><path d="M14.739 5.97v9.642c0 .427-.156.804-.468 1.13-.311.327-.67.49-1.078.49H7.08c-.407 0-.767-.163-1.078-.49a1.588 1.588 0 01-.468-1.13V5.97h9.205zm-1.001.999H6.534v8.643c0 .133.035.243.119.355l.072.085c.102.107.188.158.282.174l.073.006h6.113c.125 0 .227-.046.355-.18a.615.615 0 00.184-.344l.007-.096-.001-8.643zm-1.696-4.201l.791.79h2.66v1.62H4.78v-1.62h2.66l.792-.79h3.811z" fill-rule="nonzero"/></svg>
