<svg width="20" height="20" aria-hidden="true" focusable="false" xmlns="http://www.w3.org/2000/svg"><path d="M15.43 13.35a.65.65 0 01.642.554l.007.096v2.006a.65.65 0 01-.554.643l-.096.007H4.571a.65.65 0 01-.643-.554l-.007-.096V14a.65.65 0 011.293-.096L5.22 14l-.001 1.355h9.559V14a.65.65 0 01.554-.643l.096-.007zM10 3.83a.65.65 0 01.643.554l.007.096v7.269l1.709-1.709a.65.65 0 01.988.84l-.069.08-2.818 2.818a.65.65 0 01-.84.069l-.08-.069-2.818-2.818a.65.65 0 01.839-.988l.08.068L9.35 11.75v-7.27a.65.65 0 01.65-.65z" fill-rule="nonzero"/></svg>
