<svg width="20" height="20" aria-hidden="true" focusable="false" xmlns="http://www.w3.org/2000/svg"><path d="M8.51 16.103l-.056.028-.054.022-.072.021-4.596 1.06a.65.65 0 01-.78-.779l1.067-4.62a.648.648 0 01.016-.051l-.022.075.018-.063.04-.094a.617.617 0 01.082-.122l9.226-9.227a.65.65 0 01.839-.068l.08.068 3.536 3.536a.65.65 0 01.069.838l-.069.081-9.175 9.176a.634.634 0 01-.15.12zm-3.495-2.81l-.562 2.442 2.44-.564-1.878-1.877zM15.697 5.59l-8.273 8.273.758.758 8.273-8.273-.758-.758zM13.84 3.73l-8.273 8.273.938.939 8.273-8.273-.938-.939z" fill-rule="nonzero"/></svg>
