<svg xmlns="http://www.w3.org/2000/svg" width="20" height="22">
  <path fill="#163F89" fill-rule="nonzero" d="M19.5 0c.28 0 .5.22.5.5v18c0 .12-.04.25-.15.35l-3 3a.5.5 0 0 1-.25.14l-.1.01h-14a.5.5 0 0 1-.5-.5v-3a.5.5 0 1 1 1 0V21h13v-2.5c0-.28.22-.5.5-.5H19V1H3v7.5a.5.5 0 0 1-.41.5H2.5a.5.5 0 0 1-.5-.5v-8c0-.28.22-.5.5-.5h17Zm-1.2 19H17v1.3l1.3-1.3Zm-5.8-.5a.5.5 0 0 1 0 1h-7a.5.5 0 1 1 0-1h7Zm-6-8.5c.27 0 .5.22.5.5l.04 6a.5.5 0 0 1-.5.5l-2 .01a.5.5 0 0 1-.1 0h-1.9a.5.5 0 0 1-.12 0H.52a.5.5 0 0 1-.5-.5l-.02-2c0-.27.22-.5.5-.5H2L2 12.5c0-.27.22-.5.5-.5H4L4 10.5c0-.27.22-.5.5-.5l2-.01Zm10 6a.5.5 0 0 1 0 1h-7a.5.5 0 1 1 0-1h7ZM2 15l-1 .01.01 1h1v-1Zm2-2-1 .01.02 3h1L4 13Zm2-2-1 .01.04 5h1L6 11Zm10.5 2.5a.5.5 0 0 1 0 1h-7a.5.5 0 1 1 0-1h7Zm0-8.5c.28 0 .5.22.5.5v6a.5.5 0 0 1-.5.5h-7a.5.5 0 0 1-.5-.5v-6c0-.28.22-.5.5-.5h7ZM11 8h-1v3h1V8Zm5 0h-4v3h4V8Zm-9-.5a.5.5 0 1 1 0 1H5.5a.5.5 0 0 1 0-1H7ZM11 6h-1v1h1V6Zm5 0h-4v1h4V6ZM7 5a.5.5 0 1 1 0 1H5.5a.5.5 0 0 1 0-1H7Zm9.5-2.5a.5.5 0 0 1 0 1h-11a.5.5 0 0 1 0-1h11Z"/>
</svg>
