<svg width="22" height="25" aria-hidden="true" focusable="false" xmlns="http://www.w3.org/2000/svg">
<path fill-rule="nonzero" d="M12.48 22.4c.21.13.3.39.22.6l-.04.1-1.01 1.69a.5.5 0 01-.81.07l-.05-.08-.98-1.7a.5.5 0 01.81-.57l.05.08.55.95.58-.96a.5.5 0 01.68-.17zm-7.76-3.9a.5.5 0 01.49.41v2.28l1.28-.64a.5.5 0 01.63.15l.04.08a.5.5 0 01-.14.62l-.08.05-2 1a.5.5 0 01-.72-.37V19c0-.28.22-.5.5-.5zm13 0a.5.5 0 01.49.41v3.17a.5.5 0 01-.64.4l-.08-.03-2-1-.07-.05a.5.5 0 01-.18-.54l.03-.08.05-.08a.5.5 0 01.54-.18l.08.03 1.28.64v-2.28a.5.5 0 01.5-.41zM11.22 6c1.57 0 3.01.68 4.13 1.82l.06.04v.01A8.84 8.84 0 0117.7 14c0 2.45-.89 4.65-2.3 6.13l-.06.05A5.78 5.78 0 0111.22 22a5.78 5.78 0 01-4.14-1.82l-.06-.04.01-.01A8.84 8.84 0 014.72 14c0-2.45.9-4.65 2.31-6.13l.05-.05A5.78 5.78 0 0111.22 6zm1.25 11.53h-2.5l-1.63 2.43c.79.62 1.7 1 2.68 1.04h.2c1.05 0 2.03-.38 2.87-1.04l-1.62-2.43zM7.43 14.5h-1.7c.1 1.9.81 3.6 1.87 4.77L9 17.2l-1.56-2.7zm9.27 0H15l-1.55 2.7 1.38 2.07a7.78 7.78 0 001.87-4.77zm-6.78-3.03l-.26.17L8.3 14l1.36 2.36.25.17h2.61l.26-.17L14.14 14l-1.36-2.36-.26-.17h-2.6zM7.6 8.73a7.78 7.78 0 00-1.87 4.77h1.7l1.56-2.7L7.6 8.73zm7.23 0l-1.38 2.07 1.56 2.7h1.7c-.11-1.9-.82-3.6-1.88-4.77zM7.75 6.17a.5.5 0 11-.75.66c-.56-.63-.97-.88-1.19-.84-.59.12-1.74 1.14-2.81 2.68l-.3.44-.26.4-.24.41c-.67 1.16-.86 1.92-.58 2.17h.02l.1-.07.07-.06.2-.19.4-.38.55-.57.75-.8c.33-.34.67-.21 1.03.1a.5.5 0 01-.5.85l-.03-.01-.66.7-.44.45-.25.25-.24.21-.2.18c-.63.52-.96.51-1.36.19l-.13-.12c-.77-.72-.52-1.88.5-3.58l.28-.44.38-.58.09-.12c1.2-1.73 2.53-2.9 3.44-3.09.67-.13 1.36.28 2.13 1.16zm6.86 0c.77-.88 1.46-1.3 2.13-1.16.86.17 2.11 1.25 3.27 2.85l.17.24.16.24.3.46.28.44c.98 1.63 1.26 2.76.6 3.5l-.1.08-.12.12c-.38.3-.68.32-1.23-.1l-.13-.09-.2-.18-.24-.21-.25-.25-.45-.46-.65-.7-.03.02a.5.5 0 01-.5-.85c.34-.29.65-.42.95-.16l.08.07.75.8.55.56.4.38.2.19.08.06.09.07h.02c.3-.27.06-1.1-.7-2.37l-.12-.2-.27-.41-.3-.44C18.3 7.13 17.14 6.11 16.56 6c-.22-.04-.63.2-1.2.84a.5.5 0 11-.74-.66zM11.2 7c-1.04 0-2.03.38-2.87 1.04l1.62 2.43h2.51l1.62-2.43A4.68 4.68 0 0011.42 7h-.2zm0-6.5c1 0 3 1.87 3 3.14 0 .6-.27 1.3-.8 2.13a.5.5 0 11-.85-.54c.45-.68.66-1.22.66-1.6 0-.69-1.54-2.13-2-2.13-.47 0-2 1.44-2 2.14 0 .37.2.9.65 1.59a.5.5 0 01-.84.54 4.16 4.16 0 01-.81-2.13c0-1.27 2-3.14 3-3.14z"/>
</svg>