<svg xmlns="http://www.w3.org/2000/svg" width="20" height="20">
  <path fill-rule="nonzero" d="M3.42 15.74a.8.8 0 1 1 1.14 1.14.8.8 0 0 1-1.14-1.14ZM17 3.3a2.6 2.6 0 0 1 0 3.68l-.99.99.28.28a.6.6 0 0 1 0 .85l-1.41 1.41a.6.6 0 0 1-.85 0l-.28-.28-5.23 5.23a.6.6 0 0 1-.24.15l-2.18.72a.6.6 0 1 1-.38-1.13l2.05-.69 5.13-5.13-1.98-1.98-5.13 5.13-.67 2.01a.6.6 0 0 1-.67.4l-.1-.02a.6.6 0 0 1-.37-.75l.71-2.15a.6.6 0 0 1 .15-.24l5.23-5.23-.28-.28a.6.6 0 0 1 0-.85l1.41-1.41a.6.6 0 0 1 .85 0l.28.28 1-.99a2.6 2.6 0 0 1 3.67 0Zm-5.37 1.98-.57.57 3.4 3.39.56-.57-3.4-3.39Zm2.54-1.13-.99.99 1.98 1.98 1-1a1.4 1.4 0 0 0-1.99-1.97Z"/>
</svg>
