<svg width="20" height="20" aria-hidden="true" focusable="false" xmlns="http://www.w3.org/2000/svg">
  <g id="Page-1" fill="none" fill-rule="evenodd" stroke="none" stroke-width="1">
    <g id="Group" fill="#22689B" fill-rule="nonzero">
      <path id="Path" d="M0 10.42a10.36 10.36 0 0 0 14.9 9.35s.05 0 0-.06h-.06c-1.07.4-2.19.66-3.43.66a9.44 9.44 0 0 1-9.36-9.49 9.5 9.5 0 0 1 9.44-9.55 9.45 9.45 0 0 1 8.43 5.25s0 .06.05 0c.06 0 0-.05 0-.05A10.36 10.36 0 0 0 0 10.43"/>
      <path id="Path" d="M18.83 14.25v-1.33c-5 2.03-9.95-1.8-14.95-.21.15.4.36.76.61 1.12 4.76-1.07 9.55 2.4 14.34.42"/>
      <path id="Shape" d="M15.87 8.98a.46.46 0 0 1-.46-.46c0-.24.2-.45.46-.45.24 0 .45.2.45.45-.04.27-.19.46-.45.46m-2.14-.15c0-.61.4-1.18 1.03-1.28-.36.3-.57.76-.57 1.28 0 .51.21.97.57 1.27-.63-.1-1.03-.6-1.03-1.27m-2.5-3.22v.88c-1.13.3-2.4.87-3.8 1.88a4.16 4.16 0 0 0-2.39-1.52c.46 1.43.61 2.1.61 2.1s-.15.66-.6 2.08c1.72-.51 2.33-1.48 2.45-1.58 7.1 4.95 10.21-.57 10.21-.57-1.79-2.85-6.49-3.27-6.49-3.27"/>
    </g>
  </g>
</svg>
