<?xml version="1.0" encoding="UTF-8"?>
<svg width="20px" height="20px" viewBox="0 0 20 20" version="1.1" xmlns="http://www.w3.org/2000/svg" xmlns:xlink="http://www.w3.org/1999/xlink">
    <title>duke-logo@2x</title>
    <g id="duke-logo" stroke="none" fill="none">
        <circle id="Oval" fill="#002168" fill-rule="evenodd" cx="10" cy="10" r="10"></circle>
        <path d="M7.03513682,14.9331104 C6.80597015,14.9331104 6.52549751,14.9331104 6.26212687,14.9665552 C5.99875622,15 5.75248756,15 5.55752488,15 C5.47543532,15 5.26337065,15 5.26337065,14.8394649 C5.26337065,14.6789298 5.37966418,14.5652174 5.87220149,14.4849498 C6.23476368,14.4214047 6.61100746,14.3712375 6.61100746,13.4414716 L6.61100746,5.89297659 C6.61100746,5.58862876 5.92692786,5.6187291 5.49595771,5.58862876 C5.06498756,5.55852843 5,5.55852843 5,5.36789298 C5,5.09364548 5.44465174,5.09364548 5.63961443,5.09364548 L7.13432836,5.09364548 C7.54477612,5.09364548 7.93812189,5.06020067 8.34856965,5.04682274 C8.75901741,5.03344482 9.23445274,5 9.76119403,5 C13.2089552,5 16,6.6722408 16,10.5384615 C16,12.9464883 13.7356965,14.9197324 10.9104478,14.9197324 L7.03513682,14.9331104 Z M8.02021144,12.9264214 C8.02021144,14.0501672 9.04633085,14.548495 10.1203358,14.548495 C11.3995647,14.548495 14.4539801,13.5050167 14.4539801,10.2441472 C14.4539801,6.98327759 11.4371891,5.4916388 9.40205224,5.4916388 C8.05441542,5.4916388 8.03389303,5.77926421 8.03389303,6.00668896 L8.02021144,12.9264214 Z" id="Shape" fill="#FFFFFF" fill-rule="nonzero"></path>
    </g>
</svg>