<svg width="20" height="20" aria-hidden="true" focusable="false" xmlns="http://www.w3.org/2000/svg">
    <path d="m5 3.25 10.91 12.72a.6.6 0 0 1-.91.78l-3.28-3.83-3.06 3.06a.63.63 0 0 1-.15.12l-.06.03-.05.02-.07.02-4.6 1.06a.65.65 0 0 1-.78-.77l1.07-4.63.01-.04.04-.09a.62.62 0 0 1 .08-.12L7.6 8.13 4.1 4.03A.6.6 0 0 1 5 3.25Zm.02 10.04-.57 2.44 2.44-.56-1.87-1.88Zm5.15-2.17-2.75 2.74.76.76 2.69-2.69-.7-.81Zm-1.72-2L5.57 12l.93.94 2.82-2.81-.87-1.01Zm5.77-6.84.08.07 3.53 3.54c.23.23.26.58.07.84l-.07.08-4.58 4.58-.85-.99 4.06-4.05-.76-.76-4 4-.85-1 3.93-3.92-.94-.94-3.86 3.85-.84-.98 4.24-4.25a.65.65 0 0 1 .84-.07Z" fill-rule="nonzero"/>
</svg>