<svg width="20" height="20" aria-hidden="true" focusable="false" xmlns="http://www.w3.org/2000/svg">
  <path d="M15.83 2.55a.5.5 0 0 1 .64-.06l.07.06 1.41 1.41c.17.18.2.45.06.64l-.06.07-.95.95v8.88a.5.5 0 0 1-.41.5H6.7l-2.85 2.85a.5.5 0 0 1-.84-.26L3 17.5v-12a.5.5 0 0 1 .41-.5h9.97l2.45-2.45ZM12.38 6H4v10.3l2.15-2.15a.5.5 0 0 1 .27-.14L6.5 14H16V6.62l-4.41 4.42a.5.5 0 0 1-.2.12l-.07.01-1.71.3a.5.5 0 0 1-.59-.5l.01-.08.3-1.7a.5.5 0 0 1 .08-.22l.05-.06L12.38 6Zm3.8-2.39-5.9 5.9-.14.85.85-.14 5.9-5.9-.7-.71Z"/>
</svg>
