<svg width="20" height="20" aria-hidden="true" focusable="false" xmlns="http://www.w3.org/2000/svg"><path d="M11.327 15.728l-.136.579c-.555.223-.999.379-1.33.466a3.426 3.426 0 01-.851.131c-.483 0-.845-.125-1.087-.375a1.285 1.285 0 01-.362-.928c0-.139.012-.284.036-.435a8.16 8.16 0 01.118-.57l.96-3.847c.048-.211.095-.438.14-.68.045-.24.068-.446.068-.615 0-.338-.056-.562-.168-.674-.111-.112-.339-.168-.683-.168-.133 0-.31.022-.53.064-.22.042-.387.078-.502.108l.136-.579a8.9 8.9 0 011.267-.47c.374-.103.67-.155.887-.155.495 0 .854.118 1.077.354.224.235.335.552.335.95a4.6 4.6 0 01-.145 1.005l-.968 3.847c-.06.235-.113.466-.158.693a2.957 2.957 0 00-.068.556c0 .344.077.58.23.706.154.127.403.19.747.19.115 0 .28-.015.494-.045.214-.03.378-.066.493-.108zm.643-11.57c0 .345-.112.645-.335.901a1.06 1.06 0 01-.833.385c-.308 0-.573-.122-.797-.366a1.207 1.207 0 01-.335-.838c0-.332.112-.621.335-.869.224-.247.49-.371.797-.371a1.1 1.1 0 01.842.349c.217.232.326.502.326.81z" fill-rule="evenodd"/></svg>
