<?xml version="1.0" encoding="UTF-8"?>
<svg width="20px" height="20px" viewBox="0 0 20 20" version="1.1" xmlns="http://www.w3.org/2000/svg" xmlns:xlink="http://www.w3.org/1999/xlink">
    <title>icon/list</title>
    <g id="icon/list" stroke="none" fill="none" fill-rule="nonzero">
        <path d="M4.39541159,4.35 C4.75439668,4.35 5.04541159,4.64101491 5.04541159,5 C5.04541159,5.32635008 4.8049034,5.59652646 4.49146382,5.64295233 L4.39541159,5.65 L3.6,5.65 C3.24101491,5.65 2.95,5.35898509 2.95,5 C2.95,4.67364992 3.19050819,4.40347354 3.50394776,4.35704767 L3.6,4.35 L4.39541159,4.35 Z M4.39541159,9.35 C4.75439668,9.35 5.04541159,9.64101491 5.04541159,10 C5.04541159,10.3263501 4.8049034,10.5965265 4.49146382,10.6429523 L4.39541159,10.65 L3.6,10.65 C3.24101491,10.65 2.95,10.3589851 2.95,10 C2.95,9.67364992 3.19050819,9.40347354 3.50394776,9.35704767 L3.6,9.35 L4.39541159,9.35 Z M4.39541159,14.35 C4.75439668,14.35 5.04541159,14.6410149 5.04541159,15 C5.04541159,15.3263501 4.8049034,15.5965265 4.49146382,15.6429523 L4.39541159,15.65 L3.6,15.65 C3.24101491,15.65 2.95,15.3589851 2.95,15 C2.95,14.6736499 3.19050819,14.4034735 3.50394776,14.3570477 L3.6,14.35 L4.39541159,14.35 Z" id="Combined-Shape" fill="#163F89"></path>
        <path d="M16.3954116,4.35 C16.7543967,4.35 17.0454116,4.64101491 17.0454116,5 C17.0454116,5.32635008 16.8049034,5.59652646 16.4914638,5.64295233 L16.3954116,5.65 L7.6,5.65 C7.24101491,5.65 6.95,5.35898509 6.95,5 C6.95,4.67364992 7.19050819,4.40347354 7.50394776,4.35704767 L7.6,4.35 L16.3954116,4.35 Z M16.3954116,9.35 C16.7543967,9.35 17.0454116,9.64101491 17.0454116,10 C17.0454116,10.3263501 16.8049034,10.5965265 16.4914638,10.6429523 L16.3954116,10.65 L7.6,10.65 C7.24101491,10.65 6.95,10.3589851 6.95,10 C6.95,9.67364992 7.19050819,9.40347354 7.50394776,9.35704767 L7.6,9.35 L16.3954116,9.35 Z M16.3954116,14.35 C16.7543967,14.35 17.0454116,14.6410149 17.0454116,15 C17.0454116,15.3263501 16.8049034,15.5965265 16.4914638,15.6429523 L16.3954116,15.65 L7.6,15.65 C7.24101491,15.65 6.95,15.3589851 6.95,15 C6.95,14.6736499 7.19050819,14.4034735 7.50394776,14.3570477 L7.6,14.35 L16.3954116,14.35 Z" id="Combined-Shape-Copy" fill="#163F89"></path>
    </g>
</svg>