<svg width="20" height="20" aria-hidden="true" focusable="false" xmlns="http://www.w3.org/2000/svg">
  <path fill-rule="evenodd" d="m12.62 6.09.07.06 1.41 1.41c.18.17.2.44.06.64l-.06.07-9.53 9.53a.5.5 0 0 1-.64.06l-.07-.06-1.41-1.41a.5.5 0 0 1-.06-.64l.06-.07 9.53-9.53a.5.5 0 0 1 .64-.06Zm2.68 5.41c0 .8.61 1.44 1.39 1.5h.11-.11a1.5 1.5 0 0 0-1.39 1.38v.12-.11A1.5 1.5 0 0 0 13.92 13h-.12.11a1.5 1.5 0 0 0 1.39-1.5Zm-2.97-4.3-1.75 1.76.7.71 1.76-1.76-.7-.7ZM7.8 1.5a3 3 0 0 0 2.78 3h.22-.22A3 3 0 0 0 7.8 7.28l-.01.23v-.22A3 3 0 0 0 5.02 4.5L4.8 4.5h.22a3 3 0 0 0 2.78-3Zm8.5 2c0 .8.61 1.44 1.39 1.5h.11-.11a1.5 1.5 0 0 0-1.39 1.38v.12-.11A1.5 1.5 0 0 0 14.92 5h-.12.11a1.5 1.5 0 0 0 1.39-1.5Z"/>
</svg>
