<svg width="20" height="20" aria-hidden="true" focusable="false" xmlns="http://www.w3.org/2000/svg">
  <path d="M13.7 3c.33 0 .6.27.6.6v1.6h-1.2v-1H6.3v1H5.1V3.6c0-.33.27-.6.6-.6h8Zm.9 3a2.6 2.6 0 0 1 2.6 2.6v5a.6.6 0 0 1-.6.6h-2.4v2.4a.6.6 0 0 1-.5.6H5.6a.6.6 0 0 1-.6-.6v-2.4H2.6a.6.6 0 0 1-.6-.5v-5C2 7.26 3.16 6 4.6 6h10ZM13 12.3H6.2V16H13v-3.7Zm1.6-5.1h-10c-.77 0-1.4.63-1.4 1.4V13H5v-1.3c0-.3.22-.55.5-.6h8.1c.33 0 .6.27.6.6V13H16V8.6a1.4 1.4 0 0 0-1.27-1.4h-.13Zm0 .8a.6.6 0 1 1 0 1.2.6.6 0 0 1 0-1.2Z"/>
</svg>
