<?xml version="1.0" encoding="UTF-8"?>
<svg width="17px" height="12px" viewBox="0 0 17 12" version="1.1" xmlns="http://www.w3.org/2000/svg" xmlns:xlink="http://www.w3.org/1999/xlink">
    <title>add-polygon-to-analysis</title>
    <g id="Page-1" stroke="none" stroke-width="1" fill="none" fill-rule="evenodd">
        <g id="add-polygon-to-analysis" transform="translate(0, 0.4)" fill="#000000" fill-rule="nonzero">
            <path d="M6.08764317,1.5 C6.77852346,1.50049491 7.42496126,1.84077509 7.81644972,2.41003128 C8.20793819,2.97928747 8.29438637,3.70468332 8.04764317,4.35 L8.85764317,4.89 C9.39485238,4.50037221 10.0851762,4.38902966 10.7176432,4.59 L11.1376432,4.03 C11.2276432,3.91 11.6576432,3.8 11.9276432,3.99 C12.1976432,4.17 12.2076432,4.6 12.1276432,4.71 L11.7076432,5.26 C12.3574558,6.04852956 12.3454002,7.19032411 11.679083,7.96495738 C11.0127658,8.73959066 9.88560446,8.92220339 9.00879226,8.39757432 C8.13198005,7.87294526 7.76003658,6.79336284 8.12764317,5.84 L7.31764317,5.3 C6.78043396,5.68962779 6.09011014,5.80097034 5.45764317,5.6 L3.78764317,7.85 C4.40827704,8.68786498 4.32014755,9.85421564 3.58066083,10.5893099 C2.84117411,11.3244041 1.67431911,11.4055834 0.840166458,10.7799689 C0.00601380433,10.1543545 -0.242773442,9.01144344 0.255860739,8.09570981 C0.75449492,7.17997617 1.8495153,6.76879367 2.82764317,7.13 L4.47764317,4.93 C3.96541392,4.30414238 3.85810364,3.43975109 4.20174729,2.70764071 C4.54539094,1.97553033 5.27891408,1.50581595 6.08764317,1.5 Z M2.08764317,8.2 C1.59058689,8.2 1.18764317,8.60294373 1.18764317,9.1 C1.18764317,9.59705627 1.59058689,10 2.08764317,10 C2.58469944,10 2.98764317,9.59705627 2.98764317,9.1 C2.98764317,8.60294373 2.58469944,8.2 2.08764317,8.2 L2.08764317,8.2 Z M10.0876432,5.7 C9.59058689,5.7 9.18764317,6.10294373 9.18764317,6.6 C9.18764317,7.09705627 9.59058689,7.5 10.0876432,7.5 C10.5846994,7.5 10.9876432,7.09705627 10.9876432,6.6 C10.9876432,6.10294373 10.5846994,5.7 10.0876432,5.7 L10.0876432,5.7 Z M6.08764317,2.7 C5.59058689,2.7 5.18764317,3.10294373 5.18764317,3.6 C5.18764317,4.09705627 5.59058689,4.5 6.08764317,4.5 C6.58469943,4.5 6.98764313,4.09705626 6.98764313,3.6 C6.98764313,3.10294374 6.58469943,2.7 6.08764317,2.7 Z M11.15,0 L16.15,0 C16.5642136,-1.11022302e-16 16.9,0.335786438 16.9,0.75 C16.9,1.16421356 16.5642136,1.5 16.15,1.5 L11.15,1.5 C10.7357864,1.5 10.4,1.16421356 10.4,0.75 C10.4,0.335786438 10.7357864,0 11.15,0 Z" id="Shape"></path>
        </g>
    </g>
</svg>