<svg width="20" height="20" aria-hidden="true" focusable="false" xmlns="http://www.w3.org/2000/svg"><path d="M7 2.9a.6.6 0 01.097 1.192L7 4.1H4.6v12.8h10.8V4.1H13a.6.6 0 01-.592-.503L12.4 3.5a.6.6 0 01.503-.592L13 2.9h3a.6.6 0 01.592.503l.008.097v14a.6.6 0 01-.503.592L16 18.1H4a.6.6 0 01-.592-.503L3.4 17.5v-14a.6.6 0 01.503-.592L4 2.9h3zm5.647 5a.545.545 0 01.771.026c.2.214.222.532.067.769l-.067.084-4.266 4.567-2.553-2.73a.625.625 0 01-.066-.77l.066-.084a.546.546 0 01.725-.066l.073.066 1.755 1.878 3.495-3.74zM10 1.9a1.6 1.6 0 110 3.2 1.6 1.6 0 010-3.2zm0 1.2a.4.4 0 100 .8.4.4 0 000-.8z" fill-rule="nonzero"/></svg>