<?xml version="1.0" encoding="UTF-8"?>
<svg width="20px" height="20px" viewBox="0 0 20 20" version="1.1" xmlns="http://www.w3.org/2000/svg" xmlns:xlink="http://www.w3.org/1999/xlink">
    <title>day</title>
    <g id="day" stroke="none" fill="none" fill-rule="nonzero">
        <path d="M9.5,15.9 C9.83137085,15.9 10.1,16.1686292 10.1,16.5 L10.1,18.5 C10.1,18.8313708 9.83137085,19.1 9.5,19.1 C9.16862915,19.1 8.9,18.8313708 8.9,18.5 L8.9,16.5 C8.9,16.1686292 9.16862915,15.9 9.5,15.9 Z M14.1669048,14.3183766 L15.5811183,15.7325902 C15.8154329,15.9669048 15.8154329,16.3468037 15.5811183,16.5811183 C15.3468037,16.8154329 14.9669048,16.8154329 14.7325902,16.5811183 L13.3183766,15.1669048 C13.084062,14.9325902 13.084062,14.5526912 13.3183766,14.3183766 C13.5526912,14.084062 13.9325902,14.084062 14.1669048,14.3183766 Z M5.68162338,14.3183766 C5.91593796,14.5526912 5.91593796,14.9325902 5.68162338,15.1669048 L4.26740982,16.5811183 C4.03309524,16.8154329 3.65319626,16.8154329 3.41888168,16.5811183 C3.18456711,16.3468037 3.18456711,15.9669048 3.41888168,15.7325902 L4.83309524,14.3183766 C5.06740982,14.084062 5.44730881,14.084062 5.68162338,14.3183766 Z M9.5,5.4 C12.3166522,5.4 14.6,7.68334778 14.6,10.5 C14.6,13.3166522 12.3166522,15.6 9.5,15.6 C6.68334778,15.6 4.4,13.3166522 4.4,10.5 C4.4,7.68334778 6.68334778,5.4 9.5,5.4 Z M9.5,6.6 C7.34608948,6.6 5.6,8.34608948 5.6,10.5 C5.6,12.6539105 7.34608948,14.4 9.5,14.4 C11.6539105,14.4 13.4,12.6539105 13.4,10.5 C13.4,8.34608948 11.6539105,6.6 9.5,6.6 Z M17.5,9.9 C17.8313708,9.9 18.1,10.1686292 18.1,10.5 C18.1,10.8313708 17.8313708,11.1 17.5,11.1 L15.5,11.1 C15.1686292,11.1 14.9,10.8313708 14.9,10.5 C14.9,10.1686292 15.1686292,9.9 15.5,9.9 L17.5,9.9 Z M3.5,9.9 C3.83137085,9.9 4.1,10.1686292 4.1,10.5 C4.1,10.8313708 3.83137085,11.1 3.5,11.1 L1.5,11.1 C1.16862915,11.1 0.9,10.8313708 0.9,10.5 C0.9,10.1686292 1.16862915,9.9 1.5,9.9 L3.5,9.9 Z M4.26740982,4.41888168 L5.68162338,5.83309524 C5.91593796,6.06740982 5.91593796,6.44730881 5.68162338,6.68162338 C5.44730881,6.91593796 5.06740982,6.91593796 4.83309524,6.68162338 L3.41888168,5.26740982 C3.18456711,5.03309524 3.18456711,4.65319626 3.41888168,4.41888168 C3.65319626,4.18456711 4.03309524,4.18456711 4.26740982,4.41888168 Z M15.5811183,4.41888168 C15.8154329,4.65319626 15.8154329,5.03309524 15.5811183,5.26740982 L14.1669048,6.68162338 C13.9325902,6.91593796 13.5526912,6.91593796 13.3183766,6.68162338 C13.084062,6.44730881 13.084062,6.06740982 13.3183766,5.83309524 L14.7325902,4.41888168 C14.9669048,4.18456711 15.3468037,4.18456711 15.5811183,4.41888168 Z M9.5,1.9 C9.83137085,1.9 10.1,2.16862915 10.1,2.5 L10.1,4.5 C10.1,4.83137085 9.83137085,5.1 9.5,5.1 C9.16862915,5.1 8.9,4.83137085 8.9,4.5 L8.9,2.5 C8.9,2.16862915 9.16862915,1.9 9.5,1.9 Z" id="Forma" fill="#163F89"></path>
    </g>
</svg>