<?xml version="1.0" encoding="UTF-8"?>
<svg width="20px" height="20px" viewBox="0 0 20 20" version="1.1" xmlns="http://www.w3.org/2000/svg" xmlns:xlink="http://www.w3.org/1999/xlink">
    <title>dawn</title>
    <g id="dawn" stroke="none" fill="none" fill-rule="nonzero">
        <path d="M9.96850657,8.13850687 C10.2948566,8.13850687 10.565033,7.89799868 10.6114589,7.58455911 L10.6185066,7.48850687 L10.6184248,4.21950687 L11.3273937,4.92775797 C11.5812345,5.18159876 11.9927918,5.18159876 12.2466325,4.92775797 C12.4750893,4.69930126 12.4979349,4.34309423 12.3151696,4.08908746 L12.2466325,4.00851916 L10.428126,2.19001259 C10.1996693,1.96155588 9.84346223,1.93871021 9.58945546,2.12147558 L9.50888716,2.19001259 L7.69038059,4.00851916 C7.4365398,4.26235995 7.4365398,4.67391719 7.69038059,4.92775797 C7.9188373,5.15621469 8.27504434,5.17906036 8.52905111,4.99629499 L8.60961941,4.92775797 L9.31842482,4.21950687 L9.31850657,7.48850687 C9.31850657,7.84749196 9.60952148,8.13850687 9.96850657,8.13850687 Z M18.0666667,17.5 C18.0666667,17.8313708 17.7980375,18.1 17.4666667,18.1 L2.53333333,18.1 C2.20196248,18.1 1.93333333,17.8313708 1.93333333,17.5 C1.93333333,17.1686292 2.20196248,16.9 2.53333333,16.9 L17.4666667,16.9 C17.7980375,16.9 18.0666667,17.1686292 18.0666667,17.5 Z M10,12.5092359 C11.7938873,12.5092359 13.2481203,13.9634689 13.2481203,15.7573562 C13.2481203,16.0563374 12.1654135,16.0563374 12.1654135,15.7573562 C12.1654135,14.5614314 11.1959249,13.5919427 10,13.5919427 C8.80407513,13.5919427 7.83458647,14.5614314 7.83458647,15.7573562 C7.83458647,16.0563374 6.7518797,16.0563374 6.7518797,15.7573562 C6.7518797,13.9634689 8.20611269,12.5092359 10,12.5092359 Z M15.4554992,15.0517932 C15.7546364,15.0517932 16,15.2842845 16,15.5748285 C16,15.8653724 15.7546364,16.0978637 15.4554992,16.0978637 L14.0916244,16.0978637 C13.7924872,16.0978637 13.5471236,15.8653724 13.5471236,15.5748285 C13.5471236,15.2842845 13.7924872,15.0517932 14.0916244,15.0517932 L15.4554992,15.0517932 Z M5.90837559,15.0517932 C6.20751278,15.0517932 6.45287638,15.2842845 6.45287638,15.5748285 C6.45287638,15.8653724 6.20751278,16.0978637 5.90837559,16.0978637 L4.54450079,16.0978637 C4.24536359,16.0978637 4,15.8653724 4,15.5748285 C4,15.2842845 4.24536359,15.0517932 4.54450079,15.0517932 L5.90837559,15.0517932 Z M6.51222127,11.524448 L7.4766264,12.4888531 C7.68814833,12.700375 7.69725043,13.0382695 7.49180484,13.2437151 L7.45179485,13.2797248 C7.24461607,13.4472322 6.93524469,13.4268384 6.73694287,13.2285366 L5.77253775,12.2641315 C5.56101581,12.0526096 5.55191371,11.7147151 5.75735931,11.5092695 C5.96280491,11.3038239 6.30069934,11.312926 6.51222127,11.524448 Z M14.2426407,11.5092695 C14.4480863,11.7147151 14.4389842,12.0526096 14.2274623,12.2641315 L13.2630571,13.2285366 C13.0515352,13.4400586 12.7136408,13.4491607 12.5081952,13.2437151 C12.3027496,13.0382695 12.3118517,12.700375 12.5233736,12.4888531 L13.4877787,11.524448 C13.6993007,11.312926 14.0371951,11.3038239 14.2426407,11.5092695 Z M10,9.8252599 C10.290544,9.8252599 10.5230352,10.0706235 10.5230352,10.3697607 L10.5230352,11.7336355 C10.5230352,12.0327727 10.290544,12.2781363 10,12.2781363 C9.70945605,12.2781363 9.47696476,12.0327727 9.47696476,11.7336355 L9.47696476,10.3697607 C9.47696476,10.0706235 9.70945605,9.8252599 10,9.8252599 Z" id="Forma" fill="#163F89"></path>
    </g>
</svg>