<?xml version="1.0" encoding="UTF-8"?>
<svg width="20px" height="20px" viewBox="0 0 20 20" version="1.1" xmlns="http://www.w3.org/2000/svg" xmlns:xlink="http://www.w3.org/1999/xlink">
    <title>night</title>
    <g id="night" stroke="none" fill="none" fill-rule="nonzero">
        <path d="M13.5050876,4.11353085 C13.9944265,4.24667809 14.1081393,4.8891941 13.6942212,5.18220019 C12.1412909,6.28149512 11.2,8.06113085 11.2,10 C11.2,11.9388007 12.1412339,13.7185037 13.6942381,14.8184061 C14.1082614,15.1116347 13.9940864,15.7544381 13.5044072,15.8871506 C12.9851237,16.0278864 12.4468502,16.1 11.9,16.1 C8.53106303,16.1 5.8,13.368937 5.8,10 C5.8,6.63106303 8.53106303,3.9 11.9,3.9 C12.447494,3.9 12.9859843,3.97228484 13.5050876,4.11353085 Z M7,10 C7,12.7061953 9.19380473,14.9 11.9,14.9 C11.9211664,14.9 11.9423149,14.8998661 11.963354,14.8989575 C10.7214837,13.6011444 10,11.8608328 10,10 C10,8.13899367 10.721617,6.39858272 11.9636455,5.10104838 C11.9425147,5.10013514 11.921267,5.1 11.9,5.1 C9.19380473,5.1 7,7.29380473 7,10 Z" id="Forma-combinada" fill="#163F89"></path>
    </g>
</svg>