<?xml version="1.0" encoding="UTF-8"?>
<svg width="20px" height="20px" viewBox="0 0 20 20" version="1.1" xmlns="http://www.w3.org/2000/svg" xmlns:xlink="http://www.w3.org/1999/xlink">
    <title>split</title>
    <g id="split" stroke="none" stroke-width="1" fill="none" fill-rule="evenodd">
        <path d="M13.3790511,13.4718436 L13.4596194,13.5403806 C13.6880761,13.7688373 13.7109218,14.1250443 13.5281564,14.3790511 L13.4596194,14.4596194 L10.4596194,17.4596194 C10.2311627,17.6880761 9.87495566,17.7109218 9.62094889,17.5281564 L9.54038059,17.4596194 L6.54038059,14.4596194 C6.2865398,14.2057786 6.2865398,13.7942214 6.54038059,13.5403806 C6.7688373,13.3119239 7.12504434,13.2890782 7.37905111,13.4718436 L7.45961941,13.5403806 L10,16.081 L12.5403806,13.5403806 C12.7688373,13.3119239 13.1250443,13.2890782 13.3790511,13.4718436 Z M17,9.35 C17.3589851,9.35 17.65,9.64101491 17.65,10 C17.65,10.3263501 17.4094918,10.5965265 17.0960522,10.6429523 L17,10.65 L3,10.65 C2.64101491,10.65 2.35,10.3589851 2.35,10 C2.35,9.67364992 2.59050819,9.40347354 2.90394776,9.35704767 L3,9.35 L17,9.35 Z M10.3790511,2.47184358 L10.4596194,2.54038059 L13.4596194,5.54038059 C13.7134602,5.79422138 13.7134602,6.20577862 13.4596194,6.45961941 C13.2311627,6.68807612 12.8749557,6.71092179 12.6209489,6.52815642 L12.5403806,6.45961941 L10,3.919 L7.45961941,6.45961941 C7.2311627,6.68807612 6.87495566,6.71092179 6.62094889,6.52815642 L6.54038059,6.45961941 C6.31192388,6.2311627 6.28907821,5.87495566 6.47184358,5.62094889 L6.54038059,5.54038059 L9.54038059,2.54038059 C9.7688373,2.31192388 10.1250443,2.28907821 10.3790511,2.47184358 Z" id="Shape" fill="#163F89" fill-rule="nonzero"></path>
    </g>
</svg>