<svg xmlns="http://www.w3.org/2000/svg" width="16" height="22">
  <path fill="#163F89" fill-rule="nonzero" d="m14.89 13.81.937.812a.5.5 0 0 1 0 .756l-7.5 6.5a.5.5 0 0 1-.654 0l-7.5-6.5a.5.5 0 0 1 0-.756l.937-.812a.5.5 0 0 1 .655.755L1.263 15 8 20.838 14.737 15l-.502-.435a.5.5 0 0 1 .655-.755Zm0-4 .937.812a.5.5 0 0 1 0 .756l-7.5 6.5a.5.5 0 0 1-.654 0l-7.5-6.5a.5.5 0 0 1 0-.756l.937-.812a.5.5 0 0 1 .655.755L1.263 11 8 16.838 14.737 11l-.502-.435a.5.5 0 0 1 .655-.755ZM8.327.122l7.5 6.5a.5.5 0 0 1 0 .756l-7.5 6.5a.5.5 0 0 1-.654 0l-7.5-6.5a.5.5 0 0 1 0-.756l7.5-6.5a.5.5 0 0 1 .654 0ZM8 1.162 1.263 7 8 12.838 14.737 7 8 1.162Z"/>
</svg>
