<svg xmlns="http://www.w3.org/2000/svg" width="178" height="40"><g fill="none" fill-rule="evenodd"><path fill="#8ABBC7" d="M3.032 17.757l-.004.01c-.15.311-2.138 4.592.566 8.785.81 1.257 1.724 2.246 4.02 3.818 3.309 2.266 7.257 6.18 8.227 8.488.09.211.342.59-.07.83-.806.471-1.987.281-2.234.234C8.892 39.04-.65 34.895.035 26.065c.173-2.225.954-4.893 3.002-8.316l-.005.008zm9.716-8.677c.692-.083 2.923-.156 3.018.076.069.168-.818.505-.857.52-5.103 1.995-6.818 3.174-7.062 3.325-3.243 2.011-4.617 4.364-4.72 4.586 1.442-3.122 5.087-7.966 9.62-8.507z"/><path fill="#E84427" d="M20.494 9.199c.216.39.44.776.647 1.17.659 1.256 1.193 2.56 1.525 3.941.266 1.108.388 2.23.312 3.366-.12 1.775-.709 3.388-1.732 4.844-.895 1.274-2.018 2.318-3.295 3.198a20.386 20.386 0 01-7.044 3.087c-.393.09-.796.16-1.198.187a3.406 3.406 0 01-1.222-.135 1.086 1.086 0 01-.082-.029c-.43-.17-.506-.428-.283-.834.275-.5.554-.995.89-1.457a18.73 18.73 0 011.65-1.95c1.66-1.725 3.528-3.204 5.496-4.56.757-.522 1.5-1.06 2.156-1.706 1.31-1.29 2.225-2.797 2.55-4.62a8.36 8.36 0 00-.232-3.891c-.059-.199-.123-.396-.184-.594l.046-.017zm.641 16.448c.499.028.647.277.407.717-.351.643-.895 1.044-1.61 1.213-.674.16-1.352.124-2.02-.02-.422-.09-.832-.235-1.247-.356-.032-.01-.06-.03-.11-.055.053-.037.084-.065.12-.083 1.022-.528 2.078-.972 3.197-1.256.414-.105.832-.184 1.263-.16zM10.751.067c.922.21 1.757.615 2.547 1.118.87.553 1.659 1.208 2.4 1.921 1.577 1.522 2.928 3.228 4.135 5.051.028.042.055.085.081.128.007.01.007.025.018.068-.102-.09-.187-.162-.269-.237-1.053-.975-2.248-1.74-3.53-2.376-1.011-.501-2.063-.905-3.116-1.306-.58-.22-1.166-.432-1.708-.74a1.82 1.82 0 01-.587-.505 1.611 1.611 0 01-.16-.257c-.15-.321-.07-.593.233-.78.103-.064.213-.115.342-.183-.274-.138-.522-.24-.747-.383a3.345 3.345 0 01-.55-.448.767.767 0 01-.217-.635c.02-.239.132-.387.359-.459.26-.083.514-.034.77.024z"/><path fill="#FFF" fill-rule="nonzero" d="M37.742 24.156c.917 0 1.72-.136 2.41-.41.69-.273 1.228-.686 1.614-1.238v-4.172H37.64v1.219h2.632v2.554a2.282 2.282 0 01-1.046.633c-.422.125-.914.188-1.477.188-.995 0-1.784-.377-2.367-1.13-.584-.752-.875-1.766-.875-3.042v-.93c.005-1.338.267-2.36.785-3.066s1.28-1.059 2.285-1.059c1.51 0 2.406.753 2.688 2.258h1.5c-.162-1.115-.605-1.975-1.328-2.582-.724-.607-1.68-.91-2.868-.91-1.448 0-2.571.471-3.37 1.414-.8.943-1.2 2.27-1.2 3.984v.992c.01 1.058.212 1.987.605 2.79.394.802.95 1.42 1.668 1.855.72.435 1.542.652 2.47.652zM45.41 24V12h-1.445v12h1.445zm5.582.156c.76 0 1.433-.182 2.02-.547a3.589 3.589 0 001.35-1.527c.316-.654.473-1.392.473-2.215v-.101c0-1.323-.355-2.383-1.066-3.18-.711-.797-1.642-1.195-2.793-1.195-.745 0-1.408.18-1.988.539-.581.36-1.034.87-1.36 1.53-.325.662-.488 1.407-.488 2.235v.102c0 1.312.356 2.367 1.066 3.164.711.797 1.64 1.195 2.786 1.195zm0-1.18c-.73 0-1.312-.283-1.746-.851-.435-.568-.653-1.32-.653-2.258 0-1.057.219-1.87.656-2.437.438-.568 1.013-.852 1.727-.852.73 0 1.314.288 1.754.863.44.576.66 1.327.66 2.254 0 1.037-.216 1.843-.648 2.418-.433.576-1.016.864-1.75.864zm9.33 1.18c1 0 1.798-.392 2.392-1.176.593-.783.89-1.821.89-3.113v-.125c0-1.349-.293-2.411-.879-3.187-.586-.776-1.392-1.164-2.418-1.164-1.026 0-1.83.362-2.414 1.086V12h-1.445v12h1.328l.07-.977c.584.756 1.41 1.133 2.477 1.133zm-.358-1.226c-.938 0-1.628-.443-2.07-1.328v-3.657c.416-.885 1.1-1.328 2.054-1.328.713 0 1.26.268 1.64.805.38.536.57 1.297.57 2.281 0 1.078-.192 1.886-.577 2.422-.386.536-.925.805-1.617.805zm7.87 1.226c.932 0 1.734-.349 2.406-1.047.052.427.12.724.203.891h1.516v-.125c-.198-.458-.297-1.076-.297-1.852v-3.89c-.02-.854-.307-1.525-.86-2.012-.552-.487-1.315-.73-2.288-.73a4.1 4.1 0 00-1.692.343c-.513.23-.92.54-1.219.934-.3.393-.449.8-.449 1.223h1.453c0-.37.175-.685.524-.946.349-.26.78-.39 1.297-.39.588 0 1.033.15 1.335.449.303.3.454.702.454 1.207v.664H68.81c-1.213 0-2.155.243-2.824.73-.67.487-1.004 1.171-1.004 2.051 0 .724.267 1.322.801 1.793.534.472 1.217.707 2.05.707zm.21-1.258c-.473 0-.861-.127-1.163-.382-.302-.256-.453-.61-.453-1.063 0-1.036.885-1.555 2.656-1.555h1.133v1.735c-.183.375-.477.68-.883.914a2.54 2.54 0 01-1.29.351zM75.298 24V12h-1.445v12h1.445zm7.6 0v-5.023h4.773V17.75h-4.773v-3.89h5.547v-1.235h-7.047V24h1.5zm7.776-9.875c.282 0 .495-.078.641-.234a.826.826 0 00.219-.586.854.854 0 00-.219-.594c-.146-.162-.36-.242-.64-.242-.282 0-.494.08-.637.242a.863.863 0 00-.215.594c0 .234.071.43.215.586.143.156.355.234.636.234zm.71 9.875v-8.453H89.94V24h1.445zm5.222.156c.964 0 1.748-.228 2.352-.683.604-.456.906-1.062.906-1.817 0-.453-.108-.837-.324-1.152-.216-.315-.548-.585-.996-.809-.448-.224-1.033-.416-1.754-.578-.722-.161-1.22-.33-1.496-.508-.276-.177-.414-.44-.414-.789 0-.37.148-.669.445-.898.297-.23.708-.344 1.234-.344.51 0 .934.143 1.27.43.336.286.504.627.504 1.023h1.453c0-.77-.298-1.403-.895-1.898-.596-.495-1.373-.742-2.332-.742-.911 0-1.66.24-2.246.718-.586.48-.879 1.065-.879 1.758 0 .417.103.776.309 1.078.206.302.523.563.953.782.43.218 1.01.406 1.742.562.732.156 1.245.343 1.54.559.294.216.44.52.44.91 0 .37-.165.665-.495.887-.331.22-.77.332-1.317.332-.593 0-1.071-.142-1.433-.426-.362-.284-.556-.668-.582-1.153h-1.446c0 .5.147.965.442 1.395.294.43.702.764 1.222 1.004.521.24 1.12.36 1.797.36zm6.386-.156v-6.023c.198-.407.474-.735.828-.985s.766-.375 1.235-.375c.578 0 1.004.146 1.277.438.273.291.413.742.418 1.351V24h1.445v-5.586c-.015-2.016-.916-3.023-2.703-3.023-1.026 0-1.86.393-2.5 1.18V12h-1.445v12h1.445zm8.027-9.875c.281 0 .495-.078.64-.234a.826.826 0 00.22-.586.854.854 0 00-.22-.594c-.145-.162-.359-.242-.64-.242-.282 0-.494.08-.637.242a.863.863 0 00-.215.594c0 .234.072.43.215.586.143.156.355.234.637.234zm.71 9.875v-8.453h-1.445V24h1.446zm3.558 0v-6.023c.198-.407.474-.735.829-.985.354-.25.765-.375 1.234-.375.578 0 1.004.146 1.277.438.274.291.413.742.418 1.351V24h1.446v-5.586c-.016-2.016-.917-3.023-2.704-3.023-1.041 0-1.885.406-2.53 1.218l-.048-1.062h-1.367V24h1.445zm10.394 3.328c1.094 0 1.965-.315 2.614-.945.648-.63.972-1.492.972-2.586v-8.25h-1.32l-.07.937c-.579-.729-1.383-1.093-2.414-1.093-1.006 0-1.813.389-2.422 1.168-.61.778-.914 1.826-.914 3.144 0 1.375.306 2.461.918 3.258.612.797 1.412 1.195 2.402 1.195 1 0 1.789-.333 2.367-1v.727c0 .719-.197 1.276-.59 1.672-.393.396-.941.593-1.644.593-.896 0-1.654-.382-2.274-1.148l-.75.867c.308.453.753.81 1.336 1.07a4.36 4.36 0 001.79.391zm.125-4.398c-.703 0-1.25-.272-1.64-.817-.391-.544-.586-1.293-.586-2.246 0-1.073.198-1.883.593-2.43.396-.546.946-.82 1.649-.82.885 0 1.55.404 1.992 1.211v3.86c-.427.828-1.096 1.242-2.008 1.242zM138.508 24l2.43-8.29.18-.866.179.867L143.64 24h1.367l2.758-11.375h-1.508l-1.766 7.781-.242 1.532-.313-1.375-2.195-7.938h-1.265l-2.25 7.938-.32 1.351-.22-1.5-1.796-7.789h-1.5L137.14 24h1.367zm12.847.156c.932 0 1.734-.349 2.406-1.047.052.427.12.724.203.891h1.516v-.125c-.198-.458-.297-1.076-.297-1.852v-3.89c-.021-.854-.307-1.525-.86-2.012-.552-.487-1.315-.73-2.289-.73a4.1 4.1 0 00-1.691.343c-.513.23-.92.54-1.219.934-.3.393-.449.8-.449 1.223h1.453c0-.37.175-.685.524-.946.349-.26.78-.39 1.296-.39.589 0 1.034.15 1.336.449.302.3.454.702.454 1.207v.664h-1.407c-1.213 0-2.155.243-2.824.73-.67.487-1.004 1.171-1.004 2.051 0 .724.267 1.322.8 1.793.535.472 1.218.707 2.052.707zm.21-1.258c-.473 0-.861-.127-1.163-.382-.303-.256-.454-.61-.454-1.063 0-1.036.886-1.555 2.657-1.555h1.133v1.735c-.183.375-.477.68-.883.914a2.54 2.54 0 01-1.29.351zm8.152 1.258c.36 0 .73-.052 1.11-.156v-1.172a3.5 3.5 0 01-.688.094c-.338 0-.578-.085-.719-.254-.14-.17-.21-.423-.21-.762v-5.242h1.577v-1.117h-1.578V13.5h-1.445v2.047h-1.539v1.117h1.54v5.242c0 .719.163 1.274.491 1.664.328.39.815.586 1.461.586zm5.949 0a3.55 3.55 0 001.629-.39 3.29 3.29 0 001.23-1.047 2.62 2.62 0 00.5-1.383h-1.367c-.042.469-.255.86-.64 1.172a2.082 2.082 0 01-1.352.469c-.745 0-1.318-.263-1.72-.79-.4-.526-.6-1.276-.6-2.25v-.273c0-1 .201-1.764.605-2.293.403-.529.972-.793 1.707-.793.547 0 1.006.176 1.379.527.372.352.58.801.62 1.348h1.368c-.042-.906-.376-1.643-1.004-2.21-.628-.569-1.415-.852-2.363-.852-.771 0-1.439.177-2.004.53a3.451 3.451 0 00-1.3 1.493c-.303.64-.454 1.372-.454 2.195v.243c0 1.333.34 2.384 1.02 3.152.68.768 1.595 1.152 2.746 1.152zm6.23-.156v-6.023c.197-.407.473-.735.827-.985a2.09 2.09 0 011.235-.375c.578 0 1.004.146 1.277.438.274.291.413.742.418 1.351V24h1.445v-5.586c-.015-2.016-.916-3.023-2.703-3.023-1.026 0-1.86.393-2.5 1.18V12h-1.445v12h1.445z"/></g></svg>